<svg width="31" height="34" viewBox="0 0 31 34" fill="none" xmlns="http://www.w3.org/2000/svg">
<g id="Group 10">
<path id="Vector" d="M14.1194 33.0898C16.5891 33.0898 18.655 31.3684 19.1294 29.0898H9.10938C9.58404 31.3684 11.65 33.0898 14.1194 33.0898Z" fill="#4AAFFC"/>
<path id="Vector_2" d="M23.5311 16C23.5256 16 23.5201 16.0012 23.5146 16.0012C18.2524 16.0012 13.9692 11.8145 13.9692 6.66797C13.9692 5.25317 14.302 3.91577 14.8816 2.71313C14.5814 2.6853 14.2773 2.66797 13.9692 2.66797C8.69749 2.66797 4.4238 6.84644 4.4238 12.0012V15.7185C4.4238 18.3572 3.24152 20.8479 1.16734 22.5625C0.475953 23.1399 0.169084 24.0598 0.417276 24.9573C0.706417 26.0012 1.76186 26.668 2.86923 26.668H25.0624C26.2242 26.668 27.3194 25.9319 27.5551 24.8186C27.7378 23.9573 27.4242 23.0972 26.7411 22.5359C24.7583 20.9106 23.6115 18.5225 23.5311 16Z" fill="#4AAFFC"/>
<path id="Vector_3" d="M30.3316 6.66675C30.3316 10.3486 27.2792 13.3333 23.5133 13.3333C19.7478 13.3333 16.6953 10.3486 16.6953 6.66675C16.6953 2.98486 19.7478 0 23.5133 0C27.2792 0 30.3316 2.98486 30.3316 6.66675Z" fill="#9BD3FD"/>
</g>
</svg>
