<svg width="36" height="28" viewBox="0 0 36 28" fill="none" xmlns="http://www.w3.org/2000/svg">
<g id="Group 7719">
<g id="Group">
<g id="Group 7961">
<g id="Group_2">
<g id="Group_3">
<path id="Vector" d="M32.0163 7.36833H14.982C14.03 7.36833 13.187 6.76119 12.8849 5.85777L12.7553 5.46575C12.2527 3.95969 10.8483 2.94727 9.26112 2.94727H4.01623C1.98551 2.94727 0.332031 4.60074 0.332031 6.63146V24.3157C0.332031 26.3464 1.98551 27.9999 4.01623 27.9999H32.0163C34.047 27.9999 35.7005 26.3464 35.7005 24.3157V11.0525C35.7005 9.0218 34.047 7.36833 32.0163 7.36833Z" fill="#25CCF7"/>
</g>
</g>
<g id="Group_4">
<path id="Vector_2" d="M30.5427 0H9.26128C8.85454 0 8.52441 0.330129 8.52441 0.736866C8.52441 1.1436 8.85454 1.47373 9.26128 1.47373C11.4836 1.47373 13.451 2.89144 14.1539 4.99877L14.2836 5.39224C14.3838 5.69433 14.6653 5.8977 14.9836 5.8977L32.0165 5.89472C32.4085 5.89472 32.8167 5.95365 33.3045 6.08041C33.3664 6.09664 33.4283 6.10397 33.4901 6.10397C33.6508 6.10397 33.8099 6.05091 33.9411 5.95068C34.1209 5.81066 34.227 5.59554 34.227 5.3671V3.68413C34.227 1.65348 32.5735 0 30.5427 0Z" fill="#9DE8FB"/>
</g>
</g>
</g>
</g>
</svg>
