<svg width="164" height="118" viewBox="0 0 164 118" fill="none" xmlns="http://www.w3.org/2000/svg">
<g id="1">
<g id="freepik  background simple  inject 119" opacity="0.9">
<path id="Vector" opacity="0.5" d="M24.3293 95.9176C-8.97513 74.9644 -11.2292 -2.37385 37.3514 4.42138C54.3487 6.79996 66.7068 24.205 82.5291 30.0824C100.811 36.848 114.073 25.7694 131.455 26.9488C172.771 29.7517 174.195 87.8936 138.881 102.994C119.861 111.132 101.501 109.607 82.398 106.518C65.7895 103.799 40.0161 105.777 24.3293 95.9176Z" fill="#FEDB5D"/>
</g>
<g id="Group 8000">
<g id="Group 7985">
<g id="freepik  Character  inject 196">
<path id="Vector_2" d="M106.429 66.5674H69.482C68.7814 66.5674 68.2134 67.1354 68.2134 67.836V69.2909C68.2134 69.9915 68.7814 70.5595 69.482 70.5595H106.429C107.129 70.5595 107.697 69.9915 107.697 69.2909V67.836C107.697 67.1354 107.129 66.5674 106.429 66.5674Z" fill="#804C21"/>
<path id="Vector_3" d="M106.079 115.009H107.698L105.836 70.5586H103.593L106.079 115.009Z" fill="#FEC90B"/>
<path id="Vector_4" opacity="0.8" d="M106.079 115.009H107.698L105.836 70.5586H103.593L106.079 115.009Z" fill="white"/>
<path id="Vector_5" d="M91.1672 115.009H89.5479L91.4097 70.5586H93.6525L91.1672 115.009Z" fill="#FEC90B"/>
<path id="Vector_6" opacity="0.8" d="M91.1672 115.009H89.5479L91.4097 70.5586H93.6525L91.1672 115.009Z" fill="white"/>
<path id="Vector_7" d="M84.7441 115.009H86.3635L84.4973 70.5586H82.2588L84.7441 115.009Z" fill="#FEC90B"/>
<path id="Vector_8" opacity="0.8" d="M84.7441 115.009H86.3635L84.4973 70.5586H82.2588L84.7441 115.009Z" fill="white"/>
<path id="Vector_9" d="M69.8327 115.009H68.2134L70.0795 70.5586H72.3181L69.8327 115.009Z" fill="#FEC90B"/>
<path id="Vector_10" opacity="0.8" d="M69.8327 115.009H68.2134L70.0795 70.5586H72.3181L69.8327 115.009Z" fill="white"/>
<g id="Group" opacity="0.3">
<path id="Vector_11" opacity="0.3" d="M105.835 70.5527H103.592L103.696 72.4449H105.913L105.835 70.5527Z" fill="#FEC90B"/>
<path id="Vector_12" opacity="0.3" d="M91.334 72.4449H93.5465L93.6548 70.5527H91.4119L91.334 72.4449Z" fill="#FEC90B"/>
<path id="Vector_13" opacity="0.3" d="M82.2578 70.5527L82.3617 72.4449H84.5786L84.4963 70.5527H82.2578Z" fill="#FEC90B"/>
<path id="Vector_14" opacity="0.3" d="M69.9971 72.4449H72.2183L72.3222 70.5527H70.0793L69.9971 72.4449Z" fill="#FEC90B"/>
</g>
<path id="Vector_15" d="M83.6993 108.476L80.0363 110.424L74.2603 102.626L77.9276 100.678L83.6993 108.476Z" fill="#FFB573"/>
<path id="Vector_16" d="M78.7099 109.22L82.5375 106.562C82.5688 106.535 82.6053 106.515 82.6447 106.503C82.6842 106.492 82.7256 106.488 82.7664 106.494C82.8072 106.499 82.8465 106.513 82.8816 106.534C82.9167 106.556 82.947 106.584 82.9704 106.618L85.2609 109.515C85.3711 109.674 85.4142 109.871 85.381 110.062C85.3478 110.253 85.2409 110.423 85.0834 110.536C83.7368 111.437 83.1306 111.753 81.3684 112.801C80.2816 113.442 77.6837 114.966 76.086 115.663C74.4883 116.36 73.8475 114.758 74.4623 114.321C75.9215 113.29 77.8526 111.264 78.2899 109.839C78.3574 109.592 78.5051 109.374 78.7099 109.22Z" fill="#263238"/>
<path id="Vector_17" opacity="0.2" d="M77.9319 100.681L74.2603 102.625L77.0443 106.383L80.6294 104.322L77.9319 100.681Z" fill="black"/>
<path id="Vector_18" d="M86.7785 54.4915C86.7785 54.4915 58.3141 53.6039 58.2016 65.498C58.063 82.5922 74.2869 105.042 74.2869 105.042L80.6344 100.821C80.6344 100.821 69.5154 84.5016 69.4202 71.1571C77.8071 68.7886 97.5641 70.2911 100.123 63.3201C102.219 57.6307 101.123 54.4915 101.123 54.4915H86.7785Z" fill="#FEC90B"/>
<path id="Vector_19" d="M86.7785 54.4915C86.7785 54.4915 58.3141 53.6039 58.2016 65.498C58.063 82.5922 74.2869 105.042 74.2869 105.042L80.6344 100.821C80.6344 100.821 69.5154 84.5016 69.4202 71.1571C77.8071 68.7886 97.5641 70.2911 100.123 63.3201C102.219 57.6307 101.123 54.4915 101.123 54.4915H86.7785Z" fill="#C3A300"/>
<path id="Vector_20" d="M82.3591 101.907L74.8079 106.532L72.4395 104.128L80.7354 98.9023L82.3591 101.907Z" fill="#A88D02"/>
<path id="Vector_21" d="M76.9221 113.254L72.8088 113.059L72.1333 103.348L76.2466 103.543L76.9221 113.254Z" fill="#FFB573"/>
<path id="Vector_22" d="M72.7146 112.359L77.3692 112.212C77.4478 112.206 77.5255 112.231 77.5855 112.282C77.6456 112.333 77.683 112.406 77.6896 112.485L78.0316 116.161C78.0387 116.355 77.9684 116.545 77.8361 116.687C77.7038 116.83 77.5204 116.915 77.3259 116.923C75.7065 116.923 74.9271 116.875 72.8791 116.923C71.6191 116.962 69.1425 117.148 67.4149 116.923C65.6873 116.698 65.9514 115.005 66.7005 114.94C68.48 114.797 70.8658 113.567 72.0088 112.61C72.21 112.451 72.4581 112.363 72.7146 112.359Z" fill="#263238"/>
<path id="Vector_23" opacity="0.2" d="M76.251 103.543L72.1333 103.348L72.5187 108.903L76.6233 108.899L76.251 103.543Z" fill="black"/>
<path id="Vector_24" d="M96.9032 54.4922C96.9032 54.4922 67.1226 57.3066 68.2051 66.2737C69.7725 79.2025 70.5432 107.069 70.5432 107.069L78.1334 107.368C78.1334 107.368 81.3505 82.2551 79.6878 68.9928C87.3949 68.9928 106.264 69.547 107.983 64.9054C109.503 60.8008 108.962 54.5138 108.962 54.5138L96.9032 54.4922Z" fill="#F8D106"/>
<path id="Vector_25" d="M78.9708 107.836L69.8608 107.386L69.5317 103.42L79.525 104.108L78.9708 107.836Z" fill="#A88D02"/>
<path id="Vector_26" d="M90.2943 28.2275C90.238 28.9549 90.1817 29.587 90.0994 30.2538C90.0172 30.9206 89.9306 31.5528 89.8267 32.2282C89.6232 33.5272 89.3634 34.8261 89.0603 36.1554C88.4701 38.9019 87.5103 41.5558 86.2069 44.0443C85.8179 44.7434 85.3703 45.4083 84.869 46.0317C84.3086 46.7354 83.646 47.3513 82.9033 47.8589C81.4743 48.8079 79.8218 49.3662 78.1101 49.4783C76.6113 49.5764 75.1066 49.4302 73.6547 49.0453C72.9696 48.87 72.2958 48.6531 71.637 48.3958C71.308 48.2703 70.9876 48.1317 70.6715 47.9628C70.3554 47.794 70.061 47.6554 69.6973 47.4606L70.836 44.5639L71.663 44.6678L72.529 44.7544C73.1092 44.8021 73.6807 44.8324 74.2609 44.8324C75.3128 44.8502 76.3624 44.7293 77.3827 44.473C78.2003 44.2769 78.9571 43.8828 79.5866 43.3256C79.8565 43.073 80.0976 42.7913 80.3054 42.4856C80.5612 42.0918 80.7897 41.6809 80.9895 41.2559C81.4474 40.2624 81.8225 39.2327 82.1109 38.1774C82.44 37.082 82.7041 35.9346 82.9422 34.7655C83.1804 33.5965 83.3752 32.4144 83.5701 31.2237L83.8255 29.4312C83.9035 28.8423 83.9901 28.2101 84.0463 27.6992L90.2943 28.2275Z" fill="#FFB573"/>
<path id="Vector_27" d="M90.3189 24.6981C87.288 21.7581 83.5211 23.4944 82.0229 29.0279C81.175 31.9818 80.5954 35.0062 80.291 38.0643L89.9336 40.056C91.6871 34.7779 93.4364 27.7116 90.3189 24.6981Z" fill="#263238"/>
<path id="Vector_28" opacity="0.3" d="M87.2143 30.7156C87.9027 30.0964 89.8598 32.8805 91.0548 36.3141C90.7171 37.613 90.3317 38.8643 89.9377 40.0377L84.1357 38.8384C84.599 35.4091 85.6685 32.1098 87.2143 30.7156Z" fill="black"/>
<path id="Vector_29" d="M70.1835 43.2635L68.0186 42.4365L67.9233 47.0305C67.9233 47.0305 71.5604 48.6022 72.3008 46.7967L72.041 45.6493C71.9157 45.1437 71.6856 44.6701 71.3656 44.2591C71.0456 43.8481 70.6429 43.509 70.1835 43.2635Z" fill="#FFB573"/>
<path id="Vector_30" d="M65.4619 42.5578L64.1846 46.4113L67.9385 47.0305L68.0338 42.4365L65.4619 42.5578Z" fill="#FFB573"/>
<path id="Vector_31" d="M68.7346 45.6267C68.6889 45.6274 68.6439 45.6152 68.6048 45.5915C68.5658 45.5677 68.5342 45.5334 68.5138 45.4925L64.6472 38.0495C64.6166 37.9909 64.6103 37.9225 64.6298 37.8593C64.6492 37.796 64.6928 37.743 64.7512 37.7118C64.8105 37.6826 64.8789 37.6775 64.9419 37.6977C65.0049 37.7179 65.0576 37.7618 65.0889 37.82L68.9424 45.25C68.9731 45.3087 68.9794 45.377 68.9599 45.4403C68.9405 45.5035 68.8968 45.5565 68.8385 45.5878C68.8068 45.6074 68.7715 45.6206 68.7346 45.6267Z" fill="#263238"/>
<path id="Vector_32" d="M89.96 21.7488L94.5842 20.4498L100.525 20.1727C101.427 20.1294 102.318 20.384 103.062 20.8973C103.805 21.4106 104.359 22.154 104.638 23.0131C105.768 26.4769 106.803 31.4649 107.569 35.7818C108.435 40.6268 108.868 47.9053 108.959 54.5126H86.7776C86.271 40.7221 84.5174 32.569 83.7467 28.0573C83.593 27.1731 83.7333 26.2629 84.1462 25.466C84.5591 24.6692 85.2218 24.0296 86.0328 23.6452L89.96 21.7488Z" fill="#263238"/>
<path id="Vector_33" opacity="0.3" d="M107.572 35.7649C106.974 32.366 106.203 28.5384 105.346 25.3733C101.393 24.7065 99.4792 33.3748 100.653 37.6743C101.826 41.9739 108.083 39.3673 108.083 39.3673C107.935 38.0727 107.762 36.856 107.572 35.7649Z" fill="black"/>
<path id="Vector_34" d="M93.7978 11.4217C94.7503 13.7598 94.1788 18.0464 92.2997 16.834C90.4205 15.6216 93.2176 10.0015 93.7978 11.4217Z" fill="#263238"/>
<path id="Vector_35" d="M92.7602 12.9209L90.9633 15.666L88.5213 19.4027C88.8368 19.7224 89.0921 20.0964 89.2747 20.5068C89.7077 21.4074 90.093 22.0785 88.2009 23.3688C87.9976 23.4991 87.8361 23.6852 87.7355 23.9047C87.635 24.1242 87.5996 24.3681 87.6337 24.6071C87.7463 25.1916 88.3265 25.7589 90.3658 25.3995C92.3312 25.0232 94.1246 24.0279 95.4837 22.5591C96.1635 21.8793 96.0076 21.3684 95.3538 20.6626C93.4833 18.6709 92.9291 15.4885 92.7602 12.9209Z" fill="#FFB573"/>
<path id="Vector_36" opacity="0.2" d="M89.1038 18.4783L90.6019 15.8154C90.6337 15.8847 90.6683 15.9583 90.7058 16.0363C90.8389 16.3651 90.946 16.7039 91.0262 17.0494C91.299 18.2315 90.3811 19.9201 89.3722 20.7255L89.2553 20.496C89.0736 20.1126 88.8405 19.7557 88.5626 19.4352C88.5449 19.4175 88.5244 19.4029 88.502 19.3919L89.1038 18.4783Z" fill="black"/>
<path id="Vector_37" d="M80.1116 9.69059C79.553 10.9506 81.5318 14.5184 83.7963 13.0765C86.0608 11.6347 81.0988 7.46072 80.1116 9.69059Z" fill="#263238"/>
<path id="Vector_38" d="M91.026 26.1643C90.9962 26.1648 90.9671 26.1546 90.9441 26.1355C90.9211 26.1165 90.9056 26.0898 90.9005 26.0604C90.7359 24.9909 90.0345 24.3285 89.2422 23.5231C88.2376 22.5403 87.0989 21.4232 86.7265 19.2366C86.7208 19.2044 86.7281 19.1713 86.7467 19.1445C86.7654 19.1177 86.794 19.0995 86.8261 19.0937C86.8583 19.088 86.8914 19.0952 86.9182 19.1139C86.945 19.1326 86.9633 19.1611 86.969 19.1933C87.3327 21.3019 88.4411 22.3887 89.4153 23.3456C90.2164 24.1293 90.9698 24.8697 91.1473 26.0215C91.1504 26.0377 91.1501 26.0544 91.1465 26.0706C91.1428 26.0867 91.1359 26.102 91.1262 26.1154C91.1165 26.1287 91.1041 26.14 91.0898 26.1484C91.0756 26.1568 91.0598 26.1623 91.0434 26.1643H91.026Z" fill="white"/>
<path id="Vector_39" d="M91.9482 8.42242C92.8141 12.3453 93.4896 14.6011 92.0911 17.0821C89.9781 20.8361 84.6957 20.3251 82.6867 16.7141C80.8768 13.4667 79.7987 7.59542 83.1629 5.06246C83.9157 4.50283 84.7975 4.14225 85.7266 4.01414C86.6558 3.88603 87.6023 3.99453 88.4784 4.32959C89.3544 4.66465 90.1318 5.21542 90.7383 5.93088C91.3449 6.64633 91.761 7.50332 91.9482 8.42242Z" fill="#FAAA63"/>
<path id="Vector_40" d="M93.1114 11.1149C91.7605 13.033 88.2187 9.51287 88.5088 7.14878C84.9929 9.14916 81.174 11.8207 78.8576 9.56916C76.1817 6.97126 76.9135 3.2476 80.0483 2.9142C79.494 3.99666 82.6462 4.47727 84.3218 2.80596C87.1578 0.000223219 91.6392 0.584749 91.557 2.85791C93.7175 2.0006 96.0773 6.90197 93.1114 11.1149Z" fill="#263238"/>
<path id="Vector_41" d="M91.1407 3.49418C91.9764 2.87068 91.4222 0.649475 89.4824 0C91.3269 0.238141 93.2364 1.6107 91.1407 3.49418Z" fill="#263238"/>
<path id="Vector_42" d="M94.3646 10.9423C94.4018 11.8392 94.1092 12.7188 93.5419 13.4146C92.7972 14.3022 91.6498 13.5965 91.377 12.488C91.1389 11.4965 91.4463 9.95939 92.4248 9.48311C93.4034 9.00683 94.3126 9.82517 94.3646 10.9423Z" fill="#FFAC61"/>
<path id="Vector_43" d="M86.3212 11.6039C86.4251 11.92 86.3471 12.2404 86.1393 12.314C85.9315 12.3876 85.7063 12.1927 85.5808 11.881C85.4552 11.5692 85.5548 11.2445 85.7626 11.1666C85.9704 11.0886 86.2172 11.2835 86.3212 11.6039Z" fill="#263238"/>
<path id="Vector_44" d="M82.7693 12.9027C82.8775 13.2231 82.7953 13.5435 82.5875 13.6171C82.3796 13.6907 82.1328 13.4959 82.0289 13.1841C81.925 12.8724 82.0073 12.5476 82.2108 12.474C82.4143 12.4004 82.6654 12.5866 82.7693 12.9027Z" fill="#263238"/>
<path id="Vector_45" d="M83.9868 12.7207C84.001 13.6678 83.8904 14.6126 83.6577 15.5308C84.2942 15.7646 84.9956 15.2147 84.9956 15.2147L83.9868 12.7207Z" fill="#ED893E"/>
<path id="Vector_46" d="M85.8872 16.9773C86.256 16.8561 86.5962 16.6612 86.8872 16.4044C87.1783 16.1476 87.4141 15.8343 87.5802 15.4835C87.5904 15.4594 87.5906 15.4322 87.5809 15.4079C87.5712 15.3836 87.5522 15.3641 87.5283 15.3536C87.5035 15.3449 87.4763 15.3458 87.4522 15.3562C87.4281 15.3667 87.4089 15.3858 87.3983 15.4099C87.2124 15.7881 86.9419 16.1183 86.6077 16.3751C86.2736 16.6319 85.8849 16.8083 85.4716 16.8907C85.458 16.8925 85.445 16.897 85.4333 16.904C85.4216 16.911 85.4114 16.9203 85.4034 16.9314C85.3955 16.9425 85.3899 16.9551 85.387 16.9685C85.3841 16.9818 85.384 16.9956 85.3867 17.009C85.3894 17.0224 85.3948 17.0351 85.4026 17.0463C85.4104 17.0575 85.4204 17.067 85.432 17.0742C85.4436 17.0814 85.4566 17.0861 85.4701 17.088C85.4836 17.09 85.4974 17.0891 85.5106 17.0856C85.6384 17.0578 85.7642 17.0217 85.8872 16.9773Z" fill="#263238"/>
<path id="Vector_47" d="M86.6434 10.2276C86.6736 10.2133 86.6991 10.1908 86.717 10.1627C86.7447 10.1184 86.7539 10.0649 86.7426 10.0139C86.7312 9.96285 86.7003 9.91833 86.6564 9.88992C86.4003 9.71704 86.1055 9.61001 85.7981 9.57829C85.4907 9.54657 85.1802 9.59114 84.8942 9.70806C84.8702 9.71875 84.8487 9.73416 84.8309 9.75337C84.813 9.77258 84.7993 9.7952 84.7904 9.81986C84.7815 9.84452 84.7776 9.87072 84.7791 9.89689C84.7806 9.92307 84.7873 9.94867 84.7989 9.97218C84.8222 10.019 84.863 10.0547 84.9124 10.0717C84.9618 10.0887 85.0159 10.0856 85.063 10.0631C85.2888 9.97593 85.5323 9.94458 85.7728 9.97172C86.0132 9.99886 86.2436 10.0837 86.4443 10.219C86.4732 10.2392 86.5073 10.2507 86.5426 10.2522C86.5778 10.2537 86.6128 10.2452 86.6434 10.2276Z" fill="#263238"/>
<path id="Vector_48" d="M82.0676 10.8499C82.0758 10.8173 82.0758 10.783 82.0676 10.7504C82.0466 10.7024 82.0076 10.6646 81.959 10.6451C81.9104 10.6257 81.8561 10.6261 81.8078 10.6465C81.5195 10.7582 81.2633 10.9397 81.0623 11.1747C80.8613 11.4097 80.7217 11.6909 80.656 11.993C80.6474 12.0441 80.6595 12.0966 80.6895 12.1388C80.7196 12.181 80.7651 12.2096 80.8162 12.2182C80.8673 12.2268 80.9198 12.2148 80.962 12.1847C81.0042 12.1547 81.0328 12.1091 81.0414 12.058C81.0978 11.8219 81.2108 11.6031 81.3708 11.4205C81.5307 11.2379 81.7327 11.0971 81.9593 11.0102C81.9895 10.9948 82.0153 10.9721 82.0342 10.9441C82.0531 10.916 82.0646 10.8836 82.0676 10.8499Z" fill="#263238"/>
<path id="Vector_49" d="M103.872 23.1133C104.305 23.8147 104.651 24.4469 105.01 25.1223C105.37 25.7978 105.716 26.4559 106.054 27.1314C106.738 28.4779 107.353 29.8635 107.95 31.275C108.548 32.6866 109.072 34.1414 109.522 35.6568C110.015 37.2474 110.345 38.8838 110.509 40.5409C110.597 41.5083 110.563 42.4828 110.41 43.4419C110.311 44.0745 110.118 44.6889 109.838 45.2647C109.514 45.9154 109.063 46.4953 108.513 46.9707C108.018 47.4012 107.453 47.7438 106.842 47.9839C106.329 48.1852 105.797 48.3304 105.253 48.4168C104.335 48.5604 103.402 48.5851 102.477 48.4904C101.652 48.4203 100.833 48.2886 100.027 48.0964C99.2572 47.9213 98.4971 47.7074 97.7492 47.4556C96.2794 46.969 94.8517 46.3637 93.48 45.6457L94.5754 42.7318C97.2686 43.2427 100.161 43.7146 102.59 43.5674C103.121 43.5397 103.647 43.4495 104.157 43.299C104.59 43.1691 104.811 42.9742 104.794 42.9136C104.777 42.853 104.768 42.9136 104.759 42.8703C104.751 42.827 104.759 42.8227 104.759 42.6019C104.786 42.1152 104.757 41.6271 104.673 41.147C104.465 39.9113 104.142 38.6979 103.707 37.523C103.274 36.2673 102.75 34.9987 102.183 33.743C101.616 32.4874 101.005 31.2274 100.386 29.9717C100.074 29.3425 99.7525 28.7204 99.4205 28.1056L98.442 26.2914L103.872 23.1133Z" fill="#FFB573"/>
<path id="Vector_50" d="M101.851 20.2156C97.6682 19.5791 95.6115 23.1685 97.5816 28.5288C98.5988 31.4284 99.877 34.2298 101.4 36.8984L110.42 32.9453C108.779 27.6412 106.129 20.8694 101.851 20.2156Z" fill="#263238"/>
<path id="Vector_51" d="M92.2568 42.3322L90.3257 42.9124L93.0665 46.8093C93.0665 46.8093 97.1279 45.3544 96.2965 43.5879L95.2747 43.0077C94.4001 42.5011 93.2916 41.9772 92.2568 42.3322Z" fill="#FFB573"/>
<path id="Vector_52" d="M88.6143 45.5966L90.5497 47.5277L93.0653 46.8046L90.3245 42.9121L88.6143 45.5966Z" fill="#FFB573"/>
<path id="Vector_53" d="M92.8354 12.1787C93.1798 12.1787 93.4589 11.8414 93.4589 11.4253C93.4589 11.0092 93.1798 10.6719 92.8354 10.6719C92.4911 10.6719 92.2119 11.0092 92.2119 11.4253C92.2119 11.8414 92.4911 12.1787 92.8354 12.1787Z" fill="white"/>
<path id="Vector_54" d="M93.3512 13.4174L92.9918 13.4044L92.771 11.6681L93.4551 11.5166L93.3512 13.4174Z" fill="white"/>
<path id="Vector_55" d="M95.8368 46.1478C94.5379 46.1478 93.3861 45.9529 92.689 45.3208C92.429 45.0703 92.2266 44.7664 92.0958 44.4299C91.9649 44.0935 91.9088 43.7326 91.9313 43.3723C91.9709 41.5869 92.2491 39.8147 92.7583 38.1029C93.3602 35.7432 93.8364 33.8813 92.3903 31.5822C90.0868 27.9321 90.7752 22.8273 92.3903 19.6275C93.6243 17.1812 93.1913 14.4534 93.0354 13.4488C93.0138 13.319 92.9965 13.215 92.9878 13.1458C92.986 13.1295 92.9875 13.113 92.9923 13.0974C92.997 13.0817 93.0049 13.0671 93.0154 13.0546C93.0259 13.0421 93.0389 13.0318 93.0535 13.0244C93.0681 13.017 93.084 13.0126 93.1004 13.0115C93.133 13.0078 93.1659 13.0171 93.1918 13.0374C93.2177 13.0576 93.2346 13.0872 93.2389 13.1198C93.2389 13.1847 93.2606 13.2843 93.2779 13.4099C93.4424 14.4534 93.8711 17.2201 92.5981 19.7401C91.0177 22.8792 90.3423 27.8802 92.5981 31.4307C94.1006 33.8164 93.5896 35.8211 92.9964 38.1419C92.4976 39.8303 92.2253 41.5775 92.1868 43.3377C92.1634 43.6632 92.2113 43.99 92.3272 44.2951C92.4431 44.6002 92.6242 44.8764 92.8579 45.1043C94.027 46.1564 96.6075 45.888 99.1015 45.6282C100.219 45.5156 101.375 45.3944 102.392 45.3944C102.425 45.3944 102.457 45.4076 102.481 45.4311C102.505 45.4547 102.518 45.4866 102.518 45.5199C102.518 45.5532 102.505 45.5852 102.481 45.6087C102.457 45.6323 102.425 45.6455 102.392 45.6455C101.388 45.6455 100.227 45.7624 99.1275 45.8793C98.0358 46.024 96.9375 46.1136 95.8368 46.1478Z" fill="white"/>
<path id="Vector_56" d="M107.575 45.2207H102.647C102.504 45.2207 102.388 45.337 102.388 45.4805V45.8269C102.388 45.9704 102.504 46.0867 102.647 46.0867H107.575C107.718 46.0867 107.835 45.9704 107.835 45.8269V45.4805C107.835 45.337 107.718 45.2207 107.575 45.2207Z" fill="white"/>
</g>
<g id="freepik  Desk  inject 196">
<path id="Vector_57" d="M138.499 48.9706H18.4418C18.0598 48.9694 17.6937 48.8172 17.4236 48.547C17.1534 48.2769 17.0011 47.9108 17 47.5287C17.0011 47.1467 17.1534 46.7806 17.4236 46.5105C17.6937 46.2403 18.0598 46.0881 18.4418 46.0869H138.499C138.882 46.0881 139.248 46.2403 139.518 46.5105C139.788 46.7806 139.94 47.1467 139.941 47.5287C139.94 47.9108 139.788 48.2769 139.518 48.547C139.248 48.8172 138.882 48.9694 138.499 48.9706Z" fill="#6E4421"/>
<path id="Vector_58" d="M138.499 48.9706H110.394C110.012 48.9694 109.646 48.8172 109.376 48.547C109.106 48.2769 108.954 47.9108 108.953 47.5287C108.954 47.1467 109.106 46.7806 109.376 46.5105C109.646 46.2403 110.012 46.0881 110.394 46.0869H138.499C138.881 46.0881 139.248 46.2403 139.518 46.5105C139.788 46.7806 139.94 47.1467 139.941 47.5287C139.94 47.9108 139.788 48.2769 139.518 48.547C139.248 48.8172 138.881 48.9694 138.499 48.9706Z" fill="#5A3212"/>
<path id="Vector_59" d="M137.176 116.907H139.943L136.76 48.9717H132.933L137.176 116.907Z" fill="#263238"/>
<path id="Vector_60" d="M137.176 116.907H139.943L136.76 48.9717H132.933L137.176 116.907Z" fill="#8B5324"/>
<path id="Vector_61" d="M111.719 116.907H108.953L112.135 48.9717H115.963L111.719 116.907Z" fill="#263238"/>
<path id="Vector_62" d="M111.719 116.907H108.953L112.135 48.9717H115.963L111.719 116.907Z" fill="#8B5324"/>
<path id="Vector_63" d="M45.2275 116.907H47.99L44.8076 48.9717H40.98L45.2275 116.907Z" fill="#263238"/>
<path id="Vector_64" d="M45.2275 116.907H47.99L44.8076 48.9717H40.98L45.2275 116.907Z" fill="#8B5324"/>
<path id="Vector_65" d="M19.7668 116.907H17L20.1824 48.9717H24.01L19.7668 116.907Z" fill="#263238"/>
<path id="Vector_66" d="M19.7668 116.907H17L20.1824 48.9717H24.01L19.7668 116.907Z" fill="#8B5324"/>
<path id="Vector_67" d="M113.322 52.5879H20.9883V58.2816H113.322V52.5879Z" fill="#263238"/>
<path id="Vector_68" d="M113.322 52.5879H20.9883V58.2816H113.322V52.5879Z" fill="#8B5324"/>
<path id="Vector_69" d="M36.1799 42.259C36.0199 42.259 35.8664 42.3222 35.7528 42.435C35.6392 42.5477 35.5749 42.7008 35.5737 42.8608V45.4587C35.5737 45.6195 35.6376 45.7736 35.7513 45.8873C35.865 46.001 36.0191 46.0649 36.1799 46.0649H55.8157C55.8678 46.0649 55.9178 46.0445 55.955 46.0081C55.9923 45.9717 56.0138 45.9221 56.0149 45.87V42.4321C56.0138 42.3801 55.9923 42.3305 55.955 42.2941C55.9178 42.2577 55.8678 42.2373 55.8157 42.2373L36.1799 42.259Z" fill="#FEC90B"/>
<path id="Vector_70" opacity="0.9" d="M47.8019 42.623H56.0286V45.7232H47.8019C47.7089 45.7232 47.6197 45.6863 47.5539 45.6205C47.4881 45.5547 47.4512 45.4655 47.4512 45.3725V42.9694C47.4523 42.8772 47.4898 42.7891 47.5554 42.7242C47.6211 42.6594 47.7096 42.623 47.8019 42.623Z" fill="white"/>
<path id="Vector_71" d="M46.4514 42.2607H26.6164C26.2817 42.2607 26.0103 42.5321 26.0103 42.8669V45.4865C26.0103 45.8212 26.2817 46.0926 26.6164 46.0926H46.4514C46.7862 46.0926 47.0576 45.8212 47.0576 45.4865V42.8669C47.0576 42.5321 46.7862 42.2607 46.4514 42.2607Z" fill="#FEC90B"/>
<path id="Vector_72" d="M46.4514 42.2607H26.6164C26.2817 42.2607 26.0103 42.5321 26.0103 42.8669V45.4865C26.0103 45.8212 26.2817 46.0926 26.6164 46.0926H46.4514C46.7862 46.0926 47.0576 45.8212 47.0576 45.4865V42.8669C47.0576 42.5321 46.7862 42.2607 46.4514 42.2607Z" fill="#CB6817"/>
<path id="Vector_73" opacity="0.5" d="M36.6965 42.2607H33.6872C33.5509 42.2607 33.4404 42.3712 33.4404 42.5075V45.8458C33.4404 45.9821 33.5509 46.0926 33.6872 46.0926H36.6965C36.8328 46.0926 36.9433 45.9821 36.9433 45.8458V42.5075C36.9433 42.3712 36.8328 42.2607 36.6965 42.2607Z" fill="#FEC90B"/>
<path id="Vector_74" opacity="0.5" d="M41.0398 42.2607H38.0349C37.8986 42.2607 37.7881 42.3712 37.7881 42.5075V45.8458C37.7881 45.9821 37.8986 46.0926 38.0349 46.0926H41.0398C41.1761 46.0926 41.2866 45.9821 41.2866 45.8458V42.5075C41.2866 42.3712 41.1761 42.2607 41.0398 42.2607Z" fill="#FEC90B"/>
<path id="Vector_75" d="M32.6321 37.5399C32.5525 37.5399 32.4736 37.5556 32.4001 37.5861C32.3265 37.6165 32.2597 37.6612 32.2034 37.7175C32.1471 37.7737 32.1025 37.8406 32.072 37.9141C32.0416 37.9877 32.0259 38.0665 32.0259 38.1461V41.6533C32.0259 41.7329 32.0416 41.8117 32.072 41.8852C32.1025 41.9588 32.1471 42.0256 32.2034 42.0819C32.2597 42.1382 32.3265 42.1828 32.4001 42.2133C32.4736 42.2438 32.5525 42.2594 32.6321 42.2594H53.9045C53.9566 42.2583 54.0062 42.2368 54.0426 42.1996C54.079 42.1624 54.0994 42.1123 54.0994 42.0603V37.7304C54.0994 37.6783 54.079 37.6283 54.0426 37.5911C54.0062 37.5539 53.9566 37.5324 53.9045 37.5312L32.6321 37.5399Z" fill="#FEC90B"/>
<path id="Vector_76" opacity="0.9" d="M44.2634 37.9092H54.1095V41.897H44.2634C44.1704 41.897 44.0812 41.86 44.0154 41.7942C43.9497 41.7285 43.9127 41.6393 43.9127 41.5462V38.2686C43.9115 38.2218 43.9198 38.1752 43.9369 38.1317C43.954 38.0881 43.9796 38.0484 44.0123 38.0149C44.045 37.9815 44.084 37.9548 44.1272 37.9367C44.1703 37.9185 44.2166 37.9092 44.2634 37.9092Z" fill="white"/>
<path id="Vector_77" d="M42.8955 37.54H26.217C25.8822 37.54 25.6108 37.8114 25.6108 38.1462V41.649C25.6108 41.9838 25.8822 42.2552 26.217 42.2552H42.8955C43.2303 42.2552 43.5017 41.9838 43.5017 41.649V38.1462C43.5017 37.8114 43.2303 37.54 42.8955 37.54Z" fill="#FEC90B"/>
<path id="Vector_78" opacity="0.1" d="M42.8955 37.54H26.217C25.8822 37.54 25.6108 37.8114 25.6108 38.1462V41.649C25.6108 41.9838 25.8822 42.2552 26.217 42.2552H42.8955C43.2303 42.2552 43.5017 41.9838 43.5017 41.649V38.1462C43.5017 37.8114 43.2303 37.54 42.8955 37.54Z" fill="white"/>
<path id="Vector_79" opacity="0.6" d="M41.3349 38.4756H29.1205C28.9172 38.4756 28.7524 38.6404 28.7524 38.8436V40.9523C28.7524 41.1555 28.9172 41.3203 29.1205 41.3203H41.3349C41.5382 41.3203 41.703 41.1555 41.703 40.9523V38.8436C41.703 38.6404 41.5382 38.4756 41.3349 38.4756Z" fill="#D5711F"/>
<path id="Vector_80" d="M38.8689 35.2842C38.5355 35.2842 38.2627 35.4444 38.2627 35.6392V37.185C38.2627 37.3798 38.5355 37.54 38.8689 37.54H58.509C58.6173 37.54 58.7039 37.4881 58.7039 37.4274V35.4011C58.7039 35.3361 58.6173 35.2842 58.509 35.2842H38.8689Z" fill="#FEC90B"/>
<path id="Vector_81" opacity="0.9" d="M50.4149 35.4961H58.7066V37.3233H50.4149C50.3437 37.3233 50.2755 37.295 50.2251 37.2447C50.1748 37.1943 50.1465 37.126 50.1465 37.0548V35.7559C50.1487 35.6862 50.178 35.6201 50.2281 35.5716C50.2782 35.5231 50.3452 35.4961 50.4149 35.4961Z" fill="white"/>
<path id="Vector_82" d="M49.2832 35.2842H29.1625C28.9066 35.2842 28.6992 35.4916 28.6992 35.7475V37.0811C28.6992 37.3369 28.9066 37.5444 29.1625 37.5444H49.2832C49.5391 37.5444 49.7465 37.3369 49.7465 37.0811V35.7475C49.7465 35.4916 49.5391 35.2842 49.2832 35.2842Z" fill="#FEC90B"/>
<path id="Vector_83" d="M49.2832 35.2842H29.1625C28.9066 35.2842 28.6992 35.4916 28.6992 35.7475V37.0811C28.6992 37.3369 28.9066 37.5444 29.1625 37.5444H49.2832C49.5391 37.5444 49.7465 37.3369 49.7465 37.0811V35.7475C49.7465 35.4916 49.5391 35.2842 49.2832 35.2842Z" fill="#CB6817"/>
<path id="Vector_84" opacity="0.5" d="M31.6919 35.2842H31.0641C31.0138 35.2842 30.9731 35.3249 30.9731 35.3751V37.4534C30.9731 37.5036 31.0138 37.5444 31.0641 37.5444H31.6919C31.7421 37.5444 31.7828 37.5036 31.7828 37.4534V35.3751C31.7828 35.3249 31.7421 35.2842 31.6919 35.2842Z" fill="#FEC90B"/>
<path id="Vector_85" opacity="0.5" d="M48.0227 35.2842H47.4078C47.3576 35.2842 47.3169 35.3249 47.3169 35.3751V37.4534C47.3169 37.5036 47.3576 37.5444 47.4078 37.5444H48.0227C48.0729 37.5444 48.1136 37.5036 48.1136 37.4534V35.3751C48.1136 35.3249 48.0729 35.2842 48.0227 35.2842Z" fill="#FEC90B"/>
<path id="Vector_86" d="M35.321 32.0186C34.9876 32.0186 34.7148 32.1788 34.7148 32.3736V34.9239C34.7148 35.123 34.9876 35.2832 35.321 35.2832H56.5935C56.7017 35.2832 56.7927 35.2313 56.7927 35.1663V32.1355C56.7927 32.0705 56.7017 32.0186 56.5935 32.0186H35.321Z" fill="#FEC90B"/>
<path id="Vector_87" opacity="0.9" d="M46.8637 32.2324H56.792V35.0685H46.8637C46.7925 35.0685 46.7242 35.0402 46.6738 34.9898C46.6235 34.9395 46.5952 34.8712 46.5952 34.8V32.5009C46.5952 32.4297 46.6235 32.3614 46.6738 32.311C46.7242 32.2607 46.7925 32.2324 46.8637 32.2324Z" fill="white"/>
<path id="Vector_88" d="M45.7274 32.0186H28.7631C28.5072 32.0186 28.2998 32.226 28.2998 32.4818V34.82C28.2998 35.0758 28.5072 35.2832 28.7631 35.2832H45.7274C45.9833 35.2832 46.1907 35.0758 46.1907 34.82V32.4818C46.1907 32.226 45.9833 32.0186 45.7274 32.0186Z" fill="#FEC90B"/>
<path id="Vector_89" opacity="0.2" d="M45.7274 32.0186H28.7631C28.5072 32.0186 28.2998 32.226 28.2998 32.4818V34.82C28.2998 35.0758 28.5072 35.2832 28.7631 35.2832H45.7274C45.9833 35.2832 46.1907 35.0758 46.1907 34.82V32.4818C46.1907 32.226 45.9833 32.0186 45.7274 32.0186Z" fill="black"/>
<path id="Vector_90" d="M82.7647 45.3691H64.8954C64.7997 45.3691 64.7079 45.4069 64.6398 45.4741C64.5717 45.5414 64.5329 45.6328 64.5317 45.7285C64.5329 45.8242 64.5717 45.9156 64.6398 45.9829C64.7079 46.0502 64.7997 46.0879 64.8954 46.0879H82.7647C82.86 46.0879 82.9514 46.05 83.0188 45.9826C83.0862 45.9152 83.1241 45.8238 83.1241 45.7285C83.1241 45.6332 83.0862 45.5418 83.0188 45.4744C82.9514 45.407 82.86 45.3691 82.7647 45.3691Z" fill="white"/>
<path id="Vector_91" d="M117.725 44.5117H129.467L130.528 46.0488H116.664L117.725 44.5117Z" fill="#263238"/>
<path id="Vector_92" d="M135.859 18.2767C135.859 18.5893 135.766 18.8948 135.593 19.1547C135.419 19.4146 135.172 19.6172 134.883 19.7368C134.595 19.8564 134.277 19.8877 133.97 19.8267C133.664 19.7657 133.382 19.6152 133.161 19.3942C132.94 19.1732 132.79 18.8916 132.729 18.585C132.668 18.2784 132.699 17.9607 132.819 17.6719C132.938 17.3831 133.141 17.1363 133.401 16.9626C133.661 16.789 133.966 16.6963 134.279 16.6963C134.486 16.6957 134.692 16.7362 134.884 16.8154C135.076 16.8947 135.251 17.011 135.397 17.1579C135.544 17.3048 135.661 17.4792 135.74 17.6712C135.819 17.8632 135.86 18.069 135.859 18.2767Z" fill="black"/>
<path id="Vector_93" d="M123.986 45.5508C123.903 45.5506 123.822 45.5301 123.75 45.4912C123.677 45.4523 123.615 45.3962 123.57 45.3278C123.524 45.2593 123.496 45.1807 123.487 45.0988C123.479 45.0169 123.491 44.9342 123.522 44.858L134.836 18.0823C134.895 17.9705 134.993 17.8847 135.112 17.8421C135.23 17.7994 135.361 17.803 135.477 17.8521C135.593 17.9012 135.687 17.9922 135.739 18.1071C135.791 18.2219 135.798 18.3522 135.759 18.472L124.445 45.2434C124.407 45.3339 124.343 45.4112 124.261 45.4659C124.18 45.5205 124.084 45.55 123.986 45.5508Z" fill="#263238"/>
<path id="Vector_94" d="M135.296 18.7827C135.188 18.7815 135.084 18.7467 134.997 18.6831L114.452 3.27323C114.346 3.19399 114.277 3.07604 114.258 2.94531C114.239 2.81458 114.273 2.68178 114.353 2.57613C114.432 2.47049 114.55 2.40064 114.68 2.38196C114.811 2.36328 114.944 2.39731 115.05 2.47654L135.599 17.8778C135.682 17.9415 135.743 18.0296 135.774 18.1298C135.804 18.2299 135.803 18.3371 135.769 18.4363C135.736 18.5355 135.672 18.6218 135.587 18.6832C135.502 18.7445 135.401 18.7778 135.296 18.7784V18.7827Z" fill="#263238"/>
<path id="Vector_95" d="M136.877 18.2767C136.877 18.5893 136.784 18.8948 136.611 19.1547C136.437 19.4146 136.19 19.6172 135.901 19.7368C135.613 19.8564 135.295 19.8877 134.988 19.8267C134.682 19.7657 134.4 19.6152 134.179 19.3942C133.958 19.1732 133.808 18.8916 133.747 18.585C133.686 18.2784 133.717 17.9607 133.837 17.6719C133.956 17.3831 134.159 17.1363 134.419 16.9626C134.679 16.789 134.984 16.6963 135.297 16.6963C135.504 16.6957 135.71 16.7362 135.902 16.8154C136.094 16.8947 136.269 17.011 136.415 17.1579C136.562 17.3048 136.679 17.4792 136.758 17.6712C136.837 17.8632 136.878 18.069 136.877 18.2767Z" fill="#263238"/>
<path id="Vector_96" d="M114.751 4.45291C115.622 4.45291 116.327 3.74728 116.327 2.87684C116.327 2.00641 115.622 1.30078 114.751 1.30078C113.881 1.30078 113.175 2.00641 113.175 2.87684C113.175 3.74728 113.881 4.45291 114.751 4.45291Z" fill="#263238"/>
<path id="Vector_97" d="M112.542 10.0803C112.048 10.5744 111.418 10.9109 110.733 11.0472C110.047 11.1836 109.337 11.1136 108.691 10.8462C108.046 10.5788 107.494 10.1259 107.106 9.54488C106.717 8.96386 106.51 8.28077 106.51 7.58198C106.51 6.88319 106.717 6.20009 107.106 5.61906C107.494 5.03804 108.046 4.58519 108.691 4.31778C109.337 4.05036 110.047 3.98039 110.733 4.11672C111.418 4.25304 112.048 4.58954 112.542 5.08366C113.203 5.74682 113.575 6.64528 113.575 7.58198C113.575 8.51868 113.203 9.41713 112.542 10.0803Z" fill="#FEC90B"/>
<path id="Vector_98" d="M112.542 10.0803C112.048 10.5744 111.418 10.9109 110.733 11.0472C110.047 11.1836 109.337 11.1136 108.691 10.8462C108.046 10.5788 107.494 10.1259 107.106 9.54488C106.717 8.96386 106.51 8.28077 106.51 7.58198C106.51 6.88319 106.717 6.20009 107.106 5.61906C107.494 5.03804 108.046 4.58519 108.691 4.31778C109.337 4.05036 110.047 3.98039 110.733 4.11672C111.418 4.25304 112.048 4.58954 112.542 5.08366C113.203 5.74682 113.575 6.64528 113.575 7.58198C113.575 8.51868 113.203 9.41713 112.542 10.0803Z" fill="#FEC90B"/>
<path id="Vector_99" d="M114.75 2.8757C114.047 2.17241 113.213 1.61448 112.295 1.23382C111.376 0.85316 110.392 0.657227 109.398 0.657227C108.404 0.657227 107.42 0.85316 106.501 1.23382C105.583 1.61448 104.749 2.17241 104.046 2.8757L114.75 13.5877C115.454 12.8848 116.012 12.0499 116.393 11.1308C116.775 10.2118 116.971 9.22664 116.971 8.23171C116.971 7.23679 116.775 6.25163 116.393 5.33259C116.012 4.41355 115.454 3.57866 114.75 2.8757Z" fill="#263238"/>
<g id="Group_2" opacity="0.4">
<path id="Vector_100" opacity="0.2" d="M104.044 2.87598L59.0913 46.0877H105.208L114.751 13.5837L104.044 2.87598Z" fill="#FEC90B"/>
<path id="Vector_101" opacity="0.7" d="M104.044 2.87598L59.0913 46.0877H105.208L114.751 13.5837L104.044 2.87598Z" fill="white"/>
</g>
</g>
</g>
</g>
</g>
</svg>
