<svg width="32" height="29" viewBox="0 0 32 29" fill="none" xmlns="http://www.w3.org/2000/svg">
<g id="Group 7586">
<path id="Vector" d="M22.2904 0C17.213 0 13.082 4.131 13.082 9.20833C13.082 14.2857 17.213 18.4167 22.2904 18.4167C27.3677 18.4167 31.4987 14.2857 31.4987 9.20833C31.4987 4.131 27.3677 0 22.2904 0ZM25.4169 12.3349C24.863 12.8888 23.9677 12.8888 23.4138 12.3349L21.2888 10.2099C21.0224 9.945 20.8737 9.58375 20.8737 9.20833V5.66667C20.8737 4.88467 21.5084 4.25 22.2904 4.25C23.0724 4.25 23.707 4.88467 23.707 5.66667V8.62183L25.4169 10.3318C25.9709 10.8857 25.9709 11.781 25.4169 12.3349Z" fill="#FEC79A"/>
<g id="Group 7591">
<path id="Vector_2" d="M25.832 20.7258C24.7129 21.0658 23.5229 21.25 22.2904 21.25C15.6462 21.25 10.2487 15.8525 10.2487 9.20833C10.2487 5.525 11.9062 2.21 14.527 0H4.58203C2.24453 0 0.332031 1.9125 0.332031 4.25V24.7917C0.332031 26.18 2.22895 28.3333 4.58203 28.3333H8.83203V22.0433C8.83203 22.967 9.58003 18.305 10.2487 17.6973L14.0227 19.7227L15.9485 20.7258C16.5945 21.3251 17.332 22.1893 17.332 21.25V28.3333H24.4154C25.1945 28.3333 25.832 27.6958 25.832 26.9167C25.832 22.4754 25.832 27.8035 25.832 20.7258ZM8.83203 25.5H4.58203C3.80286 25.5 3.16536 24.8625 3.16536 24.0833C3.16536 23.3042 3.80286 22.6667 4.58203 22.6667H8.83203V25.5ZM22.9987 25.5H17.332V22.6667H22.9987V25.5Z" fill="#FD9644"/>
<path id="Rectangle 481" d="M6.88477 17.4648H10.2715L16.4141 20.1543L18.2402 22.6445H6.88477V17.4648Z" fill="#FD9644"/>
<path id="Rectangle 482" d="M6.88477 25.5L21.5273 25.5L19.9336 26.9826L18.2402 28.3555H6.88477V25.5Z" fill="#FD9644"/>
</g>
</g>
</svg>
