<svg width="235" height="44" viewBox="0 0 235 44" fill="none" xmlns="http://www.w3.org/2000/svg">
<g id="Group 1">
<g id="Group">
<path id="Vector" d="M78.3619 9.24805L70.5589 31.501C67.9579 38.726 63.9119 41.616 57.4817 41.327V34.8968C60.6607 34.8968 62.1779 33.8853 63.1894 31.0675L54.0859 9.24805H61.6722L66.7297 23.2645L71.0647 9.24805H78.3619Z" fill="#3158C4"/>
<path id="Vector_2" d="M127.925 9.24791V30.9951C127.925 38.7259 121.929 41.9771 115.86 41.9771C111.091 41.9771 107.117 40.1709 105.022 36.4139L110.874 33.0181C111.741 34.6076 113.042 35.9081 116.076 35.9081C119.255 35.9081 121.278 34.2464 121.278 30.9951V28.8999C119.761 30.7784 117.594 31.8621 114.559 31.8621C108.057 31.8621 103.288 26.5156 103.288 20.2299C103.288 13.8719 108.057 8.59766 114.559 8.59766C117.521 8.59766 119.761 9.68141 121.278 11.5599V9.24791H127.925ZM121.206 20.2299C121.206 17.0509 118.894 14.8834 115.643 14.8834C112.392 14.8834 110.08 17.0509 110.08 20.2299C110.08 23.4089 112.392 25.5764 115.643 25.5764C118.966 25.5764 121.206 23.4089 121.206 20.2299Z" fill="#3158C4"/>
<path id="Vector_3" d="M148.589 25.3597C148.589 30.6339 144.037 32.8736 139.052 32.8736C134.5 32.8736 130.96 31.1396 129.226 27.4549L135.15 24.0592C135.728 25.7932 137.029 26.7324 139.052 26.7324C140.713 26.7324 141.508 26.2267 141.508 25.2874C141.508 22.7587 130.237 24.1314 130.237 16.1839C130.237 11.1987 134.428 8.66992 139.196 8.66992C142.881 8.66992 146.204 10.3317 148.155 13.5829L142.303 16.7619C141.653 15.6059 140.713 14.7389 139.268 14.7389C138.112 14.7389 137.318 15.1724 137.318 16.0394C137.318 18.5682 148.589 16.8342 148.589 25.3597Z" fill="#3158C4"/>
<path id="Vector_4" d="M172.649 17.9902V32.079H165.785V19.0017C165.785 16.184 163.979 14.8112 161.811 14.8112C159.282 14.8112 157.548 16.2562 157.548 19.5075V32.0067H150.612V0H157.476V11.3432C158.704 9.68149 161.016 8.52549 164.051 8.52549C168.675 8.52549 172.649 11.849 172.649 17.9902Z" fill="#3158C4"/>
<path id="Vector_5" d="M187.098 26.6602C188.976 26.6602 190.566 25.9377 191.505 24.9262L196.996 28.1052C194.756 31.2119 191.361 32.8014 187.026 32.8014C179.223 32.8014 174.31 27.5272 174.31 20.7357C174.31 13.8719 179.295 8.66992 186.52 8.66992C193.239 8.66992 198.152 13.8719 198.152 20.7357C198.152 21.6749 198.08 22.6142 197.863 23.4812H181.607C182.474 25.7932 184.569 26.6602 187.098 26.6602ZM191.361 18.2792C190.638 15.6059 188.543 14.6667 186.52 14.6667C183.919 14.6667 182.185 15.9672 181.535 18.2792H191.361Z" fill="#3158C4"/>
<path id="Vector_6" d="M234.278 18.0624V32.1511H227.414V18.7126C227.414 16.4006 226.33 14.9556 224.09 14.9556C221.778 14.9556 220.55 16.5451 220.55 19.2906V32.2234H213.686V18.7126C213.686 16.4006 212.603 14.9556 210.363 14.9556C208.051 14.9556 206.823 16.5451 206.823 19.2906V32.2234H199.959V9.24791H206.823V11.3432C207.906 9.75366 209.857 8.59766 212.964 8.59766C215.637 8.59766 217.66 9.68141 218.961 11.6322C220.261 9.82591 222.356 8.59766 225.608 8.59766C230.882 8.59766 234.278 12.3547 234.278 18.0624Z" fill="#3158C4"/>
<path id="Vector_7" d="M89.221 32.8209C95.9246 32.8209 101.359 27.4189 101.359 20.7552C101.359 14.0915 95.9246 8.68945 89.221 8.68945C82.5174 8.68945 77.083 14.0915 77.083 20.7552C77.083 27.4189 82.5174 32.8209 89.221 32.8209Z" fill="#3158C4"/>
<path id="Vector_8" d="M84.4512 20.7099C84.4512 23.3831 86.6187 25.5506 89.2919 25.5506H94.1327V20.7099C94.1327 18.0366 91.9652 15.8691 89.2919 15.8691H84.4512V20.7099Z" fill="white"/>
<g id="Group_2">
<path id="Vector_9" d="M19.2615 24.9979H9.79679C4.59479 24.9979 0.404297 20.8074 0.404297 15.6054V6.14062H9.86904C15.071 6.14062 19.2615 10.3311 19.2615 15.5331V24.9979Z" fill="#26DE81"/>
<path id="Vector_10" d="M9.79677 43.9998C4.59478 43.9998 0.332031 39.737 0.332031 34.4628C0.332031 29.2608 4.59478 24.998 9.79677 24.998C14.9988 24.998 19.2615 29.2608 19.2615 34.4628C19.2615 39.737 15.071 43.9998 9.79677 43.9998Z" fill="#FC5C67"/>
<path id="Vector_11" d="M38.1912 6.06836H19.2617V24.9978H38.1912V6.06836Z" fill="#1B9CFC"/>
<path id="Vector_12" d="M19.2617 43.9998V25.0703H38.1912C38.2634 35.4743 29.738 43.9998 19.2617 43.9998Z" fill="#FED330"/>
</g>
</g>
</g>
</svg>
