<svg width="32" height="31" viewBox="0 0 32 31" fill="none" xmlns="http://www.w3.org/2000/svg">
<path d="M18.7383 0H3.88411C1.92078 0 0.332031 1.58875 0.332031 3.55208V23.5729C0.332031 25.5363 1.92078 27.125 3.88411 27.125H13.4166L13.7008 25.5363C13.8299 24.8129 14.1658 24.1671 14.6824 23.6375L22.2904 16.0425V3.55208C22.2904 1.58875 20.7016 0 18.7383 0ZM5.4987 5.16667H10.6654C11.3758 5.16667 11.957 5.74792 11.957 6.45833C11.957 7.16875 11.3758 7.75 10.6654 7.75H5.4987C4.78828 7.75 4.20703 7.16875 4.20703 6.45833C4.20703 5.74792 4.78828 5.16667 5.4987 5.16667ZM13.4166 14.501H3.57129C2.86087 14.501 4.20703 17.5021 4.20703 16.7917C4.20703 16.0813 4.78828 15.5 5.4987 15.5H11.957C12.6674 15.5 13.2487 16.0813 13.2487 16.7917C13.2487 17.5021 14.127 14.501 13.4166 14.501ZM17.1237 12.9167H5.4987C4.78828 12.9167 4.20703 12.3354 4.20703 11.625C4.20703 10.9146 4.78828 10.3333 5.4987 10.3333H17.1237C17.8341 10.3333 18.4154 10.9146 18.4154 11.625C18.4154 12.3354 17.8341 12.9167 17.1237 12.9167Z" fill="#A55EEA"/>
<path d="M16.5151 31.0003C16.2607 31.0003 16.0127 30.8995 15.8305 30.7161C15.6071 30.4927 15.5063 30.1749 15.5619 29.8623L16.2465 25.9809C16.28 25.7858 16.3756 25.605 16.5151 25.4642L26.1058 15.8749C27.2838 14.6943 28.4411 15.0133 29.074 15.6462L30.6718 17.244C31.554 18.125 31.554 19.5587 30.6718 20.4409L21.0812 30.0315C20.9417 30.1723 20.7608 30.2666 20.5645 30.3002L16.683 30.9848C16.6275 30.9951 16.5707 31.0003 16.5151 31.0003ZM20.3966 29.347H20.4095H20.3966Z" fill="#CCA5F3"/>
</svg>
