<svg width="114" height="94" viewBox="0 0 114 94" fill="none" xmlns="http://www.w3.org/2000/svg">
<g id="Group 7984">
<g id="freepik  Character  inject 101">
<path id="Vector" d="M52.3192 8.19025C52.82 6.65972 53.0744 -1.70365 44.6787 0.311476C38.4395 1.80969 40.2971 9.74904 34.2275 10.6455C34.2275 10.6455 43.1603 14.8858 46.0679 9.03022C48.3576 4.40634 50.7362 8.60215 50.7362 8.60215L52.3192 8.19025Z" fill="#263238"/>
<path id="Vector_2" d="M50.6007 9.64851C50.2252 9.30929 50.0636 8.46124 50.3544 8.32394C50.6452 8.18664 52.1838 7.75858 52.6159 7.8353C53.1085 7.92011 53.0197 9.11141 53.0197 9.11141L50.6007 9.64851Z" fill="#407BFF"/>
<path id="Vector_3" d="M50.6007 9.64851C50.2252 9.30929 50.0636 8.46124 50.3544 8.32394C50.6452 8.18664 52.1838 7.75858 52.6159 7.8353C53.1085 7.92011 53.0197 9.11141 53.0197 9.11141L50.6007 9.64851Z" fill="#E1C5FF"/>
<path id="Vector_4" d="M1.72217 85.8398L3.05886 88.6061L9.89574 86.3971L8.55905 83.6309L1.72217 85.8398Z" fill="#FFCDC6"/>
<path id="Vector_5" d="M3.80452 88.427L4.03874 84.9782C4.04299 84.919 4.02572 84.8603 3.9901 84.8128C3.95449 84.7653 3.90293 84.7323 3.8449 84.7198L1.1473 84.1423C1.07916 84.1302 1.00924 84.1327 0.942096 84.1494C0.874954 84.1662 0.812093 84.1969 0.757612 84.2396C0.703131 84.2822 0.658253 84.3359 0.625897 84.3971C0.59354 84.4583 0.574432 84.5256 0.569819 84.5946C0.505206 85.8061 0.537514 86.3836 0.432518 87.8979C0.367905 88.8308 0.0932968 90.8823 0.00445367 92.1665C-0.0843894 93.4506 1.18365 93.6122 1.3371 93.0832C2.01554 90.7167 2.84339 89.6869 3.57837 88.9237C3.7091 88.7894 3.78905 88.6138 3.80452 88.427Z" fill="#263238"/>
<path id="Vector_6" d="M8.55671 83.6309L9.89339 86.3971L6.36794 87.5359L5.03125 84.7656L8.55671 83.6309Z" fill="#E09188"/>
<path id="Vector_7" d="M49.2825 43.9334C49.2825 43.9334 49.6863 68.3209 46.5001 77.1325C43.431 85.5807 34.2761 100.102 34.2761 100.102L28.9697 99.9692C28.9697 99.9692 37.3977 81.5827 38.7788 74.3057C41.0726 62.2432 40.5678 41.1914 40.5678 41.1914L49.2825 43.9334Z" fill="#CCA5F3"/>
<path id="Vector_8" opacity="0.6" d="M49.2825 43.9334C49.2825 43.9334 49.6863 68.3209 46.5001 77.1325C43.431 85.5807 34.2761 100.102 34.2761 100.102L28.9697 99.9692C28.9697 99.9692 37.3977 81.5827 38.7788 74.3057C41.0726 62.2432 40.5678 41.1914 40.5678 41.1914L49.2825 43.9334Z" fill="white"/>
<path id="Vector_9" opacity="0.4" d="M44.5196 46.0169L43.0941 41.9786L40.5701 41.1709C40.5701 41.1709 40.8003 50.7538 40.2471 60.6922C42.5368 56.3025 44.5196 48.2258 44.5196 46.0169Z" fill="#CCA5F3"/>
<path id="Vector_10" d="M46.675 43.1463C46.675 43.1463 38.3964 62.082 33.0457 72.8603C28.7247 81.5669 7.60422 87.8627 7.60422 87.8627L5.94043 83.9697C5.94043 83.9697 21.7303 76.8542 24.7146 70.9502C34.2652 52.0589 31.9109 44.273 37.403 40.166L46.675 43.1463Z" fill="#CCA5F3"/>
<path id="Vector_11" opacity="0.6" d="M46.675 43.1463C46.675 43.1463 38.3964 62.082 33.0457 72.8603C28.7247 81.5669 7.60422 87.8627 7.60422 87.8627L5.94043 83.9697C5.94043 83.9697 21.7303 76.8542 24.7146 70.9502C34.2652 52.0589 31.9109 44.273 37.403 40.166L46.675 43.1463Z" fill="white"/>
<path id="Vector_12" d="M57.818 11.9824C58.0038 13.0445 58.0845 16.5619 55.6252 17.3332C53.1659 18.1045 57.818 11.9824 57.818 11.9824Z" fill="#263238"/>
<path id="Vector_13" d="M56.7957 27.877L56.9532 28.083L57.143 28.3212C57.2763 28.4828 57.4095 28.6443 57.5468 28.8018C57.8255 29.1249 58.1324 29.4318 58.4393 29.7306C59.054 30.3411 59.7141 30.9041 60.414 31.4146C61.1103 31.9326 61.8432 32.3996 62.6069 32.8118C62.9865 33.0299 63.3862 33.1955 63.778 33.3853L63.8426 33.4176C63.8426 33.4176 63.8628 33.4176 63.8749 33.4176C63.9112 33.421 63.9477 33.421 63.9839 33.4176C64.1112 33.4345 64.2402 33.4345 64.3676 33.4176C65.1382 33.2448 65.875 32.946 66.5483 32.5332C67.3269 32.0869 68.0818 31.6003 68.8097 31.0754C69.5528 30.5463 70.2837 29.9769 71.0025 29.3914C71.7213 28.8058 72.4442 28.2041 73.1388 27.6064L74.2695 28.6806C73.0325 30.1766 71.6825 31.5753 70.2312 32.8643C69.4904 33.529 68.7066 34.1441 67.8849 34.7058C66.9847 35.3485 65.9787 35.8282 64.9127 36.1233C64.5764 36.2007 64.2321 36.2386 63.887 36.2363C63.6892 36.2316 63.4921 36.2113 63.2974 36.1758C63.1924 36.1515 63.0915 36.1314 62.9865 36.099L62.7199 36.0062C62.2434 35.8164 61.7628 35.6427 61.3025 35.4166C60.3694 34.9975 59.4749 34.4976 58.6291 33.9224C57.7825 33.3443 56.9819 32.7017 56.2344 32.0001C55.8669 31.6448 55.5075 31.2773 55.1642 30.8856C54.9906 30.6917 54.825 30.4817 54.6594 30.2839L54.4171 29.9648C54.3323 29.8518 54.2637 29.7548 54.1587 29.5973L56.7957 27.877Z" fill="#FFCDC6"/>
<path id="Vector_14" d="M53.3452 25.7323C57.0483 26.0472 59.3017 29.605 59.3017 29.605L54.8596 33.9543C54.8596 33.9543 51.8349 30.9013 51.5603 29.2254C51.2816 27.4768 51.4431 25.5707 53.3452 25.7323Z" fill="#263238"/>
<path id="Vector_15" d="M72.9082 28.3846L73.0576 25.6426L75.8844 27.2054C75.8844 27.2054 75.0768 28.7279 73.8976 29.1842L72.9082 28.3846Z" fill="#FFCDC6"/>
<path id="Vector_16" d="M74.8597 23.6289L76.7254 25.1796L75.8652 27.2069L73.0586 25.644L74.8597 23.6289Z" fill="#FFCDC6"/>
<path id="Vector_17" d="M56.3478 26.7593C56.3478 26.7593 57.5229 27.6235 49.2847 43.9343L37.3838 40.1665C39.1162 35.3851 40.0652 32.4008 40.8971 21.7275C42.6674 21.911 44.4219 22.2227 46.147 22.6604C47.988 23.1012 49.7951 23.6734 51.5543 24.3726C53.1918 25.0858 54.7918 25.8824 56.3478 26.7593Z" fill="#263238"/>
<path id="Vector_18" d="M48.6208 16.7441C48.4108 18.5937 47.7445 21.8849 46.1574 22.6603C46.1574 22.6603 46.0766 24.5745 49.3073 25.5961C52.861 26.7228 51.5647 24.3847 51.5647 24.3847C49.7717 23.3064 50.2765 21.8849 51.0397 20.6411L48.6208 16.7441Z" fill="#FFCDC6"/>
<path id="Vector_19" d="M49.6064 18.3281L51.04 20.6259C50.857 20.9142 50.7002 21.2183 50.5716 21.5346C49.8649 21.1913 48.9562 20.1736 49.1218 19.3741C49.2206 18.9996 49.3847 18.6456 49.6064 18.3281Z" fill="#EAA197"/>
<path id="Vector_20" d="M49.4603 12.6293C48.4426 15.5086 47.954 16.704 48.7576 18.7433C49.9691 21.8084 53.7248 22.4263 55.5783 19.9145C57.2502 17.649 58.6313 13.3279 56.3618 11.0301C55.862 10.526 55.2417 10.158 54.5597 9.96118C53.8777 9.76431 53.1566 9.74508 52.4651 9.90532C51.7736 10.0656 51.1345 10.3999 50.6086 10.8767C50.0827 11.3535 49.6874 11.9568 49.4603 12.6293Z" fill="#FFCDC6"/>
<path id="Vector_21" d="M48.8902 15.0116C50.3763 14.842 52.8477 13.2266 53.0133 11.9909C53.0133 11.9909 55.9895 14.0424 57.5564 13.0691C58.9254 12.217 55.8522 8.22314 52.1935 8.80466C48.2158 9.4306 47.7069 12.9682 48.8902 15.0116Z" fill="#263238"/>
<path id="Vector_22" d="M47.9574 14.9751C47.7867 15.5402 47.8462 16.1498 48.123 16.6712C48.4986 17.3577 49.2416 17.1558 49.6051 16.5097C49.9322 15.9282 50.1341 14.8742 49.5324 14.4017C49.3992 14.302 49.2433 14.2372 49.0787 14.2129C48.9142 14.1886 48.7462 14.2057 48.5899 14.2626C48.4336 14.3195 48.2939 14.4144 48.1835 14.5388C48.0731 14.6632 47.9954 14.8132 47.9574 14.9751Z" fill="#FFCDC6"/>
<path id="Vector_23" d="M7.63775 88.3481L5.5459 83.4617L7.37122 82.3633L9.55595 87.9119L7.63775 88.3481Z" fill="#8F3AE4"/>
<path id="Vector_24" d="M53.3782 15.218C53.2854 15.4442 53.3257 15.6824 53.4752 15.743C53.6246 15.8036 53.8225 15.6744 53.9194 15.4482C54.0163 15.2221 53.9759 14.9798 53.8265 14.9192C53.6771 14.8586 53.4752 14.9878 53.3782 15.218Z" fill="#263238"/>
<path id="Vector_25" d="M55.9577 16.3118C55.8607 16.5379 55.9052 16.7762 56.0546 16.8368C56.204 16.8973 56.4019 16.7681 56.4988 16.5379C56.5957 16.3077 56.5553 16.0735 56.4059 16.0129C56.2565 15.9524 56.0546 16.0816 55.9577 16.3118Z" fill="#263238"/>
<path id="Vector_26" d="M56.3369 15.9951L56.9507 16.0678C56.9507 16.0678 56.5025 16.3788 56.3369 15.9951Z" fill="#263238"/>
<path id="Vector_27" d="M55.1112 16.4131C55.0942 17.0197 55.1608 17.6257 55.3091 18.2142C55.1573 18.2481 55 18.2488 54.848 18.216C54.696 18.1832 54.553 18.1178 54.4287 18.0244L55.1112 16.4131Z" fill="#EAA197"/>
<path id="Vector_28" d="M53.2724 18.5853H53.2441C52.9339 18.4635 52.6576 18.2689 52.4383 18.018C52.2191 17.7671 52.0633 17.4672 51.9841 17.1436C51.9815 17.125 51.9859 17.1061 51.9963 17.0904C52.0067 17.0748 52.0225 17.0635 52.0407 17.0588C52.0502 17.057 52.06 17.0573 52.0695 17.0594C52.079 17.0615 52.088 17.0655 52.0959 17.0712C52.1038 17.0768 52.1105 17.084 52.1155 17.0923C52.1206 17.1005 52.124 17.1097 52.1255 17.1194C52.2045 17.4174 52.3518 17.6931 52.5558 17.9244C52.7598 18.1557 53.0148 18.3363 53.3006 18.452C53.3181 18.4592 53.3321 18.4729 53.3397 18.4903C53.3472 18.5076 53.3477 18.5272 53.341 18.5449C53.3347 18.5576 53.3249 18.5681 53.3127 18.5753C53.3005 18.5825 53.2865 18.586 53.2724 18.5853Z" fill="#263238"/>
<path id="Vector_29" d="M53.0114 14.0651C52.9796 14.0649 52.9488 14.0542 52.9236 14.0348C52.8985 14.0153 52.8804 13.9882 52.8722 13.9575C52.8639 13.9268 52.866 13.8943 52.878 13.8648C52.89 13.8354 52.9113 13.8107 52.9387 13.7946C53.1366 13.674 53.3605 13.6027 53.5917 13.5865C53.8228 13.5704 54.0545 13.6099 54.2673 13.7017C54.2847 13.7103 54.3002 13.7222 54.3129 13.7369C54.3256 13.7515 54.3353 13.7686 54.3413 13.787C54.3473 13.8055 54.3496 13.8249 54.348 13.8442C54.3464 13.8636 54.3409 13.8824 54.3319 13.8996C54.3124 13.9326 54.2816 13.9573 54.2452 13.9692C54.2087 13.9811 54.1692 13.9793 54.134 13.9642C53.9653 13.8928 53.7819 13.8629 53.5992 13.8769C53.4165 13.891 53.2399 13.9486 53.084 14.045C53.063 14.0601 53.0372 14.0673 53.0114 14.0651Z" fill="#263238"/>
<path id="Vector_30" d="M57.7138 15.6282C57.6802 15.6287 57.6475 15.6172 57.6216 15.5957C57.5956 15.5743 57.5782 15.5443 57.5725 15.5111C57.5428 15.3308 57.4715 15.1599 57.3643 15.012C57.257 14.8641 57.1167 14.7432 56.9546 14.659C56.9364 14.6524 56.9198 14.6421 56.9058 14.6288C56.8918 14.6155 56.8807 14.5994 56.8731 14.5816C56.8655 14.5638 56.8617 14.5447 56.8618 14.5254C56.8619 14.506 56.866 14.4869 56.8738 14.4692C56.889 14.4339 56.9172 14.4059 56.9526 14.3908C56.9879 14.3758 57.0277 14.3749 57.0636 14.3885C57.2742 14.488 57.4576 14.6369 57.5982 14.8225C57.7388 15.0081 57.8325 15.225 57.8713 15.4546C57.8748 15.4734 57.8746 15.4927 57.8706 15.5115C57.8666 15.5302 57.8589 15.548 57.848 15.5637C57.8371 15.5795 57.8232 15.5929 57.8071 15.6033C57.791 15.6137 57.7731 15.6208 57.7542 15.6242L57.7138 15.6282Z" fill="#263238"/>
<path id="Vector_31" d="M41.05 26.4389C40.6785 26.9114 40.3312 27.3072 39.9557 27.715C39.5801 28.1229 39.2045 28.5227 38.8169 28.9023C38.0334 29.6696 37.2015 30.4005 36.3656 31.0951C35.5104 31.7985 34.6106 32.446 33.672 33.0335C33.4418 33.187 33.1955 33.3243 32.9572 33.4656C32.719 33.607 32.4767 33.7523 32.2223 33.8694C31.9679 33.9866 31.7377 34.1279 31.459 34.2733L31.0067 34.4712L30.5464 34.6327C29.3894 34.9693 28.1835 35.1059 26.9805 35.0365C25.8615 34.9838 24.7494 34.8325 23.657 34.5842C22.5941 34.3427 21.5442 34.0475 20.5111 33.6998C19.4865 33.3489 18.4809 32.9445 17.4985 32.4883L18.0801 31.0426C19.0412 31.3213 20.0548 31.5878 21.0523 31.7978C22.0416 32.021 23.0417 32.1935 24.0487 32.3147C25.0261 32.4399 26.0116 32.4899 26.9967 32.4641C27.4633 32.4504 27.9287 32.4072 28.3899 32.3349C28.8171 32.26 29.2372 32.1492 29.6458 32.0037L29.9245 31.8907L30.1869 31.7574C30.3767 31.6564 30.5908 31.5111 30.8048 31.394C31.0188 31.2768 31.2086 31.1395 31.4267 30.9901C31.6448 30.8407 31.8305 30.7276 32.0365 30.5863C32.8442 30.0169 33.6155 29.3748 34.3828 28.7327C35.15 28.0906 35.8689 27.3879 36.5756 26.6691C36.935 26.3137 37.2823 25.9503 37.6255 25.5828C37.9688 25.2153 38.308 24.8236 38.5988 24.4844L41.05 26.4389Z" fill="#FFCDC6"/>
<path id="Vector_32" d="M19.0322 31.5035L17.4734 29.2461L15.8984 32.0446C15.8984 32.0446 17.3684 32.929 18.6243 32.6948L19.0322 31.5035Z" fill="#FFCDC6"/>
<path id="Vector_33" d="M14.8819 28.4717L14.1025 30.7695L15.8996 32.0456L17.4745 29.247L14.8819 28.4717Z" fill="#FFCDC6"/>
<path id="Vector_34" d="M40.8991 21.7265C39.3524 21.6579 36.3115 25.4579 36.3115 25.4579L39.5664 30.0656C39.5664 30.0656 43.0151 27.1015 43.2897 25.1308C43.524 23.4549 42.8698 21.8153 40.8991 21.7265Z" fill="#263238"/>
<path id="Vector_35" d="M53.7539 14.9023L54.3677 14.975C54.3677 14.975 53.9074 15.286 53.7539 14.9023Z" fill="#263238"/>
<path id="Vector_36" d="M47.4228 21.0676C47.2007 20.8818 47.019 21.5199 46.9463 21.7783C46.9369 21.8121 46.9372 21.8478 46.9472 21.8814C46.9572 21.915 46.9765 21.945 47.0029 21.9681C47.439 22.3437 49.337 23.4381 50.4193 23.0948C50.4435 23.0872 50.4647 23.0722 50.4799 23.0519C50.4951 23.0316 50.5036 23.0071 50.5041 22.9817C50.4779 22.739 50.4644 22.495 50.4637 22.2508C50.4654 22.235 50.4637 22.219 50.4588 22.2038C50.4539 22.1887 50.4459 22.1747 50.4352 22.1629C50.4245 22.1511 50.4115 22.1416 50.3969 22.1352C50.3823 22.1288 50.3666 22.1255 50.3506 22.1256C49.2786 22.1402 48.2379 21.7641 47.4228 21.0676Z" fill="#407BFF"/>
<path id="Vector_37" d="M47.4228 21.0676C47.2007 20.8818 47.019 21.5199 46.9463 21.7783C46.9369 21.8121 46.9372 21.8478 46.9472 21.8814C46.9572 21.915 46.9765 21.945 47.0029 21.9681C47.439 22.3437 49.337 23.4381 50.4193 23.0948C50.4435 23.0872 50.4647 23.0722 50.4799 23.0519C50.4951 23.0316 50.5036 23.0071 50.5041 22.9817C50.4779 22.739 50.4644 22.495 50.4637 22.2508C50.4654 22.235 50.4637 22.219 50.4588 22.2038C50.4539 22.1887 50.4459 22.1747 50.4352 22.1629C50.4245 22.1511 50.4115 22.1416 50.3969 22.1352C50.3823 22.1288 50.3666 22.1255 50.3506 22.1256C49.2786 22.1402 48.2379 21.7641 47.4228 21.0676Z" fill="#8F3AE4"/>
<path id="Vector_38" d="M37.4221 39.4108L36.5498 40.3073C36.4812 40.376 36.5498 40.4931 36.6911 40.5375L49.1736 44.491C49.2786 44.5274 49.3836 44.491 49.4119 44.4385L49.8561 43.4047C49.8884 43.332 49.8157 43.2432 49.6986 43.2069L37.6442 39.3906C37.6085 39.3749 37.5694 39.3685 37.5305 39.372C37.4917 39.3756 37.4544 39.3889 37.4221 39.4108Z" fill="#407BFF"/>
<path id="Vector_39" d="M37.4221 39.4108L36.5498 40.3073C36.4812 40.376 36.5498 40.4931 36.6911 40.5375L49.1736 44.491C49.2786 44.5274 49.3836 44.491 49.4119 44.4385L49.8561 43.4047C49.8884 43.332 49.8157 43.2432 49.6986 43.2069L37.6442 39.3906C37.6085 39.3749 37.5694 39.3685 37.5305 39.372C37.4917 39.3756 37.4544 39.3889 37.4221 39.4108Z" fill="#8F3AE4"/>
<path id="Vector_40" d="M38.6196 41.2591L38.2966 41.1541C38.232 41.1339 38.1916 41.0854 38.2118 41.0491L38.7973 39.7124C38.8146 39.6906 38.8387 39.6752 38.8658 39.6686C38.8929 39.662 38.9213 39.6646 38.9467 39.6761L39.2698 39.7811C39.3344 39.7811 39.3748 39.8497 39.3546 39.8861L38.765 41.2227C38.7327 41.2591 38.6843 41.2914 38.6196 41.2591Z" fill="#407BFF"/>
<path id="Vector_41" d="M48.2276 44.312L47.9045 44.2111C47.8399 44.1909 47.8036 44.1424 47.8197 44.1021L48.4093 42.7654C48.4093 42.725 48.4941 42.7088 48.5588 42.7331L48.8818 42.834C48.9424 42.834 48.9828 42.9027 48.9666 42.9431L48.377 44.2757C48.3609 44.3161 48.2922 44.3322 48.2276 44.312Z" fill="#407BFF"/>
<path id="Vector_42" d="M43.4254 42.7899L43.1023 42.689C43.0377 42.689 43.0013 42.6203 43.0175 42.5799L43.6071 41.2433C43.6071 41.2069 43.6878 41.1908 43.7525 41.2109L44.0755 41.3119C44.1401 41.3321 44.1805 41.3806 44.1644 41.4209L43.5788 42.7576C43.5546 42.798 43.49 42.8101 43.4254 42.7899Z" fill="#407BFF"/>
<path id="Vector_43" d="M38.6196 41.2591L38.2966 41.1541C38.232 41.1339 38.1916 41.0854 38.2118 41.0491L38.7973 39.7124C38.8146 39.6906 38.8387 39.6752 38.8658 39.6686C38.8929 39.662 38.9213 39.6646 38.9467 39.6761L39.2698 39.7811C39.3344 39.7811 39.3748 39.8497 39.3546 39.8861L38.765 41.2227C38.7327 41.2591 38.6843 41.2914 38.6196 41.2591Z" fill="#E8CFFF"/>
<path id="Vector_44" d="M48.2276 44.312L47.9045 44.2111C47.8399 44.1909 47.8036 44.1424 47.8197 44.1021L48.4093 42.7654C48.4093 42.725 48.4941 42.7088 48.5588 42.7331L48.8818 42.834C48.9424 42.834 48.9828 42.9027 48.9666 42.9431L48.377 44.2757C48.3609 44.3161 48.2922 44.3322 48.2276 44.312Z" fill="#E8CFFF"/>
<path id="Vector_45" d="M43.4254 42.7899L43.1023 42.689C43.0377 42.689 43.0013 42.6203 43.0175 42.5799L43.6071 41.2433C43.6071 41.2069 43.6878 41.1908 43.7525 41.2109L44.0755 41.3119C44.1401 41.3321 44.1805 41.3806 44.1644 41.4209L43.5788 42.7576C43.5546 42.798 43.49 42.8101 43.4254 42.7899Z" fill="#E8CFFF"/>
</g>
<g id="freepik  Statistics  inject 101">
<path id="Vector_46" opacity="0.2" d="M15.5059 81.7021C20.4412 89.133 35.0272 90.2816 41.2226 85.8448C50.0158 79.5472 49.5297 62.9022 58.6634 57.004C75.457 46.1674 95.9784 75.9278 108.961 46.3594V101.611H15.5059V81.7021Z" fill="#8F3AE4"/>
<path id="Vector_47" d="M23.2485 74.6748H10V101.611H23.2485V74.6748Z" fill="#407BFF"/>
<path id="Vector_48" d="M23.2485 74.6748H10V101.611H23.2485V74.6748Z" fill="#7E27D5"/>
<path id="Vector_49" d="M45.0576 83.3096H31.8091V101.611H45.0576V83.3096Z" fill="#407BFF"/>
<path id="Vector_50" d="M45.0576 83.3096H31.8091V101.611H45.0576V83.3096Z" fill="#7E27D5"/>
<path id="Vector_51" d="M66.8686 67.8467H53.6201V101.61H66.8686V67.8467Z" fill="#407BFF"/>
<path id="Vector_52" d="M66.8686 67.8467H53.6201V101.61H66.8686V67.8467Z" fill="#7E27D5"/>
<path id="Vector_53" d="M88.6733 49.2959H75.4248V101.612H88.6733V49.2959Z" fill="#407BFF"/>
<path id="Vector_54" d="M88.6733 49.2959H75.4248V101.612H88.6733V49.2959Z" fill="#7E27D5"/>
<path id="Vector_55" d="M110.482 23.5898H97.2339V101.61H110.482V23.5898Z" fill="#407BFF"/>
<path id="Vector_56" d="M110.482 23.5898H97.2339V101.61H110.482V23.5898Z" fill="#7E27D5"/>
<path id="Vector_57" d="M26.7656 74.6748H13.5171V101.611H26.7656V74.6748Z" fill="#407BFF"/>
<path id="Vector_58" d="M26.7656 74.6748H13.5171V101.611H26.7656V74.6748Z" fill="#CCA5F3"/>
<path id="Vector_59" d="M48.5742 83.3096H35.3257V101.611H48.5742V83.3096Z" fill="#407BFF"/>
<path id="Vector_60" d="M48.5742 83.3096H35.3257V101.611H48.5742V83.3096Z" fill="#CCA5F3"/>
<path id="Vector_61" d="M70.3813 67.8467H57.1328V101.61H70.3813V67.8467Z" fill="#407BFF"/>
<path id="Vector_62" d="M70.3813 67.8467H57.1328V101.61H70.3813V67.8467Z" fill="#CCA5F3"/>
<path id="Vector_63" d="M92.1924 49.2959H78.9438V101.612H92.1924V49.2959Z" fill="#407BFF"/>
<path id="Vector_64" d="M92.1924 49.2959H78.9438V101.612H92.1924V49.2959Z" fill="#CCA5F3"/>
<path id="Vector_65" d="M113.999 23.5898H100.75V101.61H113.999V23.5898Z" fill="#407BFF"/>
<path id="Vector_66" d="M113.999 23.5898H100.75V101.61H113.999V23.5898Z" fill="#CCA5F3"/>
<path id="Vector_67" d="M86.6897 34.5316C85.8386 33.68 84.6841 33.2015 83.4801 33.2012C82.2761 33.2009 81.1214 33.6789 80.2698 34.53C79.4183 35.3811 78.9397 36.5357 78.9395 37.7396C78.9392 38.9436 79.4172 40.0984 80.2683 40.9499L83.479 44.1575L86.6866 40.9468C87.1081 40.5258 87.4425 40.0259 87.6708 39.4756C87.8991 38.9254 88.0167 38.3355 88.017 37.7398C88.0173 37.1441 87.9002 36.5541 87.6725 36.0037C87.4447 35.4532 87.1108 34.953 86.6897 34.5316Z" fill="#E5D2F9"/>
</g>
</g>
</svg>
