<svg width="164" height="132" viewBox="0 0 164 132" fill="none" xmlns="http://www.w3.org/2000/svg">
<g id="Group 7991">
<g id="freepik  background simple  inject 115">
<path id="Vector" opacity="0.5" d="M24.3293 94.9176C-8.97513 73.9644 -11.2292 -3.37385 37.3514 3.42138C54.3487 5.79996 66.7068 23.205 82.5291 29.0824C100.811 35.848 114.073 24.7694 131.455 25.9488C172.771 28.7517 174.195 86.8936 138.881 101.994C119.861 110.132 101.501 108.607 82.398 105.518C65.7895 102.799 40.0161 104.777 24.3293 94.9176Z" fill="#3158C4"/>
</g>
<g id="freepik  Shadow  inject 115">
<path id="Vector_2" d="M100.641 96.9859C131.969 96.9859 157.366 95.5031 157.366 93.6741C157.366 91.845 131.969 90.3623 100.641 90.3623C69.313 90.3623 43.9165 91.845 43.9165 93.6741C43.9165 95.5031 69.313 96.9859 100.641 96.9859Z" fill="#3B60C7"/>
</g>
<g id="freepik  Calendar  inject 115">
<path id="Vector_3" d="M42.7466 55.5794C42.5813 55.5686 42.4263 55.4953 42.313 55.3744C42.1997 55.2535 42.1367 55.094 42.1367 54.9283C42.1367 54.7626 42.1997 54.6032 42.313 54.4822C42.4263 54.3613 42.5813 54.288 42.7466 54.2772C44.3416 54.2772 45.6857 51.9934 45.6857 49.2886C45.6965 49.1233 45.7698 48.9683 45.8907 48.855C46.0116 48.7417 46.1711 48.6787 46.3368 48.6787C46.5024 48.6787 46.6619 48.7417 46.7828 48.855C46.9038 48.9683 46.9771 49.1233 46.9879 49.2886C46.9879 52.816 45.1307 55.5794 42.7466 55.5794Z" fill="#407BFF"/>
<path id="Vector_4" d="M52.5869 55.5794C52.4216 55.5686 52.2666 55.4953 52.1533 55.3744C52.0401 55.2535 51.9771 55.094 51.9771 54.9283C51.9771 54.7626 52.0401 54.6032 52.1533 54.4822C52.2666 54.3613 52.4216 54.288 52.5869 54.2772C54.1819 54.2772 55.526 51.9934 55.526 49.2886C55.5368 49.1233 55.6101 48.9683 55.731 48.855C55.852 48.7417 56.0114 48.6787 56.1771 48.6787C56.3428 48.6787 56.5023 48.7417 56.6232 48.855C56.7441 48.9683 56.8174 49.1233 56.8282 49.2886C56.8422 52.816 54.9655 55.5794 52.5869 55.5794Z" fill="#407BFF"/>
<path id="Vector_5" d="M62.419 55.5792C62.2536 55.5684 62.0986 55.4951 61.9854 55.3742C61.8721 55.2532 61.8091 55.0938 61.8091 54.9281C61.8091 54.7624 61.8721 54.603 61.9854 54.482C62.0986 54.3611 62.2536 54.2878 62.419 54.277C64.0112 54.277 65.358 51.9932 65.358 49.2884C65.358 49.1161 65.4265 48.9508 65.5483 48.829C65.6702 48.7071 65.8354 48.6387 66.0077 48.6387C66.1801 48.6387 66.3453 48.7071 66.4672 48.829C66.589 48.9508 66.6575 49.1161 66.6575 49.2884C66.6658 52.8158 64.8059 55.5792 62.419 55.5792Z" fill="#407BFF"/>
<path id="Vector_6" d="M72.2674 55.5792C72.1783 55.585 72.089 55.5725 72.0049 55.5425C71.9209 55.5124 71.8439 55.4654 71.7787 55.4043C71.7135 55.3433 71.6616 55.2695 71.6261 55.1876C71.5906 55.1057 71.5723 55.0174 71.5723 54.9281C71.5723 54.8388 71.5906 54.7505 71.6261 54.6686C71.6616 54.5867 71.7135 54.5129 71.7787 54.4519C71.8439 54.3908 71.9209 54.3438 72.0049 54.3137C72.089 54.2837 72.1783 54.2712 72.2674 54.277C73.8596 54.277 75.2065 51.9932 75.2065 49.2884C75.2065 49.1161 75.2749 48.9508 75.3968 48.829C75.5186 48.7071 75.6839 48.6387 75.8562 48.6387C76.0285 48.6387 76.1938 48.7071 76.3156 48.829C76.4374 48.9508 76.5059 49.1161 76.5059 49.2884C76.5059 52.8158 74.6432 55.5792 72.2674 55.5792Z" fill="#407BFF"/>
<path id="Vector_7" d="M82.1065 55.5794C81.9411 55.5686 81.7861 55.4953 81.6729 55.3744C81.5596 55.2535 81.4966 55.094 81.4966 54.9283C81.4966 54.7626 81.5596 54.6032 81.6729 54.4822C81.7861 54.3613 81.9411 54.288 82.1065 54.2772C83.7015 54.2772 85.0455 51.9934 85.0455 49.2886C85.0563 49.1233 85.1296 48.9683 85.2506 48.855C85.3715 48.7417 85.531 48.6787 85.6966 48.6787C85.8623 48.6787 86.0218 48.7417 86.1427 48.855C86.2636 48.9683 86.3369 49.1233 86.3477 49.2886C86.3477 52.816 84.485 55.5794 82.1065 55.5794Z" fill="#407BFF"/>
<path id="Vector_8" d="M91.9473 55.5794C91.782 55.5686 91.6269 55.4953 91.5137 55.3744C91.4004 55.2535 91.3374 55.094 91.3374 54.9283C91.3374 54.7626 91.4004 54.6032 91.5137 54.4822C91.6269 54.3613 91.782 54.288 91.9473 54.2772C93.5395 54.2772 94.8864 51.9934 94.8864 49.2886C94.8972 49.1233 94.9705 48.9683 95.0914 48.855C95.2123 48.7417 95.3718 48.6787 95.5375 48.6787C95.7031 48.6787 95.8626 48.7417 95.9835 48.855C96.1044 48.9683 96.1778 49.1233 96.1886 49.2886C96.1886 52.816 94.3259 55.5794 91.9473 55.5794Z" fill="#407BFF"/>
<g id="Group" opacity="0.3">
<path id="Vector_9" opacity="0.3" d="M42.7456 55.5814C42.5803 55.5705 42.4253 55.4972 42.312 55.3763C42.1988 55.2554 42.1357 55.0959 42.1357 54.9303C42.1357 54.7646 42.1988 54.6051 42.312 54.4842C42.4253 54.3633 42.5803 54.29 42.7456 54.2791C44.3406 54.2791 45.6847 51.9954 45.6847 49.2905C45.6955 49.1252 45.7688 48.9702 45.8897 48.8569C46.0106 48.7437 46.1701 48.6807 46.3358 48.6807C46.5015 48.6807 46.6609 48.7437 46.7819 48.8569C46.9028 48.9702 46.9761 49.1252 46.9869 49.2905C46.9869 52.818 45.1298 55.5814 42.7456 55.5814Z" fill="black"/>
<path id="Vector_10" opacity="0.3" d="M52.5869 55.5804C52.4216 55.5696 52.2666 55.4963 52.1533 55.3753C52.0401 55.2544 51.9771 55.095 51.9771 54.9293C51.9771 54.7636 52.0401 54.6041 52.1533 54.4832C52.2666 54.3623 52.4216 54.289 52.5869 54.2782C54.1819 54.2782 55.526 51.9944 55.526 49.2896C55.5368 49.1242 55.6101 48.9692 55.731 48.856C55.852 48.7427 56.0114 48.6797 56.1771 48.6797C56.3428 48.6797 56.5023 48.7427 56.6232 48.856C56.7441 48.9692 56.8174 49.1242 56.8282 49.2896C56.8422 52.817 54.9655 55.5804 52.5869 55.5804Z" fill="black"/>
<path id="Vector_11" opacity="0.3" d="M62.4175 55.5792C62.2522 55.5684 62.0972 55.4951 61.9839 55.3742C61.8706 55.2532 61.8076 55.0938 61.8076 54.9281C61.8076 54.7624 61.8706 54.603 61.9839 54.482C62.0972 54.3611 62.2522 54.2878 62.4175 54.277C64.0097 54.277 65.3566 51.9932 65.3566 49.2884C65.3566 49.1161 65.425 48.9508 65.5469 48.829C65.6687 48.7071 65.834 48.6387 66.0063 48.6387C66.1786 48.6387 66.3439 48.7071 66.4657 48.829C66.5875 48.9508 66.656 49.1161 66.656 49.2884C66.6644 52.8158 64.8044 55.5792 62.4175 55.5792Z" fill="black"/>
<path id="Vector_12" opacity="0.3" d="M72.2659 55.5792C72.1769 55.585 72.0875 55.5725 72.0035 55.5425C71.9194 55.5124 71.8424 55.4654 71.7772 55.4043C71.7121 55.3433 71.6601 55.2695 71.6246 55.1876C71.5891 55.1057 71.5708 55.0174 71.5708 54.9281C71.5708 54.8388 71.5891 54.7505 71.6246 54.6686C71.6601 54.5867 71.7121 54.5129 71.7772 54.4519C71.8424 54.3908 71.9194 54.3438 72.0035 54.3137C72.0875 54.2837 72.1769 54.2712 72.2659 54.277C73.8582 54.277 75.205 51.9932 75.205 49.2884C75.205 49.1161 75.2735 48.9508 75.3953 48.829C75.5171 48.7071 75.6824 48.6387 75.8547 48.6387C76.027 48.6387 76.1923 48.7071 76.3141 48.829C76.436 48.9508 76.5044 49.1161 76.5044 49.2884C76.5044 52.8158 74.6417 55.5792 72.2659 55.5792Z" fill="black"/>
<path id="Vector_13" opacity="0.3" d="M82.104 55.5804C81.9387 55.5696 81.7837 55.4963 81.6704 55.3753C81.5572 55.2544 81.4941 55.095 81.4941 54.9293C81.4941 54.7636 81.5572 54.6041 81.6704 54.4832C81.7837 54.3623 81.9387 54.289 82.104 54.2782C83.699 54.2782 85.0431 51.9944 85.0431 49.2896C85.0539 49.1242 85.1272 48.9692 85.2481 48.856C85.369 48.7427 85.5285 48.6797 85.6942 48.6797C85.8599 48.6797 86.0193 48.7427 86.1402 48.856C86.2612 48.9692 86.3345 49.1242 86.3453 49.2896C86.3453 52.817 84.4826 55.5804 82.104 55.5804Z" fill="black"/>
<path id="Vector_14" opacity="0.3" d="M91.9453 55.5804C91.78 55.5696 91.625 55.4963 91.5117 55.3753C91.3985 55.2544 91.3354 55.095 91.3354 54.9293C91.3354 54.7636 91.3985 54.6041 91.5117 54.4832C91.625 54.3623 91.78 54.289 91.9453 54.2782C93.5376 54.2782 94.8844 51.9944 94.8844 49.2896C94.8952 49.1242 94.9685 48.9692 95.0895 48.856C95.2104 48.7427 95.3698 48.6797 95.5355 48.6797C95.7012 48.6797 95.8607 48.7427 95.9816 48.856C96.1025 48.9692 96.1758 49.1242 96.1866 49.2896C96.1866 52.817 94.3239 55.5804 91.9453 55.5804Z" fill="black"/>
</g>
<path id="Vector_15" d="M36.5805 49.9554H99.9294C100.779 49.9724 101.593 50.2988 102.219 50.8733C102.844 51.4478 103.239 52.2309 103.329 53.0757L106.837 92.6249C106.879 93.0218 106.837 93.4231 106.713 93.8025C106.589 94.1819 106.386 94.5306 106.117 94.8255C105.848 95.1205 105.52 95.355 105.153 95.5136C104.787 95.6721 104.391 95.7511 103.992 95.7452H40.6405C39.7915 95.7271 38.9782 95.4003 38.3526 94.826C37.727 94.2517 37.332 93.4693 37.2413 92.6249L33.7362 53.0757C33.6931 52.6788 33.7348 52.2773 33.8587 51.8977C33.9826 51.5181 34.1857 51.1693 34.4547 50.8742C34.7236 50.5791 35.0523 50.3446 35.4188 50.1862C35.7853 50.0278 36.1813 49.9491 36.5805 49.9554Z" fill="#407BFF"/>
<path id="Vector_16" d="M36.5805 49.9554H99.9294C100.779 49.9724 101.593 50.2988 102.219 50.8733C102.844 51.4478 103.239 52.2309 103.329 53.0757L106.837 92.6249C106.879 93.0218 106.837 93.4231 106.713 93.8025C106.589 94.1819 106.386 94.5306 106.117 94.8255C105.848 95.1205 105.52 95.355 105.153 95.5136C104.787 95.6721 104.391 95.7511 103.992 95.7452H40.6405C39.7915 95.7271 38.9782 95.4003 38.3526 94.826C37.727 94.2517 37.332 93.4693 37.2413 92.6249L33.7362 53.0757C33.6931 52.6788 33.7348 52.2773 33.8587 51.8977C33.9826 51.5181 34.1857 51.1693 34.4547 50.8742C34.7236 50.5791 35.0523 50.3446 35.4188 50.1862C35.7853 50.0278 36.1813 49.9491 36.5805 49.9554Z" fill="#36549F"/>
<path id="Vector_17" d="M99.403 49.9551H36.0513C35.2133 49.9651 34.4104 50.2928 33.8048 50.872C33.1992 51.4512 32.836 52.2388 32.7888 53.0754L31.0041 92.6246C30.9829 93.0275 31.0441 93.4305 31.184 93.8089C31.324 94.1874 31.5397 94.5332 31.818 94.8253C32.0963 95.1175 32.4313 95.3497 32.8024 95.5078C33.1736 95.666 33.5732 95.7466 33.9766 95.7449H97.334C98.1719 95.735 98.9748 95.4073 99.5804 94.828C100.186 94.2488 100.549 93.4613 100.596 92.6246L102.384 53.0754C102.405 52.6719 102.343 52.2684 102.202 51.8896C102.062 51.5108 101.845 51.1647 101.566 50.8726C101.287 50.5804 100.951 50.3483 100.579 50.1906C100.207 50.0328 99.8071 49.9527 99.403 49.9551Z" fill="#407BFF"/>
<path id="Vector_18" d="M99.403 49.9551H36.0513C35.2133 49.9651 34.4104 50.2928 33.8048 50.872C33.1992 51.4512 32.836 52.2388 32.7888 53.0754L31.0041 92.6246C30.9829 93.0275 31.0441 93.4305 31.184 93.8089C31.324 94.1874 31.5397 94.5332 31.818 94.8253C32.0963 95.1175 32.4313 95.3497 32.8024 95.5078C33.1736 95.666 33.5732 95.7466 33.9766 95.7449H97.334C98.1719 95.735 98.9748 95.4073 99.5804 94.828C100.186 94.2488 100.549 93.4613 100.596 92.6246L102.384 53.0754C102.405 52.6719 102.343 52.2684 102.202 51.8896C102.062 51.5108 101.845 51.1647 101.566 50.8726C101.287 50.5804 100.951 50.3483 100.579 50.1906C100.207 50.0328 99.8071 49.9527 99.403 49.9551Z" fill="#809CE3"/>
<path id="Vector_19" d="M37.2134 85.2936L38.6885 52.632C38.7062 52.3116 38.8452 52.0099 39.0772 51.7883C39.3092 51.5666 39.6169 51.4416 39.9378 51.4385H95.3813C95.5359 51.4375 95.689 51.4681 95.8314 51.5285C95.9737 51.5888 96.1022 51.6776 96.2089 51.7893C96.3157 51.9011 96.3986 52.0334 96.4524 52.1783C96.5062 52.3232 96.5298 52.4776 96.5218 52.632L95.0439 85.2936C95.0262 85.614 94.8873 85.9156 94.6553 86.1373C94.4232 86.3589 94.1156 86.484 93.7947 86.487H38.3539C38.1994 86.488 38.0462 86.4574 37.9039 86.3971C37.7616 86.3367 37.6331 86.248 37.5263 86.1362C37.4195 86.0245 37.3367 85.8921 37.2829 85.7472C37.2291 85.6023 37.2054 85.4479 37.2134 85.2936Z" fill="#407BFF"/>
<path id="Vector_20" opacity="0.7" d="M37.2134 85.2936L38.6885 52.632C38.7062 52.3116 38.8452 52.0099 39.0772 51.7883C39.3092 51.5666 39.6169 51.4416 39.9378 51.4385H95.3813C95.5359 51.4375 95.689 51.4681 95.8314 51.5285C95.9737 51.5888 96.1022 51.6776 96.2089 51.7893C96.3157 51.9011 96.3986 52.0334 96.4524 52.1783C96.5062 52.3232 96.5298 52.4776 96.5218 52.632L95.0439 85.2936C95.0262 85.614 94.8873 85.9156 94.6553 86.1373C94.4232 86.3589 94.1156 86.484 93.7947 86.487H38.3539C38.1994 86.488 38.0462 86.4574 37.9039 86.3971C37.7616 86.3367 37.6331 86.248 37.5263 86.1362C37.4195 86.0245 37.3367 85.8921 37.2829 85.7472C37.2291 85.6023 37.2054 85.4479 37.2134 85.2936Z" fill="#FAFAFA"/>
<path id="Vector_21" d="M35.6505 87.9597L37.1981 53.6613C37.2159 53.3248 37.3614 53.0079 37.605 52.7752C37.8486 52.5425 38.1718 52.4116 38.5087 52.4092H96.7324C96.8946 52.4078 97.0554 52.4397 97.2049 52.5029C97.3544 52.566 97.4893 52.6591 97.6014 52.7765C97.7135 52.8938 97.8003 53.0328 97.8566 53.185C97.9129 53.3371 97.9374 53.4992 97.9286 53.6613L96.3782 87.9597C96.3605 88.2959 96.2155 88.6127 95.9726 88.8458C95.7297 89.0789 95.4071 89.2107 95.0704 89.2145H36.8412C36.679 89.2155 36.5184 89.1833 36.3692 89.1198C36.22 89.0563 36.0855 88.9628 35.9739 88.8452C35.8623 88.7275 35.776 88.5883 35.7203 88.436C35.6647 88.2837 35.6409 88.1215 35.6505 87.9597Z" fill="#2B59C9"/>
<path id="Vector_22" d="M34.2105 90.7248L35.825 54.9485C35.8467 54.5986 35.9993 54.2698 36.2525 54.0275C36.5057 53.7851 36.8409 53.647 37.1914 53.6407H97.9275C98.0969 53.6393 98.2649 53.6726 98.4209 53.7386C98.577 53.8046 98.7179 53.9019 98.8349 54.0244C98.952 54.1469 99.0427 54.2921 99.1015 54.4511C99.1603 54.61 99.1859 54.7793 99.1767 54.9485L97.5538 90.7248C97.5321 91.0746 97.3795 91.4035 97.1263 91.6458C96.8731 91.8882 96.5379 92.0263 96.1875 92.0326H35.4597C35.2902 92.0344 35.122 92.0014 34.9658 91.9355C34.8095 91.8697 34.6684 91.7724 34.5513 91.6498C34.4342 91.5272 34.3435 91.3818 34.2849 91.2227C34.2262 91.0636 34.2009 90.8941 34.2105 90.7248Z" fill="#FAFAFA"/>
<path id="Vector_23" d="M91.9382 55.7848C91.8239 55.785 91.7109 55.7618 91.606 55.7167C91.5011 55.6716 91.4065 55.6054 91.3282 55.5223C91.2498 55.4393 91.1892 55.341 91.1503 55.2336C91.1113 55.1263 91.0948 55.0121 91.1016 54.8981C91.1123 54.6744 91.208 54.4632 91.3692 54.3077C91.5304 54.1522 91.7449 54.0641 91.9688 54.0615C92.083 54.0613 92.1961 54.0845 92.301 54.1296C92.4059 54.1748 92.5005 54.2409 92.5788 54.324C92.6572 54.4071 92.7177 54.5053 92.7567 54.6127C92.7957 54.7201 92.8122 54.8343 92.8054 54.9483C92.7947 55.172 92.699 55.3832 92.5378 55.5387C92.3766 55.6942 92.1621 55.7822 91.9382 55.7848Z" fill="#407BFF"/>
<path id="Vector_24" d="M82.0968 55.7848C81.9826 55.785 81.8696 55.7618 81.7647 55.7167C81.6598 55.6716 81.5652 55.6054 81.4868 55.5223C81.4085 55.4393 81.3479 55.341 81.309 55.2336C81.27 55.1263 81.2534 55.0121 81.2603 54.8981C81.2709 54.6744 81.3667 54.4632 81.5279 54.3077C81.6891 54.1522 81.9036 54.0641 82.1275 54.0615C82.2417 54.0613 82.3548 54.0845 82.4597 54.1296C82.5646 54.1748 82.6592 54.2409 82.7375 54.324C82.8159 54.4071 82.8764 54.5053 82.9154 54.6127C82.9544 54.7201 82.9709 54.8343 82.9641 54.9483C82.9541 55.1722 82.8586 55.3838 82.6972 55.5394C82.5359 55.6951 82.321 55.7829 82.0968 55.7848Z" fill="#407BFF"/>
<path id="Vector_25" d="M72.2575 55.7848C72.1433 55.785 72.0302 55.7618 71.9253 55.7167C71.8204 55.6716 71.7259 55.6054 71.6475 55.5223C71.5691 55.4393 71.5086 55.341 71.4696 55.2336C71.4307 55.1263 71.4141 55.0121 71.4209 54.8981C71.4322 54.6746 71.5282 54.4638 71.6892 54.3084C71.8503 54.153 72.0644 54.0648 72.2882 54.0615C72.4024 54.0613 72.5154 54.0845 72.6203 54.1296C72.7252 54.1748 72.8198 54.2409 72.8982 54.324C72.9765 54.4071 73.0371 54.5053 73.076 54.6127C73.115 54.7201 73.1316 54.8343 73.1247 54.9483C73.1147 55.1722 73.0192 55.3838 72.8579 55.5394C72.6965 55.6951 72.4817 55.7829 72.2575 55.7848Z" fill="#407BFF"/>
<path id="Vector_26" d="M62.4211 55.7848C62.3069 55.785 62.1938 55.7618 62.0889 55.7167C61.984 55.6716 61.8894 55.6054 61.8111 55.5223C61.7327 55.4393 61.6721 55.341 61.6332 55.2336C61.5942 55.1263 61.5777 55.0121 61.5845 54.8981C61.5965 54.6743 61.693 54.4635 61.8545 54.3082C62.016 54.1529 62.2305 54.0647 62.4545 54.0615C62.5687 54.0613 62.6818 54.0845 62.7867 54.1296C62.8916 54.1748 62.9862 54.2409 63.0645 54.324C63.1429 54.4071 63.2034 54.5053 63.2424 54.6127C63.2814 54.7201 63.2979 54.8343 63.2911 54.9483C63.2811 55.1727 63.1852 55.3847 63.0232 55.5404C62.8613 55.6961 62.6457 55.7836 62.4211 55.7848Z" fill="#407BFF"/>
<path id="Vector_27" d="M52.5788 55.7848C52.4646 55.785 52.3515 55.7618 52.2466 55.7167C52.1417 55.6716 52.0471 55.6054 51.9688 55.5223C51.8904 55.4393 51.8299 55.341 51.7909 55.2336C51.7519 55.1263 51.7354 55.0121 51.7422 54.8981C51.7529 54.6744 51.8486 54.4632 52.0098 54.3077C52.171 54.1522 52.3855 54.0641 52.6095 54.0615C52.7237 54.0613 52.8367 54.0845 52.9416 54.1296C53.0465 54.1748 53.1411 54.2409 53.2195 54.324C53.2978 54.4071 53.3584 54.5053 53.3973 54.6127C53.4363 54.7201 53.4529 54.8343 53.446 54.9483C53.4354 55.172 53.3396 55.3832 53.1784 55.5387C53.0172 55.6942 52.8027 55.7822 52.5788 55.7848Z" fill="#407BFF"/>
<path id="Vector_28" d="M42.7375 55.7848C42.6233 55.785 42.5102 55.7618 42.4053 55.7167C42.3004 55.6716 42.2058 55.6054 42.1275 55.5223C42.0491 55.4393 41.9886 55.341 41.9496 55.2336C41.9106 55.1263 41.8941 55.0121 41.9009 54.8981C41.9116 54.6744 42.0073 54.4632 42.1685 54.3077C42.3297 54.1522 42.5442 54.0641 42.7681 54.0615C42.8824 54.0613 42.9954 54.0845 43.1003 54.1296C43.2052 54.1748 43.2998 54.2409 43.3782 54.324C43.4565 54.4071 43.5171 54.5053 43.556 54.6127C43.595 54.7201 43.6115 54.8343 43.6047 54.9483C43.5947 55.1722 43.4992 55.3838 43.3379 55.5394C43.1765 55.6951 42.9616 55.7829 42.7375 55.7848Z" fill="#407BFF"/>
<g id="Group_2" opacity="0.1">
<path id="Vector_29" opacity="0.1" d="M91.9372 55.7838C91.823 55.784 91.7099 55.7609 91.605 55.7157C91.5001 55.6706 91.4056 55.6044 91.3272 55.5214C91.2488 55.4383 91.1883 55.34 91.1493 55.2327C91.1103 55.1253 91.0938 55.0111 91.1006 54.8971C91.1113 54.6734 91.207 54.4622 91.3682 54.3067C91.5294 54.1512 91.7439 54.0631 91.9679 54.0605C92.0821 54.0603 92.1951 54.0835 92.3 54.1287C92.4049 54.1738 92.4995 54.24 92.5779 54.323C92.6562 54.4061 92.7168 54.5044 92.7557 54.6117C92.7947 54.7191 92.8113 54.8333 92.8044 54.9473C92.7938 55.171 92.698 55.3822 92.5368 55.5377C92.3756 55.6932 92.1611 55.7813 91.9372 55.7838Z" fill="#FAFAFA"/>
<path id="Vector_30" opacity="0.1" d="M82.0959 55.7838C81.9817 55.784 81.8686 55.7609 81.7637 55.7157C81.6588 55.6706 81.5642 55.6044 81.4859 55.5214C81.4075 55.4383 81.3469 55.34 81.308 55.2327C81.269 55.1253 81.2525 55.0111 81.2593 54.8971C81.27 54.6734 81.3657 54.4622 81.5269 54.3067C81.6881 54.1512 81.9026 54.0631 82.1265 54.0605C82.2408 54.0603 82.3538 54.0835 82.4587 54.1287C82.5636 54.1738 82.6582 54.24 82.7366 54.323C82.8149 54.4061 82.8755 54.5044 82.9144 54.6117C82.9534 54.7191 82.9699 54.8333 82.9631 54.9473C82.9531 55.1712 82.8576 55.3828 82.6963 55.5385C82.5349 55.6941 82.32 55.7819 82.0959 55.7838Z" fill="#FAFAFA"/>
<path id="Vector_31" opacity="0.1" d="M72.2565 55.7838C72.1423 55.784 72.0293 55.7609 71.9243 55.7157C71.8194 55.6706 71.7249 55.6044 71.6465 55.5214C71.5681 55.4383 71.5076 55.34 71.4686 55.2327C71.4297 55.1253 71.4131 55.0111 71.42 54.8971C71.4313 54.6736 71.5272 54.4628 71.6882 54.3074C71.8493 54.1521 72.0634 54.0638 72.2872 54.0605C72.4014 54.0603 72.5144 54.0835 72.6193 54.1287C72.7243 54.1738 72.8188 54.24 72.8972 54.323C72.9756 54.4061 73.0361 54.5044 73.075 54.6117C73.114 54.7191 73.1306 54.8333 73.1237 54.9473C73.1137 55.1712 73.0182 55.3828 72.8569 55.5385C72.6956 55.6941 72.4807 55.7819 72.2565 55.7838Z" fill="#FAFAFA"/>
<path id="Vector_32" opacity="0.1" d="M62.4172 55.7838C62.3029 55.784 62.1899 55.7609 62.085 55.7157C61.9801 55.6706 61.8855 55.6044 61.8071 55.5214C61.7288 55.4383 61.6682 55.34 61.6293 55.2327C61.5903 55.1253 61.5738 55.0111 61.5806 54.8971C61.5926 54.6734 61.6891 54.4625 61.8506 54.3072C62.0121 54.1519 62.2266 54.0638 62.4506 54.0605C62.5648 54.0603 62.6779 54.0835 62.7828 54.1287C62.8877 54.1738 62.9823 54.24 63.0606 54.323C63.139 54.4061 63.1995 54.5044 63.2385 54.6117C63.2775 54.7191 63.294 54.8333 63.2872 54.9473C63.2772 55.1717 63.1813 55.3837 63.0193 55.5394C62.8574 55.6951 62.6418 55.7826 62.4172 55.7838Z" fill="#FAFAFA"/>
<path id="Vector_33" opacity="0.1" d="M52.5768 55.7838C52.4626 55.784 52.3496 55.7609 52.2447 55.7157C52.1397 55.6706 52.0452 55.6044 51.9668 55.5214C51.8884 55.4383 51.8279 55.34 51.7889 55.2327C51.75 55.1253 51.7334 55.0111 51.7403 54.8971C51.7509 54.6734 51.8466 54.4622 52.0078 54.3067C52.169 54.1512 52.3835 54.0631 52.6075 54.0605C52.7217 54.0603 52.8347 54.0835 52.9397 54.1287C53.0446 54.1738 53.1391 54.24 53.2175 54.323C53.2959 54.4061 53.3564 54.5044 53.3954 54.6117C53.4343 54.7191 53.4509 54.8333 53.444 54.9473C53.4334 55.171 53.3377 55.3822 53.1765 55.5377C53.0153 55.6932 52.8008 55.7813 52.5768 55.7838Z" fill="#FAFAFA"/>
<path id="Vector_34" opacity="0.1" d="M42.7375 55.7848C42.6233 55.785 42.5102 55.7618 42.4053 55.7167C42.3004 55.6716 42.2058 55.6054 42.1275 55.5223C42.0491 55.4393 41.9886 55.341 41.9496 55.2336C41.9106 55.1263 41.8941 55.0121 41.9009 54.8981C41.9116 54.6744 42.0073 54.4632 42.1685 54.3077C42.3297 54.1522 42.5442 54.0641 42.7681 54.0615C42.8824 54.0613 42.9954 54.0845 43.1003 54.1296C43.2052 54.1748 43.2998 54.2409 43.3782 54.324C43.4565 54.4071 43.5171 54.5053 43.556 54.6127C43.595 54.7201 43.6115 54.8343 43.6047 54.9483C43.5947 55.1722 43.4992 55.3838 43.3379 55.5394C43.1765 55.6951 42.9616 55.7829 42.7375 55.7848Z" fill="#FAFAFA"/>
</g>
<path id="Vector_35" d="M45.1976 58.9015H40.248C40.1763 58.9021 40.1052 58.8878 40.0392 58.8595C39.9733 58.8312 39.9139 58.7896 39.8649 58.7371C39.8159 58.6847 39.7783 58.6227 39.7545 58.555C39.7307 58.4873 39.7212 58.4154 39.7266 58.3438C39.7321 58.1977 39.7926 58.059 39.896 57.9556C39.9995 57.8522 40.1381 57.7917 40.2843 57.7862H45.2338C45.3056 57.7856 45.3767 57.7999 45.4426 57.8282C45.5086 57.8565 45.5679 57.8982 45.617 57.9506C45.666 58.003 45.7036 58.065 45.7274 58.1327C45.7512 58.2004 45.7607 58.2723 45.7553 58.3438C45.7498 58.49 45.6892 58.6287 45.5858 58.7321C45.4824 58.8355 45.3437 58.896 45.1976 58.9015Z" fill="#407BFF"/>
<path id="Vector_36" d="M55.0389 58.9015H50.0893C50.0176 58.9021 49.9465 58.8878 49.8805 58.8595C49.8146 58.8312 49.7552 58.7896 49.7062 58.7371C49.6572 58.6847 49.6196 58.6227 49.5958 58.555C49.572 58.4873 49.5625 58.4154 49.5679 58.3438C49.5736 58.1954 49.6361 58.0547 49.7424 57.9509C49.8488 57.8472 49.9909 57.7882 50.1395 57.7861H55.0863C55.1582 57.7856 55.2294 57.7999 55.2955 57.8282C55.3615 57.8564 55.4211 57.8981 55.4703 57.9504C55.5195 58.0028 55.5574 58.0648 55.5815 58.1325C55.6057 58.2002 55.6155 58.2721 55.6105 58.3438C55.6048 58.4923 55.5424 58.633 55.436 58.7368C55.3296 58.8405 55.1875 58.8995 55.0389 58.9015Z" fill="#407BFF"/>
<path id="Vector_37" d="M64.8784 58.9015H59.9288C59.8569 58.9021 59.7857 58.8878 59.7197 58.8595C59.6536 58.8313 59.5941 58.7896 59.5448 58.7373C59.4956 58.6849 59.4577 58.6229 59.4336 58.5552C59.4095 58.4875 59.3996 58.4156 59.4046 58.3438C59.4103 58.1954 59.4728 58.0547 59.5791 57.951C59.6855 57.8472 59.8276 57.7882 59.9762 57.7862H64.9286C65.0003 57.7856 65.0714 57.7999 65.1374 57.8282C65.2033 57.8565 65.2627 57.8982 65.3117 57.9506C65.3607 58.003 65.3983 58.065 65.4221 58.1327C65.4459 58.2004 65.4554 58.2723 65.45 58.3438C65.445 58.4926 65.3827 58.6336 65.2762 58.7375C65.1697 58.8414 65.0272 58.9002 64.8784 58.9015Z" fill="#407BFF"/>
<path id="Vector_38" d="M74.7166 58.9015H69.7671C69.6953 58.9021 69.6242 58.8878 69.5583 58.8595C69.4923 58.8312 69.433 58.7896 69.3839 58.7371C69.3349 58.6847 69.2973 58.6227 69.2735 58.555C69.2497 58.4873 69.2402 58.4154 69.2456 58.3438C69.2511 58.1977 69.3117 58.059 69.4151 57.9556C69.5185 57.8522 69.6572 57.7917 69.8033 57.7862H74.7529C74.8246 57.7856 74.8957 57.7999 74.9617 57.8282C75.0276 57.8565 75.087 57.8982 75.136 57.9506C75.185 58.003 75.2226 58.065 75.2464 58.1327C75.2702 58.2004 75.2797 58.2723 75.2743 58.3438C75.2688 58.49 75.2083 58.6287 75.1049 58.7321C75.0015 58.8355 74.8628 58.896 74.7166 58.9015Z" fill="#407BFF"/>
<path id="Vector_39" d="M84.558 58.9015H79.6084C79.5366 58.9021 79.4655 58.8878 79.3996 58.8595C79.3336 58.8312 79.2743 58.7896 79.2253 58.7371C79.1762 58.6847 79.1386 58.6227 79.1148 58.555C79.091 58.4873 79.0815 58.4154 79.0869 58.3438C79.0926 58.1954 79.1551 58.0547 79.2615 57.951C79.3678 57.8472 79.51 57.7882 79.6586 57.7862H84.6081C84.6799 57.7856 84.751 57.7999 84.817 57.8282C84.8829 57.8565 84.9422 57.8982 84.9913 57.9506C85.0403 58.003 85.0779 58.065 85.1017 58.1327C85.1255 58.2004 85.135 58.2723 85.1296 58.3438C85.1239 58.4923 85.0614 58.633 84.955 58.7368C84.8487 58.8405 84.7065 58.8995 84.558 58.9015Z" fill="#407BFF"/>
<path id="Vector_40" d="M94.3973 58.9015H89.4477C89.376 58.9021 89.3049 58.8878 89.2389 58.8595C89.173 58.8312 89.1136 58.7896 89.0646 58.7371C89.0156 58.6847 88.978 58.6227 88.9542 58.555C88.9304 58.4873 88.9209 58.4154 88.9263 58.3438C88.932 58.1954 88.9945 58.0547 89.1008 57.9509C89.2072 57.8472 89.3493 57.7882 89.4979 57.7861H94.4447C94.5166 57.7856 94.5878 57.7999 94.6539 57.8282C94.7199 57.8564 94.7795 57.8981 94.8287 57.9504C94.8779 58.0028 94.9158 58.0648 94.9399 58.1325C94.9641 58.2002 94.9739 58.2721 94.9689 58.3438C94.9632 58.4923 94.9007 58.633 94.7944 58.7368C94.688 58.8405 94.5459 58.8995 94.3973 58.9015Z" fill="#407BFF"/>
<g id="Group_3">
<path id="Vector_41" opacity="0.3" d="M45.1976 58.9025H40.248C40.1763 58.9031 40.1052 58.8888 40.0392 58.8605C39.9733 58.8322 39.9139 58.7905 39.8649 58.7381C39.8159 58.6857 39.7783 58.6237 39.7545 58.556C39.7307 58.4883 39.7212 58.4164 39.7266 58.3448C39.7321 58.1987 39.7926 58.06 39.896 57.9566C39.9995 57.8532 40.1381 57.7926 40.2843 57.7871H45.2338C45.3056 57.7865 45.3767 57.8008 45.4426 57.8291C45.5086 57.8574 45.5679 57.8991 45.617 57.9515C45.666 58.004 45.7036 58.066 45.7274 58.1337C45.7512 58.2014 45.7607 58.2733 45.7553 58.3448C45.7498 58.491 45.6892 58.6296 45.5858 58.7331C45.4824 58.8365 45.3437 58.897 45.1976 58.9025Z" fill="#224FB8"/>
<path id="Vector_42" opacity="0.3" d="M55.0389 58.9015H50.0893C50.0176 58.9021 49.9465 58.8878 49.8805 58.8595C49.8146 58.8312 49.7552 58.7896 49.7062 58.7371C49.6572 58.6847 49.6196 58.6227 49.5958 58.555C49.572 58.4873 49.5625 58.4154 49.5679 58.3438C49.5736 58.1954 49.6361 58.0547 49.7424 57.9509C49.8488 57.8472 49.9909 57.7882 50.1395 57.7861H55.0863C55.1582 57.7856 55.2294 57.7999 55.2955 57.8282C55.3615 57.8564 55.4211 57.8981 55.4703 57.9504C55.5195 58.0028 55.5574 58.0648 55.5815 58.1325C55.6057 58.2002 55.6155 58.2721 55.6105 58.3438C55.6048 58.4923 55.5424 58.633 55.436 58.7368C55.3296 58.8405 55.1875 58.8995 55.0389 58.9015Z" fill="#224FB8"/>
<path id="Vector_43" opacity="0.3" d="M64.8798 58.9015H59.9303C59.8584 58.9021 59.7872 58.8878 59.7211 58.8595C59.655 58.8313 59.5955 58.7896 59.5463 58.7373C59.4971 58.6849 59.4592 58.6229 59.4351 58.5552C59.4109 58.4875 59.401 58.4156 59.406 58.3438C59.4117 58.1954 59.4742 58.0547 59.5806 57.951C59.687 57.8472 59.8291 57.7882 59.9777 57.7862H64.93C65.0018 57.7856 65.0729 57.7999 65.1388 57.8282C65.2048 57.8565 65.2641 57.8982 65.3132 57.9506C65.3622 58.003 65.3998 58.065 65.4236 58.1327C65.4474 58.2004 65.4569 58.2723 65.4515 58.3438C65.4465 58.4926 65.3842 58.6336 65.2777 58.7375C65.1712 58.8414 65.0286 58.9002 64.8798 58.9015Z" fill="#224FB8"/>
<path id="Vector_44" opacity="0.3" d="M74.7186 58.9015H69.769C69.6973 58.9021 69.6262 58.8878 69.5602 58.8595C69.4943 58.8312 69.4349 58.7896 69.3859 58.7371C69.3369 58.6847 69.2993 58.6227 69.2755 58.555C69.2517 58.4873 69.2422 58.4154 69.2476 58.3438C69.2531 58.1977 69.3136 58.059 69.417 57.9556C69.5204 57.8522 69.6591 57.7917 69.8053 57.7862H74.7548C74.8266 57.7856 74.8977 57.7999 74.9636 57.8282C75.0296 57.8565 75.0889 57.8982 75.138 57.9506C75.187 58.003 75.2246 58.065 75.2484 58.1327C75.2722 58.2004 75.2817 58.2723 75.2763 58.3438C75.2708 58.49 75.2102 58.6287 75.1068 58.7321C75.0034 58.8355 74.8647 58.896 74.7186 58.9015Z" fill="#224FB8"/>
<path id="Vector_45" opacity="0.3" d="M84.5589 58.9015H79.6094C79.5376 58.9021 79.4665 58.8878 79.4005 58.8595C79.3346 58.8312 79.2752 58.7896 79.2262 58.7371C79.1772 58.6847 79.1396 58.6227 79.1158 58.555C79.092 58.4873 79.0825 58.4154 79.0879 58.3438C79.0936 58.1954 79.1561 58.0547 79.2625 57.951C79.3688 57.8472 79.511 57.7882 79.6595 57.7862H84.6091C84.6809 57.7856 84.752 57.7999 84.8179 57.8282C84.8839 57.8565 84.9432 57.8982 84.9922 57.9506C85.0412 58.003 85.0788 58.065 85.1027 58.1327C85.1265 58.2004 85.136 58.2723 85.1306 58.3438C85.1249 58.4923 85.0624 58.633 84.956 58.7368C84.8497 58.8405 84.7075 58.8995 84.5589 58.9015Z" fill="#224FB8"/>
<path id="Vector_46" opacity="0.3" d="M94.3992 58.9015H89.4497C89.3779 58.9021 89.3068 58.8878 89.2409 58.8595C89.1749 58.8312 89.1156 58.7896 89.0666 58.7371C89.0176 58.6847 88.98 58.6227 88.9561 58.555C88.9323 58.4873 88.9228 58.4154 88.9282 58.3438C88.9339 58.1954 88.9964 58.0547 89.1028 57.9509C89.2091 57.8472 89.3513 57.7882 89.4999 57.7861H94.4467C94.5185 57.7856 94.5897 57.7999 94.6558 57.8282C94.7219 57.8564 94.7814 57.8981 94.8306 57.9504C94.8799 58.0028 94.9177 58.0648 94.9419 58.1325C94.966 58.2002 94.9759 58.2721 94.9709 58.3438C94.9652 58.4923 94.9027 58.633 94.7963 58.7368C94.69 58.8405 94.5478 58.8995 94.3992 58.9015Z" fill="#224FB8"/>
</g>
<path id="Vector_47" d="M45.4702 69.4349H39.0233C38.8819 69.4355 38.7418 69.4072 38.6117 69.3518C38.4816 69.2965 38.3642 69.2151 38.2666 69.1128C38.169 69.0105 38.0932 68.8894 38.044 68.7568C37.9948 68.6243 37.9732 68.4831 37.9804 68.3418L38.2592 61.8949C38.2761 61.6018 38.4035 61.3261 38.6156 61.1232C38.8278 60.9204 39.109 60.8055 39.4025 60.8018H45.8495C45.9909 60.8012 46.1309 60.8295 46.261 60.8849C46.3911 60.9402 46.5085 61.0216 46.6062 61.1239C46.7038 61.2262 46.7795 61.3473 46.8287 61.4799C46.8779 61.6124 46.8996 61.7536 46.8924 61.8949L46.6135 68.3418C46.596 68.6347 46.4684 68.91 46.2564 69.1127C46.0444 69.3154 45.7635 69.4305 45.4702 69.4349Z" fill="#407BFF"/>
<path id="Vector_48" d="M55.3127 69.4349H48.8657C48.7242 69.4359 48.584 69.4079 48.4537 69.3526C48.3234 69.2974 48.2058 69.2161 48.1081 69.1137C48.0104 69.0113 47.9347 68.89 47.8856 68.7573C47.8366 68.6245 47.8152 68.4831 47.8228 68.3418L48.1016 61.8948C48.1186 61.6018 48.2459 61.3261 48.4581 61.1232C48.6702 60.9204 48.9514 60.8055 49.2449 60.8018H55.7003C55.8418 60.8012 55.9819 60.8295 56.1122 60.8848C56.2424 60.9402 56.36 61.0215 56.4579 61.1237C56.5557 61.226 56.6317 61.3471 56.6812 61.4797C56.7307 61.6122 56.7528 61.7535 56.746 61.8948L56.4532 68.3418C56.4369 68.6346 56.3102 68.9103 56.0985 69.1132C55.8867 69.3162 55.6059 69.4311 55.3127 69.4349Z" fill="#407BFF"/>
<path id="Vector_49" d="M65.1488 69.4349H58.7046C58.5631 69.4355 58.4229 69.4072 58.2927 69.3519C58.1625 69.2965 58.0448 69.2152 57.947 69.113C57.8492 69.0107 57.7732 68.8896 57.7237 68.757C57.6741 68.6245 57.6521 68.4832 57.6589 68.3418L57.9378 61.8949C57.9547 61.6018 58.0821 61.3261 58.2942 61.1232C58.5064 60.9204 58.7876 60.8055 59.0811 60.8018H65.5253C65.6668 60.8008 65.807 60.8288 65.9373 60.8841C66.0676 60.9393 66.1852 61.0206 66.2829 61.123C66.3806 61.2254 66.4563 61.3467 66.5053 61.4794C66.5544 61.6122 66.5758 61.7536 66.5682 61.8949L66.2893 68.3418C66.2724 68.6344 66.1455 68.9097 65.9339 69.1125C65.7223 69.3153 65.4418 69.4305 65.1488 69.4349Z" fill="#407BFF"/>
<path id="Vector_50" d="M74.9892 69.4349H68.5534C68.4118 69.4359 68.2714 69.4079 68.141 69.3527C68.0106 69.2974 67.8928 69.2162 67.7949 69.1138C67.697 69.0115 67.621 68.8902 67.5716 68.7575C67.5222 68.6247 67.5005 68.4833 67.5077 68.3418L67.7865 61.8948C67.8028 61.6021 67.9296 61.3263 68.1413 61.1234C68.353 60.9205 68.6338 60.8056 68.927 60.8018H75.374C75.5154 60.8012 75.6555 60.8295 75.7856 60.8849C75.9157 60.9402 76.0331 61.0216 76.1307 61.1239C76.2283 61.2262 76.304 61.3473 76.3532 61.4799C76.4025 61.6124 76.4241 61.7536 76.4169 61.8948L76.1381 68.3418C76.1211 68.6358 75.9929 68.9124 75.7796 69.1153C75.5662 69.3183 75.2837 69.4326 74.9892 69.4349Z" fill="#407BFF"/>
<path id="Vector_51" d="M84.8306 69.4349H78.3836C78.2422 69.4355 78.1022 69.4072 77.9721 69.3518C77.842 69.2965 77.7245 69.2151 77.6269 69.1128C77.5293 69.0105 77.4536 68.8894 77.4044 68.7568C77.3552 68.6243 77.3335 68.4831 77.3407 68.3418L77.6196 61.8949C77.6365 61.6018 77.7638 61.3261 77.976 61.1232C78.1882 60.9204 78.4693 60.8055 78.7628 60.8018H85.207C85.3487 60.8008 85.489 60.8288 85.6194 60.884C85.7499 60.9393 85.8676 61.0205 85.9655 61.1229C86.0634 61.2252 86.1394 61.3465 86.1888 61.4792C86.2382 61.612 86.2599 61.7534 86.2527 61.8949L85.9739 68.3418C85.9563 68.6347 85.8287 68.91 85.6167 69.1127C85.4047 69.3154 85.1239 69.4305 84.8306 69.4349Z" fill="#407BFF"/>
<path id="Vector_52" d="M94.6683 69.4349H88.2241C88.0826 69.4359 87.9424 69.4079 87.8121 69.3526C87.6818 69.2974 87.5642 69.2161 87.4665 69.1137C87.3688 69.0113 87.2931 68.89 87.244 68.7573C87.195 68.6245 87.1736 68.4831 87.1812 68.3418L87.46 61.8948C87.4769 61.6018 87.6043 61.3261 87.8165 61.1232C88.0286 60.9204 88.3098 60.8055 88.6033 60.8018H95.0475C95.189 60.8012 95.3292 60.8295 95.4594 60.8848C95.5897 60.9402 95.7073 61.0215 95.8051 61.1237C95.903 61.226 95.9789 61.3471 96.0285 61.4797C96.078 61.6122 96.1 61.7535 96.0932 61.8948L95.8004 68.3418C95.7843 68.6332 95.6587 68.9077 95.4488 69.1104C95.2388 69.3131 94.9601 69.429 94.6683 69.4349Z" fill="#407BFF"/>
<g id="Group_4" opacity="0.75">
<path id="Vector_53" opacity="0.8" d="M45.4702 69.4359H39.0233C38.8819 69.4365 38.7418 69.4082 38.6117 69.3528C38.4816 69.2974 38.3642 69.2161 38.2666 69.1138C38.169 69.0115 38.0932 68.8904 38.044 68.7578C37.9948 68.6252 37.9732 68.484 37.9804 68.3428L38.2592 61.8958C38.2761 61.6028 38.4035 61.3271 38.6156 61.1242C38.8278 60.9214 39.109 60.8065 39.4025 60.8027H45.8495C45.9909 60.8022 46.1309 60.8304 46.261 60.8858C46.3911 60.9412 46.5085 61.0225 46.6062 61.1249C46.7038 61.2272 46.7795 61.3483 46.8287 61.4809C46.8779 61.6134 46.8996 61.7546 46.8924 61.8958L46.6135 68.3428C46.596 68.6356 46.4684 68.911 46.2564 69.1137C46.0444 69.3164 45.7635 69.4315 45.4702 69.4359Z" fill="#FAFAFA"/>
<path id="Vector_54" opacity="0.8" d="M55.3107 69.4349H48.8637C48.7222 69.4359 48.582 69.4079 48.4517 69.3526C48.3214 69.2974 48.2038 69.2161 48.1061 69.1137C48.0084 69.0113 47.9327 68.89 47.8837 68.7573C47.8346 68.6245 47.8132 68.4831 47.8208 68.3418L48.0997 61.8948C48.1166 61.6018 48.244 61.3261 48.4561 61.1232C48.6683 60.9204 48.9495 60.8055 49.243 60.8018H55.6983C55.8398 60.8012 55.98 60.8295 56.1102 60.8848C56.2405 60.9402 56.3581 61.0215 56.4559 61.1237C56.5537 61.226 56.6297 61.3471 56.6793 61.4797C56.7288 61.6122 56.7508 61.7535 56.744 61.8948L56.4512 68.3418C56.435 68.6346 56.3082 68.9103 56.0965 69.1132C55.8848 69.3162 55.6039 69.4311 55.3107 69.4349Z" fill="#FAFAFA"/>
<path id="Vector_55" opacity="0.8" d="M65.1488 69.4349H58.7046C58.5631 69.4355 58.4229 69.4072 58.2927 69.3519C58.1625 69.2965 58.0448 69.2152 57.947 69.113C57.8492 69.0107 57.7732 68.8896 57.7237 68.757C57.6741 68.6245 57.6521 68.4832 57.6589 68.3418L57.9378 61.8949C57.9547 61.6018 58.0821 61.3261 58.2942 61.1232C58.5064 60.9204 58.7876 60.8055 59.0811 60.8018H65.5253C65.6668 60.8008 65.807 60.8288 65.9373 60.8841C66.0676 60.9393 66.1852 61.0206 66.2829 61.123C66.3806 61.2254 66.4563 61.3467 66.5053 61.4794C66.5544 61.6122 66.5758 61.7536 66.5682 61.8949L66.2893 68.3418C66.2724 68.6344 66.1455 68.9097 65.9339 69.1125C65.7223 69.3153 65.4418 69.4305 65.1488 69.4349Z" fill="#FAFAFA"/>
<path id="Vector_56" opacity="0.8" d="M74.9897 69.4349H68.5539C68.4122 69.4359 68.2719 69.4079 68.1415 69.3527C68.011 69.2974 67.8933 69.2162 67.7954 69.1138C67.6975 69.0115 67.6215 68.8902 67.5721 68.7575C67.5227 68.6247 67.501 68.4833 67.5082 68.3418L67.787 61.8948C67.8033 61.6021 67.93 61.3263 68.1418 61.1234C68.3535 60.9205 68.6343 60.8056 68.9275 60.8018H75.3745C75.5159 60.8012 75.6559 60.8295 75.786 60.8849C75.9161 60.9402 76.0336 61.0216 76.1312 61.1239C76.2288 61.2262 76.3045 61.3473 76.3537 61.4799C76.4029 61.6124 76.4246 61.7536 76.4174 61.8948L76.1386 68.3418C76.1216 68.6358 75.9934 68.9124 75.7801 69.1153C75.5667 69.3183 75.2842 69.4326 74.9897 69.4349Z" fill="#FAFAFA"/>
<path id="Vector_57" opacity="0.8" d="M84.8296 69.4349H78.3826C78.2412 69.4355 78.1012 69.4072 77.9711 69.3518C77.841 69.2965 77.7235 69.2151 77.6259 69.1128C77.5283 69.0105 77.4526 68.8894 77.4034 68.7568C77.3542 68.6243 77.3325 68.4831 77.3397 68.3418L77.6186 61.8949C77.6355 61.6018 77.7629 61.3261 77.975 61.1232C78.1872 60.9204 78.4683 60.8055 78.7619 60.8018H85.2061C85.3477 60.8008 85.488 60.8288 85.6184 60.884C85.7489 60.9393 85.8667 61.0205 85.9646 61.1229C86.0625 61.2252 86.1384 61.3465 86.1878 61.4792C86.2372 61.612 86.259 61.7534 86.2517 61.8949L85.9729 68.3418C85.9553 68.6347 85.8278 68.91 85.6157 69.1127C85.4037 69.3154 85.1229 69.4305 84.8296 69.4349Z" fill="#FAFAFA"/>
<path id="Vector_58" opacity="0.8" d="M94.6673 69.4349H88.2231C88.0816 69.4359 87.9414 69.4079 87.8111 69.3526C87.6808 69.2974 87.5632 69.2161 87.4655 69.1137C87.3678 69.0113 87.2921 68.89 87.243 68.7573C87.194 68.6245 87.1726 68.4831 87.1802 68.3418L87.4591 61.8948C87.476 61.6018 87.6034 61.3261 87.8155 61.1232C88.0277 60.9204 88.3088 60.8055 88.6023 60.8018H95.0466C95.1881 60.8012 95.3282 60.8295 95.4585 60.8848C95.5887 60.9402 95.7063 61.0215 95.8041 61.1237C95.902 61.226 95.978 61.3471 96.0275 61.4797C96.077 61.6122 96.099 61.7535 96.0922 61.8948L95.7994 68.3418C95.7833 68.6332 95.6577 68.9077 95.4478 69.1104C95.2379 69.3131 94.9591 69.429 94.6673 69.4349Z" fill="#FAFAFA"/>
</g>
<path id="Vector_59" d="M45.0191 79.4379H38.5721C38.4307 79.4384 38.2907 79.4101 38.1606 79.3548C38.0304 79.2994 37.913 79.2181 37.8154 79.1157C37.7178 79.0134 37.6421 78.8923 37.5929 78.7597C37.5436 78.6272 37.522 78.486 37.5292 78.3448L37.808 71.8978C37.8256 71.605 37.9532 71.3296 38.1652 71.1269C38.3772 70.9242 38.658 70.8091 38.9513 70.8047H45.4095C45.5509 70.8041 45.6909 70.8324 45.821 70.8878C45.9511 70.9432 46.0685 71.0245 46.1661 71.1268C46.2637 71.2291 46.3395 71.3502 46.3887 71.4828C46.4379 71.6154 46.4596 71.7566 46.4524 71.8978L46.1735 78.3448C46.1558 78.6395 46.0267 78.9164 45.8123 79.1194C45.5979 79.3224 45.3143 79.4363 45.0191 79.4379Z" fill="#407BFF"/>
<path id="Vector_60" d="M54.8584 79.4379H48.4114C48.27 79.4384 48.13 79.4102 47.9999 79.3548C47.8698 79.2994 47.7524 79.2181 47.6548 79.1158C47.5571 79.0135 47.4814 78.8923 47.4322 78.7598C47.383 78.6272 47.3613 78.486 47.3685 78.3448L47.6474 71.8978C47.6643 71.6048 47.7917 71.329 48.0038 71.1262C48.216 70.9233 48.4972 70.8085 48.7907 70.8047H55.2349C55.3776 70.8037 55.519 70.832 55.6504 70.8879C55.7818 70.9437 55.9003 71.026 55.9985 71.1295C56.0968 71.233 56.1728 71.3556 56.2218 71.4897C56.2708 71.6238 56.2917 71.7665 56.2833 71.909L56.0045 78.3448C55.9882 78.6385 55.8606 78.915 55.6477 79.1181C55.4348 79.3212 55.1526 79.4355 54.8584 79.4379Z" fill="#407BFF"/>
<path id="Vector_61" d="M64.6976 79.4379H58.2534C58.1119 79.4388 57.9717 79.4108 57.8414 79.3556C57.7111 79.3003 57.5935 79.219 57.4958 79.1166C57.3981 79.0142 57.3224 78.8929 57.2733 78.7602C57.2243 78.6275 57.2029 78.4861 57.2105 78.3448L57.4893 71.8978C57.5062 71.6048 57.6336 71.329 57.8458 71.1262C58.0579 70.9233 58.3391 70.8085 58.6326 70.8047H65.0768C65.2183 70.8037 65.3585 70.8317 65.4888 70.887C65.6191 70.9422 65.7367 71.0235 65.8344 71.1259C65.9321 71.2283 66.0078 71.3496 66.0569 71.4824C66.1059 71.6151 66.1273 71.7565 66.1197 71.8978L65.8409 78.3448C65.8239 78.6378 65.6966 78.9136 65.4844 79.1164C65.2723 79.3192 64.9911 79.4341 64.6976 79.4379Z" fill="#407BFF"/>
<path id="Vector_62" d="M74.5389 79.438H68.0947C67.9532 79.4385 67.8131 79.4103 67.6828 79.3549C67.5526 79.2996 67.435 79.2183 67.3372 79.116C67.2393 79.0138 67.1633 78.8927 67.1138 78.7601C67.0643 78.6275 67.0422 78.4863 67.0491 78.3449L67.3279 71.8979C67.3441 71.6051 67.4709 71.3294 67.6826 71.1265C67.8943 70.9236 68.1752 70.8086 68.4684 70.8049H74.9154C75.059 70.8023 75.2015 70.8294 75.334 70.8846C75.4666 70.9399 75.5863 71.0219 75.6855 71.1256C75.7848 71.2294 75.8615 71.3525 75.9109 71.4874C75.9602 71.6222 75.9811 71.7658 75.9722 71.9091L75.6934 78.3561C75.6736 78.649 75.5435 78.9236 75.3292 79.1244C75.115 79.3252 74.8326 79.4373 74.5389 79.438Z" fill="#407BFF"/>
<path id="Vector_63" d="M84.3794 79.4383H77.9324C77.791 79.4388 77.651 79.4106 77.5209 79.3552C77.3908 79.2998 77.2734 79.2185 77.1757 79.1162C77.0781 79.0139 77.0024 78.8927 76.9532 78.7602C76.904 78.6276 76.8823 78.4864 76.8895 78.3452L77.1684 71.8982C77.1832 71.6029 77.31 71.3244 77.5229 71.1193C77.7358 70.9142 78.0188 70.7978 78.3144 70.794H84.7614C84.9028 70.7934 85.0429 70.8217 85.173 70.8771C85.3031 70.9324 85.4205 71.0138 85.5181 71.1161C85.6157 71.2184 85.6914 71.3395 85.7407 71.4721C85.7899 71.6046 85.8115 71.7458 85.8043 71.887L85.5255 78.334C85.5106 78.6293 85.3839 78.9078 85.171 79.1129C84.9581 79.3181 84.675 79.4344 84.3794 79.4383Z" fill="#407BFF"/>
<path id="Vector_64" d="M94.2068 79.4379H87.771C87.6295 79.4388 87.4892 79.4108 87.3589 79.3556C87.2287 79.3003 87.111 79.219 87.0134 79.1166C86.9157 79.0142 86.84 78.8929 86.7909 78.7602C86.7418 78.6275 86.7205 78.4861 86.7281 78.3448L87.0069 71.8978C87.0238 71.6047 87.1512 71.329 87.3634 71.1262C87.5755 70.9233 87.8567 70.8084 88.1502 70.8047H94.5944C94.7359 70.8042 94.8761 70.8324 95.0063 70.8878C95.1366 70.9431 95.2542 71.0244 95.352 71.1267C95.4498 71.2289 95.5258 71.35 95.5753 71.4826C95.6249 71.6152 95.6469 71.7564 95.6401 71.8978L95.3473 78.3448C95.3311 78.6376 95.2043 78.9133 94.9926 79.1162C94.7809 79.3191 94.5 79.4341 94.2068 79.4379Z" fill="#407BFF"/>
<g id="Group_5" opacity="0.75">
<path id="Vector_65" opacity="0.8" d="M45.0181 79.4379H38.5711C38.4297 79.4384 38.2897 79.4101 38.1596 79.3548C38.0295 79.2994 37.912 79.2181 37.8144 79.1157C37.7168 79.0134 37.6411 78.8923 37.5919 78.7597C37.5427 78.6272 37.521 78.486 37.5282 78.3448L37.8071 71.8978C37.8246 71.605 37.9522 71.3296 38.1642 71.1269C38.3762 70.9242 38.657 70.8091 38.9503 70.8047H45.4085C45.5499 70.8041 45.6899 70.8324 45.82 70.8878C45.9501 70.9432 46.0676 71.0245 46.1652 71.1268C46.2628 71.2291 46.3385 71.3502 46.3877 71.4828C46.4369 71.6154 46.4586 71.7566 46.4514 71.8978L46.1725 78.3448C46.1548 78.6395 46.0257 78.9164 45.8113 79.1194C45.5969 79.3224 45.3133 79.4363 45.0181 79.4379Z" fill="#FAFAFA"/>
<path id="Vector_66" opacity="0.8" d="M54.8594 79.4359H48.4124C48.271 79.4365 48.131 79.4082 48.0009 79.3528C47.8708 79.2974 47.7533 79.2161 47.6557 79.1138C47.5581 79.0115 47.4824 78.8904 47.4332 78.7578C47.384 78.6253 47.3623 78.4841 47.3695 78.3428L47.6484 71.8958C47.6653 71.6028 47.7926 71.3271 48.0048 71.1242C48.217 70.9214 48.4981 70.8065 48.7916 70.8028H55.2358C55.3786 70.8017 55.52 70.8301 55.6514 70.8859C55.7827 70.9418 55.9012 71.024 55.9995 71.1275C56.0978 71.2311 56.1738 71.3536 56.2228 71.4877C56.2718 71.6218 56.2927 71.7645 56.2843 71.907L56.0055 78.3428C55.9892 78.6366 55.8616 78.9131 55.6487 79.1161C55.4358 79.3192 55.1536 79.4335 54.8594 79.4359Z" fill="#FAFAFA"/>
<path id="Vector_67" opacity="0.8" d="M64.6961 79.4359H58.2519C58.1104 79.4369 57.9702 79.4089 57.8399 79.3536C57.7096 79.2984 57.592 79.2171 57.4943 79.1147C57.3966 79.0123 57.3209 78.891 57.2719 78.7583C57.2228 78.6255 57.2014 78.4841 57.209 78.3428L57.4879 71.8958C57.5048 71.6028 57.6322 71.3271 57.8443 71.1242C58.0565 70.9214 58.3376 70.8065 58.6311 70.8028H65.0753C65.2169 70.8018 65.3571 70.8298 65.4874 70.885C65.6177 70.9403 65.7353 71.0216 65.833 71.124C65.9306 71.2264 66.0063 71.3477 66.0554 71.4804C66.1045 71.6132 66.1259 71.7545 66.1182 71.8958L65.8394 78.3428C65.8225 78.6359 65.6951 78.9116 65.483 79.1144C65.2708 79.3173 64.9896 79.4322 64.6961 79.4359Z" fill="#FAFAFA"/>
<path id="Vector_68" opacity="0.8" d="M74.537 79.4361H68.0928C67.9513 79.4366 67.8111 79.4083 67.6809 79.353C67.5506 79.2976 67.433 79.2163 67.3352 79.1141C67.2374 79.0118 67.1614 78.8907 67.1119 78.7582C67.0623 78.6256 67.0403 78.4843 67.0471 78.343L67.326 71.896C67.3422 71.6032 67.469 71.3275 67.6807 71.1246C67.8924 70.9217 68.1732 70.8067 68.4664 70.8029H74.9134C75.057 70.8003 75.1995 70.8275 75.3321 70.8827C75.4646 70.9379 75.5843 71.0199 75.6836 71.1237C75.7829 71.2274 75.8596 71.3506 75.9089 71.4854C75.9583 71.6202 75.9792 71.7638 75.9703 71.9071L75.6914 78.3541C75.6717 78.6471 75.5415 78.9217 75.3273 79.1224C75.113 79.3232 74.8306 79.4353 74.537 79.4361Z" fill="#FAFAFA"/>
<path id="Vector_69" opacity="0.8" d="M84.3765 79.4373H77.9295C77.7881 79.4379 77.6481 79.4096 77.518 79.3542C77.3879 79.2988 77.2704 79.2175 77.1728 79.1152C77.0752 79.0129 76.9995 78.8918 76.9503 78.7592C76.9011 78.6266 76.8794 78.4854 76.8866 78.3442L77.1655 71.8972C77.1803 71.602 77.3071 71.3234 77.52 71.1183C77.7329 70.9132 78.0159 70.7969 78.3115 70.793H84.7585C84.8999 70.7924 85.0399 70.8207 85.17 70.8761C85.3001 70.9315 85.4176 71.0128 85.5152 71.1151C85.6128 71.2174 85.6885 71.3385 85.7377 71.4711C85.787 71.6036 85.8086 71.7449 85.8014 71.8861L85.5226 78.3331C85.5077 78.6283 85.3809 78.9068 85.168 79.112C84.9551 79.3171 84.6721 79.4334 84.3765 79.4373Z" fill="#FAFAFA"/>
<path id="Vector_70" opacity="0.8" d="M94.2068 79.4359H87.771C87.6295 79.4369 87.4892 79.4089 87.3589 79.3536C87.2287 79.2984 87.111 79.2171 87.0134 79.1147C86.9157 79.0123 86.84 78.891 86.7909 78.7582C86.7418 78.6255 86.7205 78.4841 86.7281 78.3428L87.0069 71.8958C87.0238 71.6028 87.1512 71.3271 87.3634 71.1242C87.5755 70.9214 87.8567 70.8065 88.1502 70.8027H94.5944C94.7359 70.8022 94.8761 70.8305 95.0063 70.8858C95.1366 70.9412 95.2542 71.0224 95.352 71.1247C95.4498 71.227 95.5258 71.3481 95.5753 71.4806C95.6249 71.6132 95.6469 71.7545 95.6401 71.8958L95.3473 78.3428C95.3311 78.6356 95.2043 78.9113 94.9926 79.1142C94.7809 79.3172 94.5 79.4321 94.2068 79.4359Z" fill="#FAFAFA"/>
</g>
<path id="Vector_71" d="M44.5722 89.437H38.1196C37.9781 89.438 37.8379 89.41 37.7076 89.3548C37.5773 89.2995 37.4597 89.2182 37.362 89.1158C37.2643 89.0134 37.1886 88.8921 37.1395 88.7594C37.0905 88.6266 37.0691 88.4853 37.0767 88.344L37.3555 81.8997C37.3725 81.6067 37.4998 81.331 37.712 81.1281C37.9242 80.9253 38.2053 80.8104 38.4988 80.8067H44.9458C45.0873 80.8057 45.2275 80.8337 45.3578 80.8889C45.4881 80.9442 45.6057 81.0255 45.7034 81.1279C45.8011 81.2303 45.8768 81.3516 45.9259 81.4843C45.9749 81.6171 45.9963 81.7584 45.9887 81.8997L45.7099 88.344C45.6937 88.6363 45.5673 88.9116 45.3562 89.1144C45.1451 89.3173 44.8649 89.4325 44.5722 89.437Z" fill="#407BFF"/>
<path id="Vector_72" d="M54.4079 89.4371H47.9609C47.8194 89.438 47.6792 89.41 47.5489 89.3548C47.4186 89.2995 47.301 89.2182 47.2033 89.1158C47.1056 89.0134 47.0299 88.8921 46.9808 88.7594C46.9318 88.6267 46.9104 88.4853 46.918 88.344L47.1969 81.8998C47.2131 81.6065 47.3403 81.3304 47.5526 81.1274C47.7649 80.9244 48.0464 80.8098 48.3401 80.8067H54.7843C54.9261 80.8053 55.0666 80.8331 55.1972 80.8881C55.3278 80.9432 55.4458 81.0245 55.5438 81.1269C55.6418 81.2293 55.7177 81.3508 55.767 81.4837C55.8162 81.6166 55.8376 81.7582 55.83 81.8998L55.5512 88.344C55.5356 88.6375 55.4086 88.914 55.1962 89.1171C54.9837 89.3202 54.7018 89.4346 54.4079 89.4371Z" fill="#407BFF"/>
<path id="Vector_73" d="M64.2474 89.437H57.8032C57.6617 89.438 57.5215 89.41 57.3912 89.3548C57.2609 89.2995 57.1433 89.2182 57.0456 89.1158C56.9479 89.0134 56.8722 88.8921 56.8231 88.7594C56.7741 88.6266 56.7527 88.4853 56.7603 88.344L57.0391 81.8997C57.0554 81.6065 57.1826 81.3304 57.3949 81.1274C57.6072 80.9244 57.8887 80.8098 58.1824 80.8067H64.6517C64.7934 80.8057 64.9337 80.8337 65.0641 80.8889C65.1946 80.9441 65.3123 81.0254 65.4102 81.1278C65.5082 81.2301 65.5841 81.3514 65.6335 81.4841C65.6829 81.6169 65.7046 81.7583 65.6974 81.8997L65.4046 88.344C65.3882 88.6396 65.2591 88.9177 65.0438 89.1211C64.8285 89.3244 64.5435 89.4375 64.2474 89.437Z" fill="#407BFF"/>
<path id="Vector_74" d="M74.0864 89.437H67.6422C67.5006 89.438 67.3603 89.41 67.2298 89.3548C67.0994 89.2996 66.9816 89.2183 66.8837 89.1159C66.7858 89.0136 66.7099 88.8923 66.6605 88.7596C66.6111 88.6268 66.5893 88.4854 66.5966 88.344L66.8754 81.8997C66.891 81.6067 67.0176 81.3306 67.2294 81.1276C67.4413 80.9245 67.7225 80.8098 68.0159 80.8067H74.4629C74.6044 80.8057 74.7446 80.8337 74.8749 80.8889C75.0052 80.9442 75.1228 81.0255 75.2205 81.1279C75.3182 81.2303 75.3939 81.3516 75.4429 81.4843C75.492 81.6171 75.5134 81.7584 75.5058 81.8997L75.2269 88.344C75.2107 88.6368 75.0839 88.9125 74.8722 89.1154C74.6605 89.3183 74.3797 89.4332 74.0864 89.437Z" fill="#407BFF"/>
<path id="Vector_75" d="M83.9278 89.437H77.478C77.3365 89.438 77.1963 89.41 77.066 89.3548C76.9357 89.2995 76.8181 89.2182 76.7204 89.1158C76.6227 89.0134 76.547 88.8921 76.4979 88.7594C76.4489 88.6266 76.4275 88.4853 76.4351 88.344L76.7139 81.8997C76.7309 81.6067 76.8582 81.331 77.0704 81.1281C77.2825 80.9253 77.5637 80.8104 77.8572 80.8067H84.3042C84.4457 80.8057 84.5859 80.8337 84.7162 80.8889C84.8465 80.9442 84.9641 81.0255 85.0618 81.1279C85.1595 81.2303 85.2352 81.3516 85.2843 81.4843C85.3333 81.6171 85.3547 81.7584 85.3471 81.8997L85.0683 88.344C85.0514 88.6365 84.9244 88.9119 84.7128 89.1146C84.5013 89.3174 84.2208 89.4326 83.9278 89.437Z" fill="#407BFF"/>
<path id="Vector_76" d="M93.7673 89.437H87.3203C87.1788 89.438 87.0386 89.41 86.9083 89.3548C86.778 89.2995 86.6604 89.2182 86.5627 89.1158C86.465 89.0134 86.3893 88.8921 86.3402 88.7594C86.2912 88.6266 86.2698 88.4853 86.2774 88.344L86.5562 81.8997C86.5725 81.6065 86.6997 81.3304 86.912 81.1274C87.1243 80.9244 87.4058 80.8098 87.6995 80.8067H94.1437C94.2854 80.8057 94.4257 80.8337 94.5561 80.8889C94.6866 80.9441 94.8043 81.0254 94.9022 81.1278C95.0001 81.2301 95.0761 81.3514 95.1255 81.4841C95.1749 81.6169 95.1966 81.7583 95.1894 81.8997L94.8966 88.344C94.8812 88.6351 94.7562 88.9096 94.5467 89.1124C94.3372 89.3151 94.0588 89.4311 93.7673 89.437Z" fill="#407BFF"/>
<g id="Group_6" opacity="0.75">
<path id="Vector_77" opacity="0.8" d="M44.5722 89.4351H38.1196C37.9781 89.436 37.8379 89.4081 37.7076 89.3528C37.5773 89.2976 37.4597 89.2162 37.362 89.1139C37.2643 89.0115 37.1886 88.8902 37.1395 88.7574C37.0905 88.6247 37.0691 88.4833 37.0767 88.342L37.3555 81.8978C37.3725 81.6048 37.4998 81.329 37.712 81.1262C37.9242 80.9233 38.2053 80.8085 38.4988 80.8047H44.9458C45.0873 80.8037 45.2275 80.8317 45.3578 80.887C45.4881 80.9422 45.6057 81.0236 45.7034 81.1259C45.8011 81.2283 45.8768 81.3496 45.9259 81.4824C45.9749 81.6151 45.9963 81.7565 45.9887 81.8978L45.7099 88.342C45.6937 88.6343 45.5673 88.9096 45.3562 89.1125C45.1451 89.3153 44.8649 89.4306 44.5722 89.4351Z" fill="#FAFAFA"/>
<path id="Vector_78" opacity="0.8" d="M54.4064 89.4351H47.9594C47.8179 89.4361 47.6777 89.4081 47.5474 89.3528C47.4171 89.2976 47.2995 89.2163 47.2018 89.1139C47.1041 89.0115 47.0284 88.8902 46.9794 88.7574C46.9303 88.6247 46.9089 88.4833 46.9165 88.342L47.1954 81.8978C47.2117 81.6045 47.3388 81.3284 47.5511 81.1255C47.7634 80.9225 48.045 80.8078 48.3387 80.8047H54.7829C54.9246 80.8034 55.0651 80.8311 55.1958 80.8862C55.3264 80.9412 55.4443 81.0225 55.5423 81.1249C55.6403 81.2274 55.7163 81.3488 55.7655 81.4817C55.8147 81.6147 55.8362 81.7563 55.8286 81.8978L55.5497 88.342C55.5341 88.6355 55.4071 88.912 55.1947 89.1151C54.9823 89.3182 54.7003 89.4327 54.4064 89.4351Z" fill="#FAFAFA"/>
<path id="Vector_79" opacity="0.8" d="M64.243 89.4351H57.7988C57.6573 89.436 57.5171 89.4081 57.3868 89.3528C57.2565 89.2976 57.1389 89.2162 57.0412 89.1139C56.9435 89.0115 56.8678 88.8902 56.8187 88.7574C56.7697 88.6247 56.7483 88.4833 56.7559 88.342L57.0347 81.8978C57.051 81.6045 57.1782 81.3284 57.3905 81.1254C57.6028 80.9225 57.8843 80.8078 58.178 80.8047H64.6473C64.789 80.8038 64.9293 80.8318 65.0597 80.887C65.1902 80.9422 65.3079 81.0235 65.4059 81.1258C65.5038 81.2281 65.5797 81.3494 65.6291 81.4822C65.6785 81.6149 65.7002 81.7563 65.693 81.8978L65.4002 88.342C65.3838 88.6377 65.2547 88.9158 65.0394 89.1191C64.8241 89.3225 64.5391 89.4355 64.243 89.4351Z" fill="#FAFAFA"/>
<path id="Vector_80" opacity="0.8" d="M74.085 89.4351H67.6408C67.4992 89.436 67.3588 89.408 67.2284 89.3528C67.098 89.2976 66.9802 89.2163 66.8823 89.114C66.7844 89.0116 66.7084 88.8904 66.659 88.7576C66.6096 88.6249 66.5879 88.4835 66.5951 88.342L66.874 81.8978C66.8895 81.6048 67.0161 81.3287 67.2279 81.1256C67.4398 80.9226 67.721 80.8078 68.0144 80.8047H74.4614C74.6029 80.8037 74.7432 80.8317 74.8734 80.887C75.0037 80.9422 75.1213 81.0236 75.219 81.1259C75.3167 81.2283 75.3924 81.3496 75.4415 81.4824C75.4905 81.6151 75.5119 81.7565 75.5043 81.8978L75.2255 88.342C75.2092 88.6348 75.0825 88.9105 74.8708 89.1134C74.659 89.3163 74.3782 89.4313 74.085 89.4351Z" fill="#FAFAFA"/>
<path id="Vector_81" opacity="0.8" d="M83.9258 89.4351H77.476C77.3345 89.436 77.1943 89.4081 77.064 89.3528C76.9337 89.2976 76.8161 89.2162 76.7184 89.1139C76.6207 89.0115 76.545 88.8902 76.496 88.7574C76.4469 88.6247 76.4255 88.4833 76.4331 88.342L76.712 81.8978C76.7289 81.6048 76.8563 81.329 77.0684 81.1262C77.2806 80.9233 77.5618 80.8085 77.8553 80.8047H84.3023C84.4438 80.8037 84.584 80.8317 84.7143 80.887C84.8446 80.9422 84.9622 81.0236 85.0599 81.1259C85.1576 81.2283 85.2333 81.3496 85.2823 81.4824C85.3314 81.6151 85.3528 81.7565 85.3452 81.8978L85.0663 88.342C85.0494 88.6346 84.9225 88.9099 84.7109 89.1127C84.4993 89.3155 84.2188 89.4306 83.9258 89.4351Z" fill="#FAFAFA"/>
<path id="Vector_82" opacity="0.8" d="M93.7658 89.4351H87.3188C87.1773 89.436 87.0371 89.4081 86.9068 89.3528C86.7765 89.2976 86.6589 89.2162 86.5612 89.1139C86.4635 89.0115 86.3878 88.8902 86.3388 88.7574C86.2897 88.6247 86.2683 88.4833 86.2759 88.342L86.5548 81.8978C86.571 81.6045 86.6982 81.3284 86.9105 81.1254C87.1228 80.9225 87.4043 80.8078 87.6981 80.8047H94.1423C94.2839 80.8038 94.4242 80.8318 94.5547 80.887C94.6851 80.9422 94.8029 81.0235 94.9008 81.1258C94.9987 81.2281 95.0747 81.3494 95.124 81.4822C95.1734 81.6149 95.1952 81.7563 95.1879 81.8978L94.8952 88.342C94.8797 88.6331 94.7547 88.9076 94.5452 89.1104C94.3357 89.3132 94.0573 89.4292 93.7658 89.4351Z" fill="#FAFAFA"/>
</g>
<path id="Vector_83" d="M42.7444 55.5789C40.3686 55.5789 38.5059 52.8155 38.5059 49.2881C38.5059 45.7606 40.3686 43 42.7444 43C45.1202 43 46.9857 45.7634 46.9857 49.2881C46.9748 49.4534 46.9015 49.6084 46.7806 49.7216C46.6597 49.8349 46.5002 49.8979 46.3345 49.8979C46.1689 49.8979 46.0094 49.8349 45.8885 49.7216C45.7676 49.6084 45.6943 49.4534 45.6834 49.2881C45.6834 46.586 44.3394 44.2994 42.7444 44.2994C41.1493 44.2994 39.8053 46.586 39.8053 49.2881C39.8053 51.9901 41.1521 54.2767 42.7444 54.2767C42.8335 54.2708 42.9228 54.2833 43.0069 54.3134C43.0909 54.3435 43.1679 54.3905 43.2331 54.4515C43.2982 54.5126 43.3502 54.5863 43.3857 54.6683C43.4212 54.7502 43.4395 54.8385 43.4395 54.9278C43.4395 55.0171 43.4212 55.1054 43.3857 55.1873C43.3502 55.2692 43.2982 55.343 43.2331 55.404C43.1679 55.465 43.0909 55.5121 43.0069 55.5421C42.9228 55.5722 42.8335 55.5847 42.7444 55.5789Z" fill="#407BFF"/>
<path id="Vector_84" d="M52.5867 55.5789C50.2109 55.5789 48.3481 52.8155 48.3481 49.2881C48.3481 45.7606 50.2109 43 52.5867 43C54.9624 43 56.8419 45.7634 56.8419 49.2881C56.8311 49.4534 56.7578 49.6084 56.6368 49.7216C56.5159 49.8349 56.3565 49.8979 56.1908 49.8979C56.0251 49.8979 55.8656 49.8349 55.7447 49.7216C55.6238 49.6084 55.5505 49.4534 55.5397 49.2881C55.5397 46.586 54.1956 44.2994 52.6006 44.2994C51.0056 44.2994 49.6615 46.586 49.6615 49.2881C49.6615 51.9901 51.0084 54.2767 52.6006 54.2767C52.7659 54.2875 52.9209 54.3608 53.0342 54.4817C53.1474 54.6026 53.2105 54.7621 53.2105 54.9278C53.2105 55.0935 53.1474 55.2529 53.0342 55.3738C52.9209 55.4948 52.7659 55.5681 52.6006 55.5789H52.5867Z" fill="#407BFF"/>
<path id="Vector_85" d="M62.4185 55.5789C60.04 55.5789 58.1772 52.8155 58.1772 49.2881C58.1772 45.7606 60.04 43 62.4185 43C64.7971 43 66.657 45.7634 66.657 49.2881C66.657 49.4604 66.5886 49.6256 66.4667 49.7475C66.3449 49.8693 66.1796 49.9378 66.0073 49.9378C65.835 49.9378 65.6698 49.8693 65.5479 49.7475C65.4261 49.6256 65.3576 49.4604 65.3576 49.2881C65.3576 46.586 64.0108 44.2994 62.4185 44.2994C60.8263 44.2994 59.4795 46.586 59.4795 49.2881C59.4795 51.9901 60.8263 54.2767 62.4185 54.2767C62.5839 54.2875 62.7389 54.3608 62.8521 54.4817C62.9654 54.6026 63.0284 54.7621 63.0284 54.9278C63.0284 55.0935 62.9654 55.2529 62.8521 55.3738C62.7389 55.4948 62.5839 55.5681 62.4185 55.5789Z" fill="#407BFF"/>
<path id="Vector_86" d="M72.2682 55.5789C69.8896 55.5789 68.0269 52.8155 68.0269 49.2881C68.0269 45.7606 69.8896 43 72.2682 43C74.6467 43 76.5067 45.7634 76.5067 49.2881C76.5067 49.4604 76.4382 49.6256 76.3164 49.7475C76.1945 49.8693 76.0293 49.9378 75.8569 49.9378C75.6846 49.9378 75.5194 49.8693 75.3975 49.7475C75.2757 49.6256 75.2072 49.4604 75.2072 49.2881C75.2072 46.586 73.8604 44.2994 72.2682 44.2994C70.6759 44.2994 69.3291 46.586 69.3291 49.2881C69.3291 51.9901 70.6731 54.2767 72.2682 54.2767C72.4335 54.2875 72.5885 54.3608 72.7017 54.4817C72.815 54.6026 72.878 54.7621 72.878 54.9278C72.878 55.0935 72.815 55.2529 72.7017 55.3738C72.5885 55.4948 72.4335 55.5681 72.2682 55.5789Z" fill="#407BFF"/>
<path id="Vector_87" d="M82.1047 55.5789C79.7289 55.5789 77.8662 52.8155 77.8662 49.2881C77.8662 45.7606 79.7289 43 82.1047 43C84.4805 43 86.346 45.7634 86.346 49.2881C86.3352 49.4534 86.2619 49.6084 86.141 49.7216C86.02 49.8349 85.8606 49.8979 85.6949 49.8979C85.5292 49.8979 85.3697 49.8349 85.2488 49.7216C85.1279 49.6084 85.0546 49.4534 85.0438 49.2881C85.0438 46.586 83.6997 44.2994 82.1047 44.2994C80.5097 44.2994 79.1656 46.586 79.1656 49.2881C79.1656 51.9901 80.5125 54.2767 82.1047 54.2767C82.1938 54.2708 82.2831 54.2833 82.3672 54.3134C82.4513 54.3435 82.5282 54.3905 82.5934 54.4515C82.6586 54.5126 82.7105 54.5863 82.746 54.6683C82.7815 54.7502 82.7999 54.8385 82.7999 54.9278C82.7999 55.0171 82.7815 55.1054 82.746 55.1873C82.7105 55.2692 82.6586 55.343 82.5934 55.404C82.5282 55.465 82.4513 55.5121 82.3672 55.5421C82.2831 55.5722 82.1938 55.5847 82.1047 55.5789Z" fill="#407BFF"/>
<path id="Vector_88" d="M91.947 55.5789C89.5712 55.5789 87.7085 52.8155 87.7085 49.2881C87.7085 45.7606 89.5712 43 91.947 43C94.3228 43 96.1883 45.7634 96.1883 49.2881C96.1775 49.4534 96.1042 49.6084 95.9833 49.7216C95.8623 49.8349 95.7029 49.8979 95.5372 49.8979C95.3715 49.8979 95.212 49.8349 95.0911 49.7216C94.9702 49.6084 94.8969 49.4534 94.8861 49.2881C94.8861 46.586 93.5392 44.2994 91.947 44.2994C90.3548 44.2994 89.0079 46.586 89.0079 49.2881C89.0079 51.9901 90.3548 54.2767 91.947 54.2767C92.1123 54.2875 92.2673 54.3608 92.3806 54.4817C92.4939 54.6026 92.5569 54.7621 92.5569 54.9278C92.5569 55.0935 92.4939 55.2529 92.3806 55.3738C92.2673 55.4948 92.1123 55.5681 91.947 55.5789Z" fill="#407BFF"/>
<g id="Group_7">
<path id="Vector_89" opacity="0.8" d="M42.7444 55.5789C40.3686 55.5789 38.5059 52.8155 38.5059 49.2881C38.5059 45.7606 40.3686 43 42.7444 43C45.1202 43 46.9857 45.7634 46.9857 49.2881C46.9748 49.4534 46.9015 49.6084 46.7806 49.7216C46.6597 49.8349 46.5002 49.8979 46.3345 49.8979C46.1689 49.8979 46.0094 49.8349 45.8885 49.7216C45.7676 49.6084 45.6943 49.4534 45.6834 49.2881C45.6834 46.586 44.3394 44.2994 42.7444 44.2994C41.1493 44.2994 39.8053 46.586 39.8053 49.2881C39.8053 51.9901 41.1521 54.2767 42.7444 54.2767C42.8335 54.2708 42.9228 54.2833 43.0069 54.3134C43.0909 54.3435 43.1679 54.3905 43.2331 54.4515C43.2982 54.5126 43.3502 54.5863 43.3857 54.6683C43.4212 54.7502 43.4395 54.8385 43.4395 54.9278C43.4395 55.0171 43.4212 55.1054 43.3857 55.1873C43.3502 55.2692 43.2982 55.343 43.2331 55.404C43.1679 55.465 43.0909 55.5121 43.0069 55.5421C42.9228 55.5722 42.8335 55.5847 42.7444 55.5789Z" fill="white"/>
<path id="Vector_90" opacity="0.8" d="M52.5852 55.5789C50.2094 55.5789 48.3467 52.8155 48.3467 49.2881C48.3467 45.7606 50.2094 43 52.5852 43C54.961 43 56.8404 45.7634 56.8404 49.2881C56.8296 49.4534 56.7563 49.6084 56.6354 49.7216C56.5145 49.8349 56.355 49.8979 56.1893 49.8979C56.0236 49.8979 55.8642 49.8349 55.7432 49.7216C55.6223 49.6084 55.549 49.4534 55.5382 49.2881C55.5382 46.586 54.1941 44.2994 52.5991 44.2994C51.0041 44.2994 49.6601 46.586 49.6601 49.2881C49.6601 51.9901 51.0069 54.2767 52.5991 54.2767C52.7644 54.2875 52.9195 54.3608 53.0327 54.4817C53.146 54.6026 53.209 54.7621 53.209 54.9278C53.209 55.0935 53.146 55.2529 53.0327 55.3738C52.9195 55.4948 52.7644 55.5681 52.5991 55.5789H52.5852Z" fill="white"/>
<path id="Vector_91" opacity="0.8" d="M62.4171 55.5789C60.0385 55.5789 58.1758 52.8155 58.1758 49.2881C58.1758 45.7606 60.0385 43 62.4171 43C64.7957 43 66.6556 45.7634 66.6556 49.2881C66.6556 49.4604 66.5871 49.6256 66.4653 49.7475C66.3434 49.8693 66.1782 49.9378 66.0059 49.9378C65.8335 49.9378 65.6683 49.8693 65.5464 49.7475C65.4246 49.6256 65.3561 49.4604 65.3561 49.2881C65.3561 46.586 64.0093 44.2994 62.4171 44.2994C60.8248 44.2994 59.478 46.586 59.478 49.2881C59.478 51.9901 60.8248 54.2767 62.4171 54.2767C62.5824 54.2875 62.7374 54.3608 62.8507 54.4817C62.9639 54.6026 63.027 54.7621 63.027 54.9278C63.027 55.0935 62.9639 55.2529 62.8507 55.3738C62.7374 55.4948 62.5824 55.5681 62.4171 55.5789Z" fill="white"/>
<path id="Vector_92" opacity="0.8" d="M72.2657 55.5789C69.8871 55.5789 68.0244 52.8155 68.0244 49.2881C68.0244 45.7606 69.8871 43 72.2657 43C74.6443 43 76.5042 45.7634 76.5042 49.2881C76.5042 49.4604 76.4358 49.6256 76.3139 49.7475C76.1921 49.8693 76.0268 49.9378 75.8545 49.9378C75.6822 49.9378 75.5169 49.8693 75.3951 49.7475C75.2732 49.6256 75.2048 49.4604 75.2048 49.2881C75.2048 46.586 73.8579 44.2994 72.2657 44.2994C70.6735 44.2994 69.3266 46.586 69.3266 49.2881C69.3266 51.9901 70.6707 54.2767 72.2657 54.2767C72.431 54.2875 72.586 54.3608 72.6993 54.4817C72.8126 54.6026 72.8756 54.7621 72.8756 54.9278C72.8756 55.0935 72.8126 55.2529 72.6993 55.3738C72.586 55.4948 72.431 55.5681 72.2657 55.5789Z" fill="white"/>
<path id="Vector_93" opacity="0.8" d="M82.1042 55.5789C79.7284 55.5789 77.8657 52.8155 77.8657 49.2881C77.8657 45.7606 79.7284 43 82.1042 43C84.48 43 86.3455 45.7634 86.3455 49.2881C86.3347 49.4534 86.2614 49.6084 86.1405 49.7216C86.0196 49.8349 85.8601 49.8979 85.6944 49.8979C85.5287 49.8979 85.3693 49.8349 85.2483 49.7216C85.1274 49.6084 85.0541 49.4534 85.0433 49.2881C85.0433 46.586 83.6992 44.2994 82.1042 44.2994C80.5092 44.2994 79.1652 46.586 79.1652 49.2881C79.1652 51.9901 80.512 54.2767 82.1042 54.2767C82.1933 54.2708 82.2827 54.2833 82.3667 54.3134C82.4508 54.3435 82.5278 54.3905 82.5929 54.4515C82.6581 54.5126 82.71 54.5863 82.7455 54.6683C82.781 54.7502 82.7994 54.8385 82.7994 54.9278C82.7994 55.0171 82.781 55.1054 82.7455 55.1873C82.71 55.2692 82.6581 55.343 82.5929 55.404C82.5278 55.465 82.4508 55.5121 82.3667 55.5421C82.2827 55.5722 82.1933 55.5847 82.1042 55.5789Z" fill="white"/>
<path id="Vector_94" opacity="0.8" d="M91.9455 55.5789C89.5697 55.5789 87.707 52.8155 87.707 49.2881C87.707 45.7606 89.5697 43 91.9455 43C94.3213 43 96.1868 45.7634 96.1868 49.2881C96.176 49.4534 96.1027 49.6084 95.9818 49.7216C95.8609 49.8349 95.7014 49.8979 95.5357 49.8979C95.3701 49.8979 95.2106 49.8349 95.0897 49.7216C94.9687 49.6084 94.8954 49.4534 94.8846 49.2881C94.8846 46.586 93.5378 44.2994 91.9455 44.2994C90.3533 44.2994 89.0065 46.586 89.0065 49.2881C89.0065 51.9901 90.3533 54.2767 91.9455 54.2767C92.1109 54.2875 92.2659 54.3608 92.3791 54.4817C92.4924 54.6026 92.5554 54.7621 92.5554 54.9278C92.5554 55.0935 92.4924 55.2529 92.3791 55.3738C92.2659 55.4948 92.1109 55.5681 91.9455 55.5789Z" fill="white"/>
</g>
<path id="Vector_95" d="M72.9262 69.7963C70.6508 69.3445 68.0965 69.8715 67.1847 72.2696C66.4513 74.1993 67.391 76.2906 69.4155 76.8009C71.2001 77.2499 74.2786 76.7006 74.9144 74.6426C75.6422 72.2892 72.6836 71.5251 71.0244 71.3857C70.5253 71.3439 70.5281 72.1246 71.0244 72.1665C71.7801 72.2306 72.6446 72.2724 73.3138 72.6879C74.708 73.5607 74.1336 74.9605 72.9457 75.6298C71.7578 76.299 69.9369 76.4663 68.763 75.7246C67.4803 74.9076 67.4384 73.1118 68.2053 71.9406C69.2119 70.393 71.0495 70.2201 72.7059 70.5464C73.1967 70.6439 73.4058 69.8911 72.9123 69.7935L72.9262 69.7963Z" fill="#407BFF"/>
<path id="Vector_96" d="M72.9262 69.7963C70.6508 69.3445 68.0965 69.8715 67.1847 72.2696C66.4513 74.1993 67.391 76.2906 69.4155 76.8009C71.2001 77.2499 74.2786 76.7006 74.9144 74.6426C75.6422 72.2892 72.6836 71.5251 71.0244 71.3857C70.5253 71.3439 70.5281 72.1246 71.0244 72.1665C71.7801 72.2306 72.6446 72.2724 73.3138 72.6879C74.708 73.5607 74.1336 74.9605 72.9457 75.6298C71.7578 76.299 69.9369 76.4663 68.763 75.7246C67.4803 74.9076 67.4384 73.1118 68.2053 71.9406C69.2119 70.393 71.0495 70.2201 72.7059 70.5464C73.1967 70.6439 73.4058 69.8911 72.9123 69.7935L72.9262 69.7963Z" fill="#376EEA"/>
<path id="Vector_97" d="M47.8216 60.8119C49.9977 63.6966 52.4238 66.384 55.0717 68.8427C55.4398 69.1857 55.9947 68.6336 55.6294 68.285C53.0268 65.8748 50.6409 63.2407 48.4992 60.4131C48.2008 60.0171 47.5232 60.4131 47.8272 60.8063L47.8216 60.8119Z" fill="#407BFF"/>
<path id="Vector_98" d="M48.6282 68.5182C50.2734 65.5931 53.1539 63.0974 55.8783 61.1873C56.2854 60.9084 55.8978 60.2225 55.4851 60.5125C52.652 62.5035 49.6739 65.0744 47.9562 68.1223C47.9091 68.2111 47.898 68.3146 47.9253 68.4114C47.9527 68.5081 48.0162 68.5906 48.1029 68.6416C48.1895 68.6927 48.2924 68.7083 48.3903 68.6853C48.4882 68.6623 48.5734 68.6025 48.6282 68.5182Z" fill="#407BFF"/>
<g id="Group_8">
<path id="Vector_99" opacity="0.2" d="M47.8216 60.8119C49.9977 63.6966 52.4238 66.384 55.0717 68.8427C55.4398 69.1857 55.9947 68.6336 55.6294 68.285C53.0268 65.8748 50.6409 63.2407 48.4992 60.4131C48.2008 60.0171 47.5232 60.4131 47.8272 60.8063L47.8216 60.8119Z" fill="#376EEA"/>
<path id="Vector_100" opacity="0.2" d="M48.6282 68.5182C50.2734 65.5931 53.154 63.0974 55.8783 61.1873C56.2854 60.9084 55.8978 60.2225 55.4851 60.5125C52.652 62.5035 49.6739 65.0744 47.9562 68.1223C47.9091 68.2111 47.898 68.3146 47.9253 68.4114C47.9527 68.5081 48.0162 68.5906 48.1029 68.6416C48.1895 68.6927 48.2924 68.7083 48.3903 68.6853C48.4882 68.6623 48.5734 68.6025 48.6282 68.5182Z" fill="#376EEA"/>
</g>
<path id="Vector_101" d="M78.8345 63.3083H83.9235C84.021 63.3 84.1118 63.2554 84.178 63.1834C84.2442 63.1114 84.2809 63.0171 84.2809 62.9193C84.2809 62.8214 84.2442 62.7272 84.178 62.6551C84.1118 62.5831 84.021 62.5385 83.9235 62.5303H78.8345C78.737 62.5385 78.6462 62.5831 78.58 62.6551C78.5138 62.7272 78.4771 62.8214 78.4771 62.9193C78.4771 63.0171 78.5138 63.1114 78.58 63.1834C78.6462 63.2554 78.737 63.3 78.8345 63.3083Z" fill="#407BFF"/>
<path id="Vector_102" d="M78.7761 64.7564H81.7263C81.8299 64.7564 81.9292 64.7152 82.0024 64.642C82.0756 64.5688 82.1167 64.4695 82.1167 64.366C82.1167 64.2624 82.0756 64.1631 82.0024 64.0899C81.9292 64.0167 81.8299 63.9756 81.7263 63.9756H78.7761C78.6726 63.9756 78.5733 64.0167 78.5001 64.0899C78.4269 64.1631 78.3857 64.2624 78.3857 64.366C78.3857 64.4695 78.4269 64.5688 78.5001 64.642C78.5733 64.7152 78.6726 64.7564 78.7761 64.7564Z" fill="#407BFF"/>
<g id="Group_9">
<path id="Vector_103" opacity="0.1" d="M78.8364 63.3093H83.9254C84.0229 63.301 84.1137 63.2564 84.1799 63.1844C84.2461 63.1123 84.2829 63.0181 84.2829 62.9203C84.2829 62.8224 84.2461 62.7282 84.1799 62.6561C84.1137 62.5841 84.0229 62.5395 83.9254 62.5312H78.8364C78.7389 62.5395 78.6481 62.5841 78.5819 62.6561C78.5157 62.7282 78.479 62.8224 78.479 62.9203C78.479 63.0181 78.5157 63.1123 78.5819 63.1844C78.6481 63.2564 78.7389 63.301 78.8364 63.3093Z" fill="#376EEA"/>
<path id="Vector_104" opacity="0.1" d="M78.7781 64.7564H81.7283C81.8318 64.7564 81.9311 64.7152 82.0043 64.642C82.0776 64.5688 82.1187 64.4695 82.1187 64.366C82.1187 64.2624 82.0776 64.1631 82.0043 64.0899C81.9311 64.0167 81.8318 63.9756 81.7283 63.9756H78.7781C78.6745 63.9756 78.5752 64.0167 78.502 64.0899C78.4288 64.1631 78.3877 64.2624 78.3877 64.366C78.3877 64.4695 78.4288 64.5688 78.502 64.642C78.5752 64.7152 78.6745 64.7564 78.7781 64.7564Z" fill="#376EEA"/>
</g>
<path id="Vector_105" d="M48.3547 83.2866H52.7187C52.8223 83.2866 52.9216 83.2455 52.9948 83.1723C53.068 83.0991 53.1091 82.9998 53.1091 82.8962C53.1091 82.7927 53.068 82.6934 52.9948 82.6202C52.9216 82.547 52.8223 82.5059 52.7187 82.5059H48.3547C48.2512 82.5059 48.1519 82.547 48.0787 82.6202C48.0055 82.6934 47.9644 82.7927 47.9644 82.8962C47.9644 82.9998 48.0055 83.0991 48.0787 83.1723C48.1519 83.2455 48.2512 83.2866 48.3547 83.2866Z" fill="#407BFF"/>
<path id="Vector_106" d="M48.1975 84.9605H53.8582C53.9617 84.9605 54.061 84.9193 54.1342 84.8461C54.2074 84.7729 54.2485 84.6736 54.2485 84.5701C54.2485 84.4665 54.2074 84.3672 54.1342 84.294C54.061 84.2208 53.9617 84.1797 53.8582 84.1797H48.1975C48.094 84.1797 47.9947 84.2208 47.9215 84.294C47.8483 84.3672 47.8071 84.4665 47.8071 84.5701C47.8071 84.6736 47.8483 84.7729 47.9215 84.8461C47.9947 84.9193 48.094 84.9605 48.1975 84.9605Z" fill="#407BFF"/>
<path id="Vector_107" d="M48.1975 86.687H51.0278C51.1314 86.687 51.2307 86.6459 51.3039 86.5727C51.3771 86.4995 51.4182 86.4002 51.4182 86.2966C51.4182 86.1931 51.3771 86.0938 51.3039 86.0206C51.2307 85.9474 51.1314 85.9063 51.0278 85.9062H48.1975C48.094 85.9062 47.9947 85.9474 47.9215 86.0206C47.8483 86.0938 47.8071 86.1931 47.8071 86.2966C47.8071 86.4002 47.8483 86.4995 47.9215 86.5727C47.9947 86.6459 48.094 86.687 48.1975 86.687Z" fill="#407BFF"/>
<g id="Group_10">
<path id="Vector_108" opacity="0.1" d="M48.3538 83.2857H52.7178C52.8213 83.2857 52.9206 83.2445 52.9938 83.1713C53.067 83.0981 53.1081 82.9988 53.1081 82.8953C53.1081 82.7917 53.067 82.6924 52.9938 82.6192C52.9206 82.546 52.8213 82.5049 52.7178 82.5049H48.3538C48.2502 82.5049 48.1509 82.546 48.0777 82.6192C48.0045 82.6924 47.9634 82.7917 47.9634 82.8953C47.9634 82.9988 48.0045 83.0981 48.0777 83.1713C48.1509 83.2445 48.2502 83.2857 48.3538 83.2857Z" fill="#376EEA"/>
<path id="Vector_109" opacity="0.1" d="M48.1995 84.9624H53.8601C53.9636 84.9624 54.0629 84.9213 54.1362 84.8481C54.2094 84.7749 54.2505 84.6756 54.2505 84.572C54.2505 84.4685 54.2094 84.3692 54.1362 84.296C54.0629 84.2228 53.9636 84.1816 53.8601 84.1816H48.1995C48.0959 84.1816 47.9966 84.2228 47.9234 84.296C47.8502 84.3692 47.8091 84.4685 47.8091 84.572C47.8091 84.6756 47.8502 84.7749 47.9234 84.8481C47.9966 84.9213 48.0959 84.9624 48.1995 84.9624Z" fill="#376EEA"/>
<path id="Vector_110" opacity="0.1" d="M48.1995 86.688H51.0298C51.1333 86.688 51.2326 86.6469 51.3058 86.5737C51.379 86.5004 51.4202 86.4012 51.4202 86.2976C51.4202 86.1941 51.379 86.0948 51.3058 86.0216C51.2326 85.9484 51.1333 85.9072 51.0298 85.9072H48.1995C48.0959 85.9072 47.9966 85.9484 47.9234 86.0216C47.8502 86.0948 47.8091 86.1941 47.8091 86.2976C47.8091 86.4012 47.8502 86.5004 47.9234 86.5737C47.9966 86.6469 48.0959 86.688 48.1995 86.688Z" fill="#376EEA"/>
</g>
</g>
<g id="freepik  Character  inject 115">
<path id="Vector_111" d="M138.908 44.2027L136.871 44.1123L137.793 47.9865C138.519 47.489 139.182 46.9034 139.764 46.2431C139.932 46.0455 140.016 45.7896 139.996 45.531C139.977 45.2723 139.856 45.0317 139.661 44.8613L138.908 44.2027Z" fill="#FFD5BD"/>
<path id="Vector_112" d="M134.51 46.2L135.422 49.351L137.794 47.9779L136.873 44.1123L134.51 46.2Z" fill="#FFD5BD"/>
<path id="Vector_113" d="M134.91 27.4941L139.077 27.8799L129.521 131.081L125.355 130.695L134.91 27.4941Z" fill="#407BFF"/>
<path id="Vector_114" d="M134.91 27.4941L139.077 27.8799L129.521 131.081L125.355 130.695L134.91 27.4941Z" fill="#A6BDFF"/>
<path id="Vector_115" d="M126.574 26.7187L130.741 27.1045L121.185 130.306L117.019 129.92L126.574 26.7187Z" fill="#407BFF"/>
<path id="Vector_116" d="M126.574 26.7187L130.741 27.1045L121.185 130.306L117.019 129.92L126.574 26.7187Z" fill="#A6BDFF"/>
<path id="Vector_117" d="M130.739 27.1074L134.905 27.4932L125.349 130.694L121.183 130.309L130.739 27.1074Z" fill="#407BFF"/>
<path id="Vector_118" d="M130.739 27.1074L134.905 27.4932L125.349 130.694L121.183 130.309L130.739 27.1074Z" fill="#7990CF"/>
<path id="Vector_119" d="M131.619 19.8906L135.368 20.2393L139.075 27.88L126.574 26.7221L131.619 19.8906Z" fill="#407BFF"/>
<g id="Group_11">
<path id="Vector_120" opacity="0.8" d="M131.619 19.8906L135.368 20.2393L139.075 27.88L126.574 26.7221L131.619 19.8906Z" fill="#D6E1FF"/>
</g>
<path id="Vector_121" d="M133.78 16.6123L135.368 19.8881L131.619 19.5395L133.78 16.6123Z" fill="#333333"/>
<path id="Vector_122" d="M102.279 22.7979C101.849 23.2283 101.491 23.6373 101.121 24.0892C100.751 24.5412 100.398 24.9502 100.045 25.3806C99.3346 26.2416 98.6717 27.1498 98.026 28.0753C96.6949 29.9571 95.572 31.9777 94.677 34.1018C94.5694 34.3773 94.4704 34.6657 94.3671 34.9628L94.2121 35.3932C94.1268 35.6509 94.0662 35.9161 94.0313 36.1853C93.9379 37.0419 94.0515 37.9085 94.3628 38.7121C94.8274 39.8983 95.4784 41.0027 96.2912 41.9836C97.7285 43.7426 99.3832 45.312 101.216 46.6541L102.839 44.9323C101.561 43.3356 100.394 41.6544 99.3432 39.9002C98.8831 39.1507 98.5296 38.3408 98.2929 37.4939C98.2275 37.286 98.22 37.0643 98.2714 36.8525L98.4177 36.5339C98.5167 36.323 98.6028 36.1035 98.7105 35.8969C99.6216 34.1287 100.688 32.4448 101.896 30.8647C102.499 30.0426 103.136 29.2419 103.781 28.4412C104.104 28.0452 104.431 27.6492 104.767 27.2618L105.749 26.1296L102.279 22.7979Z" fill="#FFD5BD"/>
<path id="Vector_123" d="M105.443 46.2431L103.61 49.8719L101.815 48.3265L103.287 45.748L105.443 46.2431Z" fill="#FFD5BD"/>
<path id="Vector_124" d="M119.256 24.9231C120.373 27.0496 121.532 29.1517 122.735 31.2294C123.324 32.2754 123.944 33.3042 124.547 34.3416L125.472 35.8913L125.705 36.2787C125.821 36.4638 125.95 36.6834 126.066 36.8297C126.183 36.9761 126.299 37.1526 126.411 37.286C126.523 37.4194 126.643 37.5701 126.755 37.6949C127.625 38.6422 128.55 39.5363 129.527 40.3724C130.47 41.1774 131.413 41.9608 132.386 42.7055C134.31 44.2079 136.286 45.6069 138.335 46.9413L139.811 45.0817L134.71 40.0582C133.875 39.1973 133.031 38.388 132.235 37.5357C131.452 36.7336 130.715 35.8886 130.027 35.0045C129.943 34.9012 129.87 34.8022 129.807 34.7075C129.734 34.6042 129.682 34.5181 129.631 34.432C129.586 34.3628 129.546 34.2909 129.51 34.2168L129.312 33.8165L128.516 32.1936C127.969 31.1218 127.435 30.0413 126.88 28.9781C125.781 26.8344 124.633 24.715 123.436 22.6201L119.256 24.9231Z" fill="#FFD5BD"/>
<path id="Vector_125" d="M107.176 10.3815C107.232 10.6312 107.141 10.8679 106.982 10.911C106.823 10.954 106.646 10.7818 106.59 10.5322C106.534 10.2825 106.629 10.0457 106.788 10.0027C106.948 9.95965 107.137 10.1318 107.176 10.3815Z" fill="#263238"/>
<path id="Vector_126" d="M107.165 10.8633C107.03 11.7029 106.784 12.5208 106.433 13.2954C106.632 13.3738 106.844 13.4079 107.057 13.3953C107.27 13.3826 107.477 13.3236 107.665 13.2222L107.165 10.8633Z" fill="#CA837A"/>
<path id="Vector_127" d="M106.515 8.86761C106.546 8.8677 106.576 8.85871 106.601 8.84179C106.76 8.74461 106.941 8.68757 107.127 8.67557C107.313 8.66357 107.499 8.69698 107.669 8.77291C107.706 8.7874 107.747 8.78698 107.784 8.77175C107.821 8.75651 107.851 8.72763 107.867 8.69112C107.881 8.65393 107.881 8.61259 107.866 8.57571C107.85 8.53882 107.822 8.50923 107.785 8.49311C107.567 8.39968 107.331 8.36028 107.094 8.37827C106.858 8.39626 106.63 8.47111 106.429 8.59642C106.413 8.60724 106.399 8.62123 106.388 8.63757C106.377 8.65391 106.37 8.67225 106.366 8.69153C106.362 8.7108 106.363 8.73061 106.367 8.74976C106.371 8.76892 106.379 8.78704 106.39 8.80305C106.404 8.82314 106.423 8.83953 106.445 8.85078C106.467 8.86203 106.491 8.86781 106.515 8.86761Z" fill="#263238"/>
<path id="Vector_128" d="M115.883 11.333C115.341 13.6489 114.725 17.8847 116.284 19.43C116.284 19.43 115.561 21.7761 111.26 21.7761C106.525 21.7761 109.108 19.43 109.108 19.43C111.712 18.8145 111.721 16.8989 111.342 15.1039L115.883 11.333Z" fill="#FFD5BD"/>
<path id="Vector_129" d="M116.867 20.2364C117.237 19.496 117.641 18.6437 116.867 18.3768C116.031 18.0841 111.395 17.787 109.772 18.3337C109.34 18.4494 108.97 18.7289 108.74 19.113C108.51 19.4971 108.439 19.9556 108.541 20.3913L116.867 20.2364Z" fill="#407BFF"/>
<path id="Vector_130" opacity="0.8" d="M116.867 20.2364C117.237 19.496 117.641 18.6437 116.867 18.3768C116.031 18.0841 111.395 17.787 109.772 18.3337C109.34 18.4494 108.97 18.7289 108.74 19.113C108.51 19.4971 108.439 19.9556 108.541 20.3913L116.867 20.2364Z" fill="#3B5291"/>
<path id="Vector_131" d="M108.508 128.079H105.344L105.314 120.757H108.473L108.508 128.079Z" fill="#FFD5BD"/>
<path id="Vector_132" d="M127.497 128.079H124.333L123.024 120.757H126.188L127.497 128.079Z" fill="#FFD5BD"/>
<path id="Vector_133" d="M124.12 127.363H127.671C127.734 127.362 127.795 127.384 127.843 127.424C127.891 127.465 127.923 127.521 127.933 127.583L128.45 130.394C128.461 130.463 128.456 130.535 128.436 130.602C128.417 130.67 128.383 130.733 128.336 130.786C128.29 130.839 128.233 130.882 128.168 130.911C128.104 130.94 128.034 130.954 127.964 130.953C126.724 130.932 126.126 130.859 124.563 130.859C123.603 130.859 121.619 130.962 120.288 130.962C118.958 130.962 118.842 129.671 119.389 129.529C121.847 128.995 122.794 128.259 123.599 127.561C123.742 127.434 123.928 127.364 124.12 127.363Z" fill="#333333"/>
<path id="Vector_134" d="M105.379 127.714H108.823C108.886 127.713 108.947 127.735 108.995 127.775C109.043 127.815 109.075 127.871 109.086 127.933L109.602 130.744C109.614 130.814 109.611 130.885 109.592 130.952C109.574 131.02 109.541 131.083 109.495 131.136C109.449 131.19 109.392 131.233 109.328 131.262C109.264 131.291 109.195 131.305 109.124 131.304C107.88 131.282 106.085 131.209 104.519 131.209C102.685 131.209 101.101 131.313 98.9526 131.313C97.6613 131.313 97.347 130.021 97.8937 129.879C100.39 129.337 102.414 129.281 104.6 127.964C104.832 127.809 105.102 127.723 105.379 127.714Z" fill="#333333"/>
<path id="Vector_135" d="M122.316 20.1451C125.256 20.8252 128.342 28.905 128.342 28.905L122.234 32.9858C120.832 30.8595 119.602 28.6239 118.558 26.3007C116.944 22.6031 119.315 19.4521 122.316 20.1451Z" fill="#407BFF"/>
<path id="Vector_136" d="M122.316 20.1451C125.256 20.8252 128.342 28.905 128.342 28.905L122.234 32.9858C120.832 30.8595 119.602 28.6239 118.558 26.3007C116.944 22.6031 119.315 19.4521 122.316 20.1451Z" fill="#456AD0"/>
<path id="Vector_137" d="M119.991 25.2979L122.518 32.7922L122.23 32.9859C122.23 32.9859 121.076 31.2641 119.849 28.9697L119.991 25.2979Z" fill="#407BFF"/>
<path id="Vector_138" d="M119.991 25.2979L122.518 32.7922L122.23 32.9859C122.23 32.9859 121.076 31.2641 119.849 28.9697L119.991 25.2979Z" fill="#3B5291"/>
<path id="Vector_139" d="M102.586 34.2739C102.612 37.8037 102.823 42.1944 103.348 47.6441H120.265C120.484 45.0613 119.339 32.3798 122.314 20.1461C120.453 19.7854 118.571 19.5467 116.679 19.4315C114.285 19.2937 111.885 19.2937 109.49 19.4315C107.839 19.592 106.203 19.8799 104.596 20.2924C104.596 20.2924 103.15 21.8593 102.711 29.2073C102.625 30.6752 102.577 32.3454 102.586 34.2739Z" fill="#407BFF"/>
<path id="Vector_140" d="M102.586 34.2739C102.612 37.8037 102.823 42.1944 103.348 47.6441H120.265C120.484 45.0613 119.339 32.3798 122.314 20.1461C120.453 19.7854 118.571 19.5467 116.679 19.4315C114.285 19.2937 111.885 19.2937 109.49 19.4315C107.839 19.592 106.203 19.8799 104.596 20.2924C104.596 20.2924 103.15 21.8593 102.711 29.2073C102.625 30.6752 102.577 32.3454 102.586 34.2739Z" fill="#456AD0"/>
<path id="Vector_141" d="M102.586 34.2718C103.61 32.4036 105.47 28.6542 105.207 26.5234L102.711 29.2267C102.625 30.6731 102.577 32.3433 102.586 34.2718Z" fill="#407BFF"/>
<path id="Vector_142" d="M102.586 34.2718C103.61 32.4036 105.47 28.6542 105.207 26.5234L102.711 29.2267C102.625 30.6731 102.577 32.3433 102.586 34.2718Z" fill="#3B5291"/>
<path id="Vector_143" d="M107.911 23.1671C108.178 26.1803 101.346 33.4293 101.346 33.4293L95.8708 28.9697C97.3049 26.5496 99.0231 24.3097 100.989 22.2975C104.192 19.2025 107.61 19.7922 107.911 23.1671Z" fill="#407BFF"/>
<path id="Vector_144" d="M107.911 23.1671C108.178 26.1803 101.346 33.4293 101.346 33.4293L95.8708 28.9697C97.3049 26.5496 99.0231 24.3097 100.989 22.2975C104.192 19.2025 107.61 19.7922 107.911 23.1671Z" fill="#456AD0"/>
<path id="Vector_145" d="M105.314 120.759L105.331 124.53H108.491L108.478 120.759H105.314Z" fill="#CA837A"/>
<path id="Vector_146" d="M126.187 120.759H123.023L123.699 124.53H126.863L126.187 120.759Z" fill="#CA837A"/>
<path id="Vector_147" d="M115.314 7.76839C115.775 10.8849 116.201 12.6757 115.004 14.6558C114.624 15.2971 114.075 15.822 113.418 16.1737C112.76 16.5254 112.019 16.6904 111.274 16.651C110.53 16.6115 109.81 16.369 109.194 15.9498C108.577 15.5306 108.087 14.9506 107.777 14.2727C106.541 11.6899 105.99 7.02369 108.706 5.05217C109.28 4.60962 109.959 4.32578 110.677 4.22922C111.394 4.13265 112.125 4.22676 112.795 4.50207C113.464 4.77739 114.05 5.22421 114.492 5.79758C114.934 6.37096 115.218 7.05069 115.314 7.76839Z" fill="#FFD5BD"/>
<path id="Vector_148" d="M105.951 5.9404C106.883 6.4492 107.908 6.76402 108.964 6.86589C109.752 10.4689 111.849 14.6142 115.241 13.4219C116.532 12.9914 117.823 9.86192 117.957 7.08543C118.181 7.35663 118.331 7.7096 118.448 7.85596C118.641 6.62205 118.501 5.35882 118.043 4.19702C117.104 1.53676 116.48 3.30166 115.46 1.68742C114.802 0.619867 113.631 0.0688742 111.586 0C112.158 0.29702 112.266 0.774834 111.418 0.70596C110.57 0.637086 106.95 0.439074 104.841 1.86391C106.265 2.18676 105.396 4.44669 103.493 3.24139C104.186 4.3649 105.047 5.43245 105.951 5.9404Z" fill="#333333"/>
<path id="Vector_149" d="M111.401 9.69707C111.389 10.4896 111.124 11.2574 110.644 11.8881C110.002 12.7146 109.266 12.3186 109.09 11.3888C108.935 10.5623 109.09 9.13316 109.89 8.63382C110.691 8.13449 111.406 8.75005 111.401 9.69707Z" fill="#FFD5BD"/>
<path id="Vector_150" d="M115.256 2.37342C115.686 2.34618 116.102 2.21426 116.469 1.98917C116.836 1.76407 117.142 1.45265 117.361 1.08203C117.361 1.08203 117.417 3.60455 115.256 2.37342Z" fill="#1E2A4C"/>
<path id="Vector_151" d="M109.352 47.6412C109.352 47.6412 112.004 71.8075 113.627 80.8601C115.4 90.7608 122.236 123.803 122.236 123.803H128.047C128.047 123.803 123.924 91.5743 123.063 81.7426C122.137 71.0886 120.247 47.624 120.247 47.624L109.352 47.6412Z" fill="#407BFF"/>
<path id="Vector_152" opacity="0.8" d="M109.352 47.2897C109.352 47.2897 112.004 71.4559 113.627 80.5085C115.4 90.4092 122.236 123.452 122.236 123.452H128.047C128.047 123.452 123.924 91.2228 123.063 81.391C122.137 70.737 120.247 47.2725 120.247 47.2725L109.352 47.2897Z" fill="#333333"/>
<path id="Vector_153" d="M121.413 121.669C121.387 121.669 121.926 123.894 121.926 123.894H128.438L128.395 121.91L121.413 121.669Z" fill="#407BFF"/>
<path id="Vector_154" d="M121.413 121.669C121.387 121.669 121.926 123.894 121.926 123.894H128.438L128.395 121.91L121.413 121.669Z" fill="#456AD0"/>
<path id="Vector_155" d="M111.285 56.2512C115.404 57.0648 114.367 72.54 113.562 80.4993C112.58 74.8731 111.246 64.0469 110.346 56.3632C110.638 56.2212 110.968 56.1817 111.285 56.2512Z" fill="#407BFF"/>
<path id="Vector_156" opacity="0.8" d="M111.285 56.2512C115.404 57.0648 114.367 72.54 113.562 80.4993C112.58 74.8731 111.246 64.0469 110.346 56.3632C110.638 56.2212 110.968 56.1817 111.285 56.2512Z" fill="#5F5F5F"/>
<path id="Vector_157" d="M103.349 47.6416C103.349 47.6416 101.998 71.2826 101.972 80.9293C101.942 90.9591 104.176 123.803 104.176 123.803H109.535C109.535 123.803 110.977 91.5446 111.597 81.6956C112.269 70.9555 114.468 47.6416 114.468 47.6416H103.349Z" fill="#407BFF"/>
<path id="Vector_158" opacity="0.8" d="M103.349 47.291C103.349 47.291 101.998 70.9321 101.972 80.5787C101.942 90.6085 104.176 123.453 104.176 123.453H109.535C109.535 123.453 110.977 91.194 111.597 81.345C112.269 70.6049 114.468 47.291 114.468 47.291H103.349Z" fill="#333333"/>
<path id="Vector_159" d="M102.055 44.6035L103.557 44.724C103.679 44.7343 103.798 44.7717 103.904 44.8336C104.01 44.8954 104.101 44.9801 104.17 45.0815C104.24 45.183 104.286 45.2985 104.305 45.4199C104.324 45.5412 104.315 45.6653 104.28 45.783L103.66 47.8707C103.608 48.0404 103.516 48.1948 103.391 48.321C103.266 48.4472 103.112 48.5414 102.943 48.5955C102.774 48.6496 102.594 48.662 102.42 48.6318C102.245 48.6015 102.08 48.5295 101.939 48.4217C101.162 47.6994 100.606 46.7729 100.333 45.7485L102.055 44.6035Z" fill="#FFD5BD"/>
<path id="Vector_160" d="M103.229 121.669C103.203 121.669 103.444 123.894 103.444 123.894H109.961L110.215 121.91L103.229 121.669Z" fill="#407BFF"/>
<path id="Vector_161" d="M103.229 121.669C103.203 121.669 103.444 123.894 103.444 123.894H109.961L110.215 121.91L103.229 121.669Z" fill="#456AD0"/>
</g>
</g>
</svg>
